<?xml version="1.0" encoding="UTF-8"?>
<svg id="Layer_1" data-name="Layer 1" xmlns="http://www.w3.org/2000/svg" viewBox="0 0 237.46 179.93">
  <defs>
    <style>
      .cls-1 {
        fill: #983c23;
      }
    </style>
  </defs>
  <g>
    <path class="cls-1" d="M28.93,169.09c-.06-.24-.1-.47-.11-.71-.02-.24-.11-.47-.29-.71-.44-.5-.89-.59-1.33-.27-.18.12-.31.18-.4.18-.3.03-.5.21-.62.53-.12.21-.26.34-.42.4-.16.06-.35.09-.55.09-.18,0-.32-.05-.42-.15-.1-.1-.2-.23-.29-.38-.06-.09-.1-.18-.11-.29-.02-.1-.05-.2-.11-.29-.06-.12-.11-.22-.15-.31-.04-.09-.1-.19-.15-.31-.06-.12-.11-.23-.15-.33-.04-.1-.1-.21-.15-.33-.03-.12-.04-.24-.04-.38s-.03-.26-.09-.38c-.15-.35-.3-.7-.46-1.04-.16-.34-.3-.7-.42-1.08-.15-.41-.33-.78-.53-1.11-.21-.32-.43-.65-.66-.97,0-.06-.02-.09-.07-.09s-.07-.03-.07-.09c-.06-.15-.1-.29-.13-.42-.03-.13-.07-.27-.13-.42-.21-.29-.27-.58-.18-.84.09-.27.29-.43.62-.49.41-.12.77-.29,1.08-.53.31-.24.61-.5.91-.8.21-.24.41-.45.62-.64.21-.19.43-.39.66-.6.06-.06.09-.12.09-.18.12-.29.23-.58.33-.84.1-.27.21-.55.33-.84.09-.27.19-.52.31-.77.12-.25.19-.54.22-.86.03-.35.03-.71,0-1.06-.03-.09-.04-.18-.02-.29.01-.1.02-.2.02-.29,0-.06,0-.1-.02-.11-.02-.01-.02-.05-.02-.11-.03-.06-.05-.11-.07-.15-.02-.04-.04-.1-.07-.15,0-.21-.02-.34-.04-.4-.15-.35-.31-.7-.49-1.04-.18-.34-.38-.67-.62-1-.24-.29-.45-.6-.64-.93-.19-.32-.46-.59-.82-.8-.09-.06-.17-.13-.24-.2-.07-.07-.15-.13-.24-.15-.33-.09-.62-.27-.89-.53-.12-.18-.24-.28-.35-.31-.41-.12-.83-.22-1.24-.31-.41-.09-.83-.18-1.24-.27-.09-.03-.18-.04-.27-.04s-.18-.03-.27-.09c-.53-.21-1.06-.37-1.59-.49-.53-.12-1.09-.16-1.68-.13-.41.03-.84.05-1.28.07-.44.02-.89,0-1.33-.07-.38-.06-.76-.07-1.13-.04-.37.03-.73.07-1.08.13-.24.06-.46.1-.69.13-.22.03-.45-.03-.69-.18-.15-.06-.3-.06-.44,0-.18.03-.35.06-.53.09-.18.03-.35.06-.53.09-.15.03-.3.05-.44.07-.15.02-.27,0-.35-.07-.33-.21-.63-.32-.93-.35-.3-.03-.61-.03-.93,0-.38.03-.75.06-1.11.09-.35.03-.71.06-1.06.09-.3,0-.52.07-.69.22-.16.15-.32.34-.46.58-.21.35-.15.71.18,1.06.09.12.18.22.27.31.09.09.19.19.31.31.15.21.32.33.53.38.21.04.43.07.66.07.03,0,.04-.01.04-.04.15-.06.27-.12.38-.18.1-.06.18-.16.24-.31.03-.06.15-.07.38-.02.22.04.35.1.38.16.03.09.01.16-.04.22,0,.03-.02.04-.04.02-.03-.01-.06,0-.09.02-.06,0-.13,0-.22-.02-.09-.01-.1.07-.04.24l-.04.04s-.04.02-.04.04c-.06-.06-.09-.1-.09-.13.03-.15.01-.22-.04-.22s-.13.02-.22.04c-.09.06-.18.09-.27.09s-.18.02-.27.04c.24.15.43.32.58.51.15.19.28.41.4.64.15.27.27.52.35.78.09.25.12.52.09.82,0,.27,0,.54.02.82.01.28.07.54.15.77.15.33.18.63.11.91-.07.28-.15.57-.24.86v1.11c0,.3.01.59.04.89,0,.12-.02.24-.07.35-.04.12,0,.21.15.27v.13c-.06.33-.03.59.09.8.06.15.07.25.04.31-.03.24-.05.46-.07.69-.02.22-.04.45-.07.69-.03.15-.04.3-.04.44s.03.3.09.44c.06.09.07.19.04.31-.03.12-.06.24-.09.35,0,.06,0,.11-.02.15-.02.04-.02.1-.02.15.06.33.07.66.04,1-.03.34-.12.67-.27,1v1.59c0,.06,0,.1.02.13.01.03.02.06.02.09.03.12.06.23.09.33.03.1.04.2.04.29,0,.21,0,.41-.02.62-.02.21-.05.4-.11.58-.12.3-.15.58-.11.84.04.27.1.55.15.84.06.27.12.54.18.82.06.28.01.57-.13.86-.03.09-.04.19-.04.31s-.02.24-.04.35c0,.18-.02.3-.04.35-.18.24-.35.46-.53.69-.18.22-.37.42-.58.6-.24.24-.5.43-.8.58-.3.15-.58.31-.84.49-.18.15-.33.32-.44.51-.12.19-.18.41-.18.64v.18c.21.15.39.28.55.4.16.12.35.21.55.27.24.06.49.09.75.09s.52-.01.75-.04c.41-.03.81-.04,1.2-.04s.78.07,1.2.22c.12.06.24.07.35.04.12-.03.24-.06.35-.09.12-.03.22-.07.31-.11.09-.04.19-.07.31-.07.35.03.71.05,1.06.07.35.02.69.02,1.02.02.41.03.83.04,1.26.04h1.66c.12,0,.25-.01.4-.04.32-.06.59-.21.8-.44.21-.24.34-.49.4-.75.06-.56-.24-1-.89-1.33-.3-.15-.59-.29-.89-.42-.3-.13-.61-.27-.93-.42-.06-.03-.12-.07-.18-.13-.47-.62-.75-1.27-.84-1.95-.03-.32-.04-.63-.02-.93.01-.29-.05-.6-.2-.93-.15-.24-.18-.49-.11-.77.07-.28.14-.54.2-.78.03-.27,0-.56-.09-.89,0-.03,0-.04-.02-.04s-.02-.01-.02-.04c0-.06,0-.1.02-.13.01-.03.02-.07.02-.13.03-.56.03-1.12,0-1.68,0-.41.1-.71.31-.89.09-.09.16-.18.22-.27.06-.09.12-.19.18-.31.09-.15.21-.29.35-.42s.31-.21.49-.24c.5-.06,1-.06,1.51,0,.24.06.48.12.73.18.25.06.49.12.73.18,1.45.27,2.33,1.08,2.66,2.44l.13.13c.06.12.11.23.15.33.04.1.08.21.11.33.06.15.08.3.07.46-.02.16,0,.32.07.47.12.27.16.52.13.75-.03.12-.03.24,0,.35,0,.12.01.23.04.33.03.1.04.21.04.33-.03.41-.04.81-.04,1.2s.09.77.27,1.15c.06.12.07.24.04.35-.03.12-.04.24-.04.35.03.06.04.11.04.15s.01.1.04.15c.15.35.31.69.49,1.02.18.33.34.66.49,1.02.15.38.41.69.8.93.12.06.22.13.31.22.09.09.18.18.27.27.06.06.09.1.09.13-.03.27.1.46.4.58.15.09.29.16.44.2s.31.1.49.15c.32.06.66.11,1.02.15.35.04.69.1,1.02.15.38.09.71.03.97-.18.18-.15.35-.28.53-.4.18-.12.37-.21.58-.27.59-.21,1.02-.52,1.28-.95.27-.43.44-.94.53-1.53,0-.06.03-.15.09-.27.18-.41.32-.82.44-1.22s.12-.82,0-1.26ZM19.89,153.73s-.04.02-.04.04c-.06.15-.09.3-.09.46s-.04.3-.13.42c-.18.24-.3.5-.35.8-.06.3-.16.56-.31.8-.12.18-.26.33-.42.46-.16.13-.32.26-.46.38-.15.09-.31.16-.49.22-.18.06-.34.12-.49.18-.38.09-.69.04-.93-.13h-.22c-.27.15-.53.24-.8.29-.27.04-.55.05-.84.02-.35-.03-.7-.06-1.04-.09-.34-.03-.69-.07-1.04-.13-.09,0-.17-.01-.24-.04-.07-.03-.15-.07-.24-.13-.06-.03-.13-.07-.2-.11-.07-.04-.14-.08-.2-.11-.41-.12-.67-.32-.77-.6-.1-.28-.17-.58-.2-.91-.03-.15-.04-.3-.04-.46s-.02-.32-.04-.46c.03-.12.04-.29.04-.53,0-.15,0-.31.02-.49.01-.18,0-.34-.07-.49-.15-.29-.12-.58.09-.84,0-.03,0-.06-.02-.09-.02-.03-.02-.07-.02-.13,0-.15,0-.3-.02-.46-.02-.16.04-.32.15-.46.06-.06.07-.13.04-.22-.03-.09-.04-.16-.04-.22-.03,0-.06.02-.09.04-.06,0-.1.02-.13.04-.03.03-.07.04-.13.04-.09,0-.19-.03-.31-.09.06-.06.1-.12.13-.18.03-.06.07-.12.13-.18h.13c.18.09.27.09.27,0v-.27c0-.21,0-.41-.02-.6-.02-.19,0-.39.07-.6.06-.15.09-.31.09-.49s.07-.34.22-.49c.21-.21.38-.32.53-.35.15-.06.28-.13.4-.2.12-.07.24-.14.35-.2.15-.06.27-.14.38-.24.1-.1.21-.18.33-.24.12-.06.24-.09.35-.09h.4l1.33.13c.21.03.41.04.6.02.19-.01.39,0,.6.07.12.03.22.08.31.15.09.07.19.14.31.2.12.06.19.09.22.09.12.03.24.04.35.04s.24.02.35.04c.09.03.18.07.27.13.09.06.19.03.31-.09.03,0,.07.02.11.04.04.03.1.06.15.09-.03.03-.06.05-.09.07-.03.02-.06.04-.09.07h-.09s.01.06.04.09c.15.15.28.27.4.38.12.1.25.23.4.38l.13.13c.15.41.31.83.49,1.26.18.43.34.85.49,1.26.03.09.04.19.02.31-.02.12-.02.24-.02.35,0,.06.01.1.04.13.12.33.16.63.13.93-.03.3-.18.58-.44.84Z"/>
    <path class="cls-1" d="M68.37,162.98c.56,0,.98.16,1.26.49.28.33.41.77.38,1.33-.03.06,0,.13.09.22,0,.06,0,.1.02.13.01.03.02.06.02.09v2.21c0,.21-.02.35-.04.44-.12.41-.17.84-.15,1.28.01.44.04.89.07,1.33v.49c0,.18.01.34.04.49v.09c-.18.12-.24.27-.2.44.04.18.05.34.02.49-.06.27-.15.51-.27.73-.12.22-.3.41-.53.55-.33.21-.65.39-.97.55-.33.16-.65.33-.97.51l-.09.04c-.24-.09-.46-.1-.66-.02-.21.07-.43.14-.66.2-.24.06-.46.06-.66,0-1.21-.33-2.38-.4-3.5-.22-.03.03-.06.04-.09.04h-.04c-.15-.15-.28-.19-.4-.13s-.24.09-.35.09h-.75c-.27,0-.52-.03-.75-.09-.33-.06-.65-.1-.97-.11-.33-.01-.65,0-.97.02-.94.06-1.87.06-2.79,0-.5,0-.98.02-1.44.04-.46.03-.92.1-1.39.22-.21.06-.41.07-.6.02-.19-.04-.39-.07-.6-.07-.27-.03-.53-.05-.8-.07-.27-.02-.53-.02-.8-.02-.35,0-.7,0-1.04-.02-.34-.02-.67-.11-1-.29-.15-.06-.3-.09-.46-.09h-.46c-.38.06-.76.11-1.13.15-.37.04-.75.1-1.13.15h-.89c-.09,0-.18-.02-.27-.07-.09-.04-.18-.1-.27-.16-.33-.21-.52-.45-.6-.73-.07-.28-.13-.61-.15-1,0-.32.07-.58.2-.75.13-.18.32-.34.55-.49.24-.15.48-.29.73-.42.25-.13.51-.23.78-.29.47-.09.84-.27,1.11-.53.03-.03.07-.04.13-.02.06.02.12,0,.18-.07.24-.15.44-.32.62-.53.06-.06.1-.12.11-.18.01-.06.05-.12.11-.18.12-.15.21-.29.27-.42.06-.13.04-.29-.04-.46-.03-.06-.03-.12,0-.18.03-.06.04-.12.04-.18.03-.15.04-.34.04-.58l.13-.53c0-.15.01-.31.04-.49.03-.18.03-.34,0-.49-.06-.24-.1-.48-.11-.73-.02-.25.05-.49.2-.73,0-.03,0-.04.02-.04s.02-.01.02-.04c-.09-.24-.09-.46,0-.69.09-.22.06-.45-.09-.69-.06-.12-.06-.25,0-.4.06-.15.07-.29.04-.44,0-.21-.02-.4-.04-.58-.03-.18-.06-.35-.09-.53v-.22c.12-.47.07-.9-.13-1.28v-.8c.15-.06.2-.13.15-.22-.04-.09-.05-.16-.02-.22,0-.15.01-.28.04-.4.03-.12.06-.24.09-.35.03-.15.06-.29.09-.44.03-.15,0-.29-.09-.44v-.18c.12-.41.19-.8.22-1.17.03-.37-.06-.73-.27-1.08-.12-.27-.13-.53-.04-.8,0-.06.03-.18.09-.35.12-.38.1-.69-.04-.93-.03-.03-.03-.07,0-.11.03-.04.04-.1.04-.15-.03-.24-.05-.45-.07-.64-.02-.19-.02-.41-.02-.64,0-.12.01-.21.04-.27.21-.24.24-.52.09-.84-.06-.15-.1-.27-.13-.38-.03-.1-.07-.23-.13-.38,0-.09.01-.15.04-.18.03-.06.07-.11.11-.15.04-.04.05-.08.02-.11-.06-.12-.16-.21-.31-.27-.09-.03-.15-.05-.2-.07-.04-.01-.04-.1.02-.24,0-.06-.02-.1-.04-.13-.03.03-.06.04-.09.04-.06.06-.09.06-.09,0-.03,0-.04,0-.04-.02,0-.01-.02-.02-.04-.02-.15-.18-.3-.34-.46-.49-.16-.15-.36-.27-.6-.35-.18-.06-.35-.16-.51-.31-.16-.15-.32-.29-.46-.44-.33-.27-.33-.55,0-.84.24-.24.52-.43.84-.58.32-.12.64-.21.95-.29.31-.07.63-.14.95-.2.09-.03.18-.02.27.02.09.04.18.07.27.07.27-.03.53-.05.8-.07.27-.01.53-.02.8-.02.47.03.94.04,1.39.04s.94.03,1.44.09c.74.06,1.48.11,2.21.15.74.04,1.49.02,2.26-.07.27-.03.54-.01.82.04.28.06.57.1.86.13h.51c.16,0,.32-.03.46-.09.32-.06.63-.09.91-.09s.58.09.91.27c.27.15.54.2.82.16.28-.04.57-.1.86-.16.29-.06.58-.12.84-.18.27-.06.53-.09.8-.09.35,0,.71.02,1.06.04.35.03.71.06,1.06.09.06,0,.13.02.2.04.07.03.14.04.2.04.15.03.29.06.42.09.13.03.27.03.42,0,.56,0,.99.27,1.28.8.09.24.18.46.29.66.1.21.18.43.24.66.06.15.09.32.09.51v.55c-.03.33-.03.64,0,.95.03.31.12.63.27.95v.13c.03.18.04.35.04.53s.01.35.04.53l.27,1.59c0,.12.01.21.04.27.15.18.19.35.13.51-.06.16-.12.33-.18.51-.06.15-.09.31-.09.49s-.02.35-.04.53c0,.12-.03.21-.09.27-.24.21-.59.33-1.06.35-.47.03-.84-.03-1.11-.18-.03-.03-.05-.06-.07-.09-.02-.03-.04-.06-.07-.09-.06-.27-.12-.53-.18-.8-.06-.27-.12-.53-.18-.8-.06-.24-.11-.47-.15-.69-.04-.22-.14-.45-.29-.69-.09-.09-.15-.2-.18-.33-.03-.13-.07-.26-.13-.38-.03-.15-.12-.29-.27-.44-.35-.29-.62-.68-.8-1.15-.06-.12-.12-.22-.18-.31-.15-.15-.29-.3-.42-.46-.13-.16-.23-.36-.29-.6,0-.03-.02-.04-.04-.04-.41-.24-.81-.49-1.2-.78-.38-.28-.83-.39-1.33-.33-.35.03-.68,0-.97-.11-.3-.1-.61-.21-.93-.33-.3-.09-.6-.13-.91-.13h-.95c-.44,0-.89,0-1.33.02-.44.02-.89.02-1.33.02-.03,0-.05-.01-.07-.04-.02-.03-.05-.06-.11-.09-.09-.06-.18-.12-.27-.2-.09-.07-.19-.14-.31-.2-.06-.03-.11-.01-.15.04-.04.06-.1.12-.15.18-.03.03-.04.07-.04.13-.03-.03-.06-.04-.09-.04s-.06-.01-.09-.04c0-.06-.02-.1-.04-.13-.06-.06-.1-.12-.13-.18v.18c0,.06-.03.15-.09.27-.03.03-.04.06-.04.09h.13s.06-.01.09-.04.06-.03.09,0c.06,0,.11.02.15.04.04.03.1.06.15.09-.06.03-.12.07-.18.13-.27.12-.5.26-.71.42-.21.16-.37.38-.49.64l-.13.27c-.09.15-.16.29-.22.42-.06.13-.09.29-.09.46.03.06.03.13,0,.2-.03.07-.06.14-.09.2-.18.24-.27.48-.29.73-.02.25,0,.52.07.82.06.21.1.41.13.62.03.21.07.43.13.66.06.06.06.12,0,.18-.15.41-.21.82-.18,1.22.03.4.07.8.13,1.22.06.38.15.71.27.97.38.68,1.02.92,1.9.71.24-.06.47-.13.71-.2.24-.07.47-.15.71-.24.15-.06.31-.12.49-.2.18-.07.35-.15.53-.24.15-.06.24-.15.27-.27.06-.06.11-.13.15-.2.04-.07.14-.13.29-.15.12,0,.21-.07.27-.22.12-.18.23-.35.33-.53.1-.18.2-.35.29-.53.15-.24.29-.45.42-.64.13-.19.33-.33.6-.42.32-.12.55-.14.69-.07.13.07.24.23.33.46.09.24.19.48.31.73.12.25.22.49.31.73.03.06.03.14,0,.24-.03.1-.06.2-.09.29-.03.12-.07.22-.13.31-.06.09-.02.19.13.31.03,0,.04.06.04.18v2.13c0,.71-.02,1.42-.04,2.13,0,.06-.02.13-.04.22-.03.09-.06.16-.09.22v.13c.15.09.2.18.15.29-.04.1-.07.2-.07.29.03.15.06.3.09.46.03.16.07.32.13.46.06.18.1.35.13.51.03.16.01.35-.04.55-.06.21-.09.42-.09.64s-.02.45-.04.69v.09c-.15.18-.28.37-.4.58-.12.21-.27.38-.44.53-.24.21-.52.26-.86.15-.34-.1-.58-.3-.73-.6-.21-.35-.41-.71-.6-1.06-.19-.35-.39-.69-.6-1.02-.06-.12-.09-.22-.09-.31-.06-.29-.13-.57-.2-.82-.07-.25-.24-.48-.51-.69-.12-.09-.22-.19-.31-.31-.09-.12-.18-.25-.27-.4-.18-.21-.38-.35-.62-.44-.24-.06-.41-.15-.53-.27-.24-.24-.49-.36-.75-.38-.27-.01-.55-.02-.84-.02-.35.03-.62.24-.8.62-.06.15-.14.29-.24.42-.1.13-.18.27-.24.42-.09.18-.1.4-.04.66.03.18.06.35.09.51.03.16.06.33.09.51.06.12.06.22,0,.31-.21.3-.28.6-.22.91.06.31.12.63.18.95.09.3.09.58,0,.84s-.15.53-.2.8c-.04.27,0,.55.15.84v.04l-.04.04c-.15.21-.19.39-.13.55.06.16.13.32.22.46.15.18.27.41.35.71.06.21.15.42.29.64.13.22.29.38.46.46.32.18.64.37.95.58.31.21.67.28,1.08.22h.13l-.04.09c-.03.06-.04.1-.04.13s-.02.06-.04.09c0,.03.01.04.04.04h.09s.05-.06.07-.09c.01-.03.05-.07.11-.13.09-.09.15-.13.18-.13.29-.03.59-.04.89-.04h.89c.15.03.37.1.66.22.35.18.75.16,1.2-.04.15-.06.37-.12.66-.18.12-.03.23-.04.33-.04s.23-.01.38-.04c.15-.06.29-.1.42-.11.13-.01.27-.05.42-.11.24-.09.48-.17.73-.24.25-.07.49-.18.73-.33.21-.12.39-.24.55-.38.16-.13.32-.27.46-.42.06-.06.1-.12.11-.18.01-.06.05-.12.11-.18.06-.15.13-.28.2-.4.07-.12.15-.24.24-.35.18-.24.38-.44.62-.62.09-.12.18-.24.27-.35.09-.12.12-.25.09-.4,0-.03,0-.05.02-.07s.02-.04.02-.07c.15-.27.28-.52.4-.77.12-.25.25-.52.4-.82.06-.12.12-.32.18-.62.06-.12.1-.19.13-.22.09-.15.18-.28.27-.4.09-.12.16-.25.22-.4.21-.53.59-.8,1.15-.8Z"/>
    <path class="cls-1" d="M112.52,173.83c-.06-.12-.09-.22-.09-.31-.06-.18-.23-.38-.51-.62-.28-.24-.52-.38-.73-.44-.15-.03-.31-.07-.49-.11-.18-.04-.34-.13-.49-.24-.24-.24-.46-.48-.69-.73-.22-.25-.38-.55-.46-.91-.03-.15-.09-.27-.18-.35-.09-.09-.16-.19-.22-.31v-.18c-.06-.12-.12-.23-.18-.33-.06-.1-.09-.21-.09-.33.03-.24,0-.46-.09-.66-.09-.21-.16-.41-.22-.62-.06-.12-.11-.23-.15-.33-.04-.1-.1-.2-.15-.29-.53-1.03-.81-2.07-.84-3.1,0-.06-.02-.1-.04-.13-.03-.03-.06-.07-.09-.13-.06-.09-.11-.18-.15-.27-.04-.09-.08-.18-.11-.27-.06-.24-.1-.48-.13-.73-.03-.25-.1-.49-.22-.73-.18-.41-.38-.79-.6-1.13-.22-.34-.44-.7-.64-1.08-.09-.21-.17-.41-.24-.6-.07-.19-.11-.39-.11-.6,0-.59-.07-1.09-.22-1.51-.06-.15-.13-.29-.2-.44-.07-.15-.1-.29-.07-.44.03-.29-.02-.55-.13-.75-.12-.21-.24-.43-.35-.66-.06-.09-.15-.25-.27-.49-.15-.32-.3-.65-.46-.97-.16-.32-.32-.65-.46-.97-.03-.06-.06-.13-.09-.22-.03-.09-.04-.16-.04-.22,0-.24-.02-.47-.04-.71-.03-.24-.12-.47-.27-.71-.03-.03-.04-.1-.04-.22-.06-.18-.1-.35-.11-.53-.02-.18-.05-.35-.11-.53-.09-.32-.18-.65-.27-.97-.09-.32-.18-.65-.27-.97,0-.03-.02-.06-.04-.09-.06-.12-.11-.23-.15-.33-.04-.1-.1-.21-.15-.33-.15-.38-.32-.75-.51-1.08-.19-.34-.49-.6-.91-.78-.03-.03-.06-.05-.09-.07-.03-.01-.06-.04-.09-.07-.15-.15-.3-.26-.44-.33-.15-.07-.31-.07-.49.02-.15.06-.29.14-.42.24-.13.1-.27.21-.42.33-.09.06-.17.14-.24.24-.07.1-.14.2-.2.29-.06.06-.09.12-.09.18.03.21,0,.39-.09.55-.09.16-.19.32-.31.46,0,.09-.02.15-.04.18-.03.12-.06.24-.09.38-.03.13-.07.24-.13.33-.24.35-.41.72-.53,1.08-.12.37-.24.75-.35,1.13v.35c.18-.06.29-.1.35-.13.09,0,.19-.01.31-.04.12-.03.19-.03.22,0,.06.18.15.25.27.22.12-.03.22-.04.31-.04.18.06.28.09.31.09l-.18-.18v-.22c0-.27.01-.47.04-.62.03-.06.05-.12.07-.18.01-.06.05-.1.11-.13.12-.06.24-.1.35-.11.12-.01.24-.04.35-.07.06-.03.11-.03.15,0,.04.03.1.03.15,0,.09-.06.18-.11.27-.15.09-.04.18-.08.27-.11.06,0,.11.02.15.04.04.03.1.06.15.09-.03.03-.06.05-.09.07-.03.02-.06.04-.09.07s-.04.09-.04.18c.06,0,.12,0,.18.02.06.02.12,0,.18-.02v-.04s0-.04.02-.04.02-.01.02-.04c0-.09-.02-.18-.07-.27-.04-.09,0-.15.15-.18.06-.03.1-.04.13-.02.03.02.07.02.13.02-.03.06-.04.1-.04.11s-.02.05-.04.11c0,.09.01.13.04.13.32.15.5.25.53.31.03.06-.03.21-.18.44-.06.03-.12.05-.18.07-.06.02-.09,0-.09-.02-.09-.15-.21-.18-.35-.09-.06.03-.08.07-.07.11.01.04,0,.1-.02.16,0,.15-.04.28-.13.4h-.13c-.06,0-.09-.01-.09-.04-.12-.18-.18-.32-.18-.44-.03-.06-.02-.11.04-.15.06-.04.1-.1.13-.15,0-.03-.03-.1-.09-.22-.06.06-.13.1-.22.13-.09.03-.16.07-.22.13v.09c0,.06.01.09.04.09.12.15.17.26.15.33-.02.07-.13.15-.33.24-.06.03-.1.05-.11.07s-.05.04-.11.07v.09c.18.18.32.31.44.4.21.15.21.28,0,.4-.06.03-.13.04-.2.02-.07-.01-.14-.02-.2-.02-.09,0-.16.03-.22.09-.03,0-.09.04-.18.13-.06-.12-.09-.22-.09-.31v-.18c-.12.06-.19.09-.22.09-.06.06-.15.12-.27.18-.12.06-.24.13-.38.2-.13.07-.2.14-.2.2,0,.18-.04.27-.13.27s-.16-.03-.22-.09c-.15-.06-.28-.14-.4-.24-.12-.1-.24-.2-.35-.29v-.18l-.09.09c-.15.24-.28.46-.4.66-.12.21-.24.43-.35.66-.12.24-.21.46-.29.69-.07.22-.15.45-.24.69l-.53,1.33c-.06.12-.09.22-.09.31-.03.18-.06.35-.09.53-.03.18-.13.33-.31.44-.03,0-.04.03-.04.09-.09.3-.18.57-.29.82-.1.25-.27.48-.51.69-.12.09-.21.22-.27.4-.09.3-.17.59-.24.89-.07.3-.15.59-.24.89-.09.33-.22.62-.4.89-.12.18-.21.34-.29.49-.07.15-.1.34-.07.58,0,.06-.02.12-.07.18-.04.06-.08.12-.11.18-.06.06-.11.13-.15.22-.04.09-.05.16-.02.22.03.35-.1.68-.4.97-.15.21-.27.41-.35.62-.06.15-.1.29-.13.42-.03.13-.07.27-.13.42-.03.06-.07.11-.11.15s-.05.1-.02.15c.03.21,0,.39-.09.55-.09.16-.18.32-.27.46l-.53.93c-.21.41-.41.83-.62,1.26-.21.43-.43.86-.66,1.31-.15.27-.34.49-.58.69-.24.19-.43.44-.58.73-.06.15-.16.27-.31.35-.15.09-.25.21-.31.35-.15.3-.33.51-.55.64s-.46.24-.73.33c-.15.06-.3.11-.44.15-.15.04-.3.14-.44.29-.21.24-.33.46-.38.66-.04.21,0,.44.15.71.21.35.5.47.89.35.38-.12.78-.12,1.2,0,.35.12.71.19,1.06.22.35.03.71.03,1.06,0,.24-.03.45-.04.64-.04h.6c.44,0,.89,0,1.33.02.44.01.89,0,1.33-.02.41,0,.69-.24.84-.71.09-.47.04-.86-.13-1.15-.09-.15-.11-.26-.07-.33.04-.07.13-.14.24-.2.47-.35.5-.74.09-1.15-.06-.06-.13-.13-.2-.22-.07-.09-.14-.18-.2-.27-.09-.32-.17-.66-.24-1.02-.07-.35-.14-.69-.2-1.02-.03-.24-.02-.46.02-.66.04-.21.1-.43.15-.66.06-.15.15-.29.27-.42s.21-.27.27-.42c.15-.44.4-.74.75-.89.35-.15.72-.25,1.11-.31.62-.06,1.17-.16,1.64-.31.5-.21.94-.19,1.33.04.15.06.29.12.42.18.13.06.27.12.42.18h.18c.29-.24.69-.32,1.2-.27.32.06.66.1,1,.13.34.03.69.07,1.04.13.03,0,.04,0,.04.02,0,.02.01.02.04.02.12.06.23.13.33.2.1.07.21.11.33.11.32.03.55.15.66.35.12.21.25.41.4.62.03.03.04.05.04.07s.01.04.04.07c.09.33.19.62.31.89.15.35.31.71.49,1.06.18.35.27.74.27,1.15,0,.15.03.37.09.66l.53,1.33c.03.09.04.22.04.4,0,.12,0,.23.02.33.01.1.02.23.02.38.06.5.24.9.55,1.2s.7.41,1.17.35h1.11c.18.03.35.04.53.04h1.97c.46,0,.92-.02,1.39-.04.09,0,.18.02.29.07.1.04.2.04.29-.02.24-.09.41-.22.51-.4s.21-.37.33-.58c0-.06-.03-.12-.09-.18ZM100.39,161.9c-.06.13-.18.23-.35.29-.3.15-.58.3-.86.44-.28.15-.6.21-.95.18-.33-.06-.63-.12-.91-.18-.28-.06-.58-.1-.91-.13-.24-.06-.49-.08-.75-.07-.27.02-.52,0-.75-.02-.15,0-.28-.09-.4-.27-.24-.24-.41-.51-.53-.82-.12-.31-.13-.64-.04-1,.03-.15.07-.34.13-.58.03-.09.05-.17.07-.24.01-.07.02-.16.02-.24.06-.12.1-.24.11-.35.01-.12.05-.24.11-.35,0-.06.03-.12.09-.18.09-.24.17-.48.24-.73.07-.25.18-.48.33-.69.18-.29.29-.6.35-.93.06-.32.19-.62.4-.89.15-.18.31-.36.49-.55.18-.19.37-.36.58-.51.15-.15.32-.18.53-.09.21.09.38.25.53.49.27.33.49.66.66,1.02.18.35.34.72.49,1.11.09.18.17.35.24.51.07.16.1.36.07.6,0,.06.01.13.04.22.03.09.06.16.09.22.06.15.11.3.15.46.04.16.1.32.15.47l.53,1.59v.22c.06.18.1.3.13.35,0,.03,0,.06.02.09.01.03.02.06.02.09-.03.18-.07.33-.13.46Z"/>
    <path class="cls-1" d="M151.43,164.62c-.06.24-.11.46-.15.69-.04.22-.1.45-.15.69-.06.3-.11.59-.15.89-.04.3-.05.61-.02.93.03.21.04.42.04.64s-.03.44-.09.64c-.12.44-.17.88-.15,1.31.01.43.04.85.07,1.26.03.5-.03.97-.18,1.42-.15.44-.34.87-.58,1.28,0,.06-.03.09-.09.09-.27.09-.52.18-.77.27-.25.09-.51.18-.77.27-.09.03-.21.04-.35.04-.3.03-.58.05-.86.07-.28.01-.57.02-.86.02-.12,0-.24-.02-.35-.07-.12-.04-.25-.1-.4-.15-.03,0-.05-.02-.07-.04-.02-.03-.05-.03-.11,0-.18,0-.35,0-.53.02-.18.01-.37.02-.58.02-.35,0-.71,0-1.06-.02-.35-.02-.71-.02-1.06-.02-.06,0-.13.01-.2.04-.07.03-.14.06-.2.09-.35.18-.69.16-1.02-.04,0-.03-.04-.04-.13-.04h-2.48c-.27,0-.46.04-.58.13-.18.12-.37.1-.58-.04-.21-.21-.43-.31-.66-.31s-.47.03-.71.09c-.18.06-.36.1-.55.11-.19.01-.38,0-.55-.02-.44-.09-.89-.13-1.35-.11-.46.01-.91.04-1.35.07-.3,0-.52-.03-.66-.09-.38-.12-.8-.07-1.24.13-.53.21-1.03.21-1.51,0-.33-.12-.66-.17-1.02-.15-.35.02-.71.04-1.06.07-.21.03-.41.04-.6.04h-.6c-.12,0-.25-.07-.4-.22-.27-.38-.33-.81-.18-1.28.06-.32.22-.49.49-.49.12,0,.22-.04.31-.13.27-.15.52-.29.77-.44.25-.15.49-.29.73-.44.18-.09.35-.18.51-.29.16-.1.35-.18.55-.24.32-.12.58-.38.75-.8.15-.41.29-.83.42-1.24.13-.41.17-.86.11-1.33-.06-.5-.11-.99-.15-1.46-.04-.47-.07-.96-.07-1.46,0-.32.03-.66.09-1.02.06-.35.1-.69.13-1.02.06-.29.09-.59.09-.89v-.89c0-.32-.03-.66-.09-1-.06-.34-.06-.67,0-1,.06-.41.07-.81.02-1.2-.04-.38-.1-.77-.15-1.15v-.29c0-.1.03-.18.09-.24.06-.12.1-.24.11-.35.01-.12.02-.24.02-.35,0-.44.01-.88.04-1.31.03-.43.06-.86.09-1.31,0-.32-.02-.63-.04-.93-.03-.29-.12-.6-.27-.93-.06-.12-.09-.24-.09-.38s.01-.27.04-.42c.24-.77.15-1.45-.27-2.04-.27-.38-.56-.74-.89-1.06-.33-.32-.72-.56-1.2-.71-.18-.06-.33-.09-.44-.09-.33.03-.58-.03-.77-.18-.19-.15-.41-.29-.64-.44-.24-.15-.28-.34-.13-.58.09-.09.17-.18.24-.27.07-.09.15-.18.24-.27.21-.15.44-.29.71-.44.18-.06.37-.06.58,0,.15.03.28.07.4.11.12.04.25.08.4.11.24.03.46.04.69.04s.45.02.69.04c.24.06.46,0,.66-.18.24-.24.49-.28.75-.13.21.12.41.17.6.15.19-.01.4-.05.64-.11.27-.06.54-.1.82-.11.28-.01.57,0,.86.02.27.03.52.08.77.16.25.07.49.13.73.15.18.06.35.07.53.04.18-.03.35-.04.53-.04h1.59c.15.06.29.11.44.15.15.04.25.15.31.33.06.27.04.53-.07.8-.1.27-.24.44-.42.53-.06.03-.13.04-.22.04s-.16.02-.22.04c-.3.09-.58.17-.84.24-.27.07-.53.17-.8.29-.5.24-.83.55-1,.93-.16.38-.23.83-.2,1.33,0,.15.01.27.04.38.03.1.04.21.04.33,0,.06,0,.13.02.2.01.07,0,.13-.02.15-.15.18-.21.36-.2.55.01.19.02.38.02.55l-.13,2.66c0,.47,0,.93.02,1.37.01.44.11.89.29,1.33.06.12.07.24.02.35-.04.12-.07.25-.07.4.03.71.05,1.42.07,2.13.01.71.02,1.43.02,2.17v2.79c0,.12-.03.24-.09.35-.18.3-.29.6-.33.91-.04.31-.05.63-.02.95.03.5.05,1,.07,1.51.01.5.05,1,.11,1.51.06.59.24,1.1.55,1.53.31.43.7.8,1.17,1.13.12.06.24.1.38.11.13.02.26-.02.38-.11.21-.12.38-.1.53.04.21.18.44.28.69.31.25.03.49.03.73,0,.41,0,.84-.02,1.28-.07.44-.04.87-.05,1.28-.02.27,0,.52-.01.77-.04.25-.03.51-.12.77-.27.24-.12.49-.21.75-.27.27-.06.52-.16.75-.31.41-.21.77-.46,1.08-.75.31-.29.61-.6.91-.93.09-.12.17-.23.24-.33.07-.1.15-.18.24-.24.44-.35.75-.78.93-1.28.06-.15.13-.28.2-.4.07-.12.15-.22.24-.31.24-.27.4-.55.49-.86s.16-.63.22-.95c.03-.15.05-.28.07-.4.01-.12.05-.25.11-.4.03-.15.07-.29.11-.44.04-.15.18-.25.42-.31.12-.03.21-.09.29-.18.07-.09.15-.16.24-.22.15-.06.28-.1.4-.13.12-.03.25-.06.4-.09.27-.06.41.04.44.31.06.15.11.27.15.38.04.1.1.21.15.33Z"/>
    <path class="cls-1" d="M176.18,169.22c-.03-.59-.07-1.16-.11-1.7-.04-.55-.08-1.1-.11-1.66,0-.32,0-.66.02-1,.01-.34.02-.67.02-1,0-.38,0-.77-.02-1.15-.02-.38-.02-.78-.02-1.2,0-.32.01-.64.04-.95.03-.31.04-.63.04-.95.03-.06.04-.12.02-.18-.02-.06-.02-.12-.02-.18-.06-.18-.11-.36-.15-.55-.04-.19-.02-.39.07-.6.06-.06.07-.13.04-.22-.03-.09-.07-.16-.13-.22-.12-.29-.19-.58-.22-.84-.03-.27.03-.55.18-.84.06-.15.11-.29.15-.44.04-.15.08-.29.11-.44,0-.35-.06-.63-.18-.84-.09-.27-.07-.47.04-.62.18-.21.16-.4-.04-.58-.33-.27-.4-.62-.22-1.06.09-.21.17-.41.24-.62.07-.21.14-.43.2-.66.06-.29,0-.58-.18-.84-.18-.32-.35-.63-.53-.93-.18-.29-.37-.59-.58-.89-.27-.35-.66-.52-1.2-.49-.15.03-.28.04-.4.02-.12-.01-.25-.04-.4-.07-.03-.03-.05-.06-.07-.09-.02-.03-.04-.06-.07-.09.06-.06.05-.13-.02-.22-.07-.09-.05-.16.07-.22.06,0,.1.02.13.04.03,0,.05,0,.07.02.01.02.04.02.07.02,0-.06.01-.1.04-.13s.03-.07,0-.13l-.09-.09-.04-.04c-.09.06-.19.15-.31.27-.09.27-.22.31-.4.13-.03-.03-.07-.04-.11-.02-.04.02-.08,0-.11-.02-.03,0-.09-.04-.18-.13l.13-.13c.03-.09.09-.15.18-.18-.12-.06-.22-.1-.31-.13-.03-.03-.05-.03-.07,0-.02.03-.04.03-.07,0-.27-.06-.36-.02-.29.11.07.13.11.21.11.24.06.09.13.17.22.24.09.07.18.16.27.24l.27.27-.09.09c-.06.06-.13.1-.2.13-.07.03-.14.07-.2.13-.18.15-.36.3-.55.44-.19.15-.42.24-.69.27-.06,0-.12.03-.18.09l-.8.66c-.21.15-.38.32-.53.51-.15.19-.25.42-.31.69-.06.15-.21.34-.44.58-.24.24-.42.48-.55.73-.13.25-.18.54-.15.86,0,.35-.06.66-.18.93-.15.3-.29.58-.42.86-.13.28-.27.55-.42.82-.09.21-.22.32-.4.33-.18.02-.34-.05-.49-.2-.35-.35-.41-.77-.18-1.24.24-.41.19-.83-.13-1.24-.3-.41-.44-.91-.44-1.51,0-.06.03-.13.09-.2.06-.07.1-.15.13-.24.06-.12.15-.32.27-.62.03-.06.04-.13.04-.2s.01-.14.04-.2l.4.27s.04.03.04.09c.12.06.19.12.22.18.06-.18.07-.29.04-.35-.12-.24-.22-.4-.31-.49-.18-.18-.37-.21-.58-.09-.09,0-.16-.03-.22-.09-.12-.27-.19-.53-.2-.8-.02-.27.05-.55.2-.84.15-.27.18-.55.09-.84-.15-.53-.02-.97.4-1.33.15-.12.28-.24.4-.35.12-.12.24-.24.35-.35.03,0,.05,0,.07-.02.01-.01.04-.02.07-.02.44-.09.89-.17,1.33-.24.44-.07.89-.14,1.33-.2.24-.03.47-.03.71,0,.24.03.47.12.71.27.15.12.31.18.49.2.18.02.35.04.53.07.24.06.49.08.75.07.27-.01.52,0,.75.02.18,0,.31.04.4.13.12.09.21.13.29.11.07-.01.15-.05.24-.11.18-.09.35-.13.53-.13.77.03,1.55.07,2.35.11.8.04,1.58.02,2.35-.07.18-.03.35-.05.53-.07.18-.01.35-.05.53-.11.35-.06.66.04.93.31.06.06.12.09.18.09.44.03.89.04,1.33.04h1.33c.35,0,.7-.04,1.04-.11.34-.07.67-.23,1-.46h.18c.35.15.77.18,1.24.09.53-.09,1.02-.12,1.46-.09.12,0,.22.04.31.11.09.07.19.11.31.11.38,0,.67.11.86.33.19.22.39.45.6.69.18.21.29.44.35.71.06.27.06.53,0,.8-.12.62-.15,1.23-.09,1.84.06.61.13,1.2.22,1.79.09.65.12,1.28.09,1.9-.03.62-.19,1.23-.49,1.82-.06.15-.13.28-.2.4-.07.12-.17.25-.29.4-.15.18-.32.25-.51.22-.19-.03-.33-.16-.42-.4-.09-.32-.17-.63-.24-.93-.07-.29-.14-.6-.2-.93-.06-.41-.16-.81-.31-1.2-.15-.38-.37-.74-.66-1.06-.12-.15-.21-.31-.27-.49-.06-.18-.1-.34-.13-.49-.12-.44-.37-.81-.75-1.11-.24-.18-.49-.34-.77-.49-.28-.15-.55-.29-.82-.44-.12-.06-.22-.12-.31-.2-.09-.07-.18-.15-.27-.24-.03,0-.04-.01-.04-.04v-.04c-.06-.12-.1-.19-.13-.22-.06,0-.09.03-.09.09-.03,0-.05.02-.07.04-.02.03-.04.04-.07.04h-.53c-.18,0-.34-.03-.49-.09-.83-.29-1.62-.16-2.39.4-.35.3-.56.61-.62.93-.06.33-.12.68-.18,1.06-.03.06-.04.12-.02.18.01.06,0,.12-.02.18-.03.03-.06.05-.09.07s-.06.05-.09.11c-.03.03-.05.04-.07.04-.02,0-.04.02-.07.04l.13.13c.09,0,.13.03.13.09.06.83.11,1.65.15,2.48.04.83.1,1.65.15,2.48.03.24.03.45,0,.64-.03.19-.06.41-.09.64-.06.33-.09.63-.09.93s.06.61.18.93c.12.27.12.52,0,.75-.24.33-.35.66-.35,1.02s.03.71.09,1.06c.09.5.15,1.02.18,1.55.03.53-.03,1.05-.18,1.55-.06.09-.07.19-.04.31.03.12.06.22.09.31.06.21.08.41.07.6-.02.19-.05.38-.11.55-.06.18-.1.35-.11.53-.02.18-.02.35-.02.53s.01.36.04.55c.03.19.01.38-.04.55-.09.38-.09.75,0,1.11.09.35.16.71.22,1.06.12.92.66,1.54,1.64,1.86.65.21,1.33.47,2.04.8.21.06.32.15.35.27.18.35.07.52-.31.49h-.93c-.35,0-.61.12-.75.35-.06.06-.13.09-.22.09-.24-.03-.46-.05-.66-.07-.21-.02-.43-.05-.66-.11-.53-.15-1.06-.2-1.59-.15-.53.04-1.06.11-1.59.2-.06.03-.1.03-.11,0-.02-.03-.05-.04-.11-.04l-.04-.04c-.27.21-.55.32-.86.33-.31.01-.61,0-.91-.07-.86-.15-1.68-.13-2.48.04-.53.12-1.02-.06-1.46-.53-.12-.15-.16-.3-.13-.46.03-.16.13-.27.31-.33.15-.06.28-.1.4-.11.12-.01.24-.05.35-.11.24-.06.48-.13.73-.22.25-.09.49-.18.73-.27.03,0,.05,0,.07-.02.01-.01.04-.02.07-.02.44-.06.77-.22.97-.49s.41-.56.62-.89c.15-.32.24-.66.27-1,.03-.34.04-.67.04-1v-.4Z"/>
    <path class="cls-1" d="M217.58,172.15c.06-.12.09-.21.09-.27-.06-.12-.12-.21-.18-.27,0,.06,0,.1-.02.13-.02.03-.02.07-.02.13-.03.06-.05.11-.07.15-.02.04-.04.08-.07.11-.09,0-.19-.03-.31-.09-.15-.18-.16-.37-.04-.58.15-.27.27-.55.35-.84.09-.29.19-.6.31-.93.12-.29.18-.58.18-.84s-.03-.55-.09-.84c-.09-.35-.12-.71-.09-1.06.03-.35.04-.72.04-1.11,0-.06.01-.1.04-.13.12-.21.18-.41.18-.62s-.02-.41-.04-.62c-.06-.24-.12-.46-.18-.66-.06-.21-.12-.43-.18-.66-.06-.24-.13-.45-.2-.64-.07-.19-.14-.41-.2-.64l-.27-.53c-.15-.32-.28-.65-.4-.97-.12-.32-.25-.65-.4-.97-.09-.21-.18-.4-.27-.58-.09-.18-.18-.35-.27-.53-.33-.62-.63-1.23-.93-1.84-.3-.6-.61-1.2-.93-1.79-.18-.44-.37-.81-.57-1.11-.12-.24-.24-.37-.35-.4-.24-.09-.42-.24-.55-.44-.13-.21-.27-.41-.42-.62-.27-.41-.52-.83-.77-1.26-.25-.43-.52-.85-.82-1.26-.5-.77-1.25-1.24-2.26-1.42-.09-.03-.18-.05-.29-.07-.1-.01-.2-.05-.29-.11-.44-.18-.9-.31-1.37-.4-.5-.09-.86-.3-1.06-.64-.21-.34-.24-.75-.09-1.22.09-.18.27-.35.53-.53.24-.21.49-.34.77-.4.28-.06.58-.01.91.13.12.06.25.08.4.07.15-.01.29,0,.44.02.24.03.46.06.66.09.21.03.43.06.66.09.24.03.47.05.71.07.24.02.47,0,.71-.07.32-.12.65-.18.97-.18s.65-.01.97-.04h2.39c.5-.06.94,0,1.33.18.38.18.78.37,1.2.58.15.06.37.12.66.18.68.27.77.65.27,1.15-.15.15-.3.27-.44.35-.15.09-.3.21-.44.35-.71.56-1.02,1.25-.93,2.08.06.44.18.85.35,1.22.18.37.34.75.49,1.13.12.24.25.45.4.64.15.19.31.38.49.55.38.35.62.78.71,1.28.06.41.17.8.33,1.17.16.37.36.73.6,1.08.12.15.24.29.35.42s.24.27.35.42v.04l-.04.04c-.06.03-.13.1-.22.22-.09.12-.1.21-.04.27,0,.06.06.09.18.09.09-.06.15-.07.2-.02s.1.1.15.15c0,.03.01.04.04.04h.04c.09-.03.17-.06.24-.09.07-.03.14-.06.2-.09h.04s0-.04-.02-.04-.02-.01-.02-.04c-.12-.06-.27-.15-.44-.27l-.09-.09h.09c.21.06.4.1.58.13.18.03.37.06.58.09.27,0,.49-.13.66-.4.29-.41.59-.83.89-1.26.29-.43.59-.85.89-1.26.21-.32.38-.64.53-.95.15-.31.32-.63.53-.95.06-.09.14-.16.24-.22.1-.06.2-.12.29-.18.24-.09.39-.22.46-.4s.14-.35.2-.53c.09-.24.18-.46.27-.69.09-.22.16-.45.22-.69.12-.44.17-.88.15-1.31-.02-.43-.18-.85-.51-1.26-.03-.03-.06-.05-.09-.07-.03-.01-.06-.04-.09-.07-.18-.15-.36-.3-.55-.46-.19-.16-.38-.33-.55-.51-.12-.09-.17-.21-.15-.35.01-.15.08-.28.2-.4.06-.09.13-.18.2-.29.07-.1.15-.18.24-.24.06-.12.13-.18.22-.18.5-.06,1-.11,1.48-.15.49-.04.98-.1,1.48-.16.35-.03.71-.05,1.06-.07.35-.01.69.02,1.02.11.41.12.83.18,1.24.18s.83.02,1.24.04c.09.03.18.05.29.07.1.02.2.04.29.07.12.03.23.06.33.09.1.03.21.06.33.09.15.03.32.12.51.27.19.15.3.31.33.49.06.24.07.44.04.62-.03.18-.16.34-.4.49-.27.21-.52.4-.77.58-.25.18-.52.34-.82.49-.21.12-.42.21-.64.27-.22.06-.45.13-.69.22-.15.06-.3.13-.46.2-.16.07-.32.15-.46.24-.41.33-.78.65-1.11.97-.24.24-.47.49-.71.75s-.44.53-.62.8c-.15.21-.3.38-.44.53-.15.15-.34.27-.58.35-.15.06-.27.14-.35.24-.09.1-.16.23-.22.38-.15.33-.3.64-.44.95s-.31.61-.49.91c-.21.35-.43.7-.66,1.04-.24.34-.47.67-.71,1-.12.21-.24.41-.35.6-.12.19-.24.38-.35.55-.09.15-.18.27-.27.35-.09.09-.18.19-.27.31-.09.12-.18.22-.27.31-.09.09-.18.19-.27.31-.03.03-.04.05-.04.07,0,.02-.02.04-.04.07-.44.44-.71,1.02-.8,1.73-.06.18-.09.31-.09.4-.15.53-.25,1.06-.31,1.57-.06.52-.07,1.06-.04,1.62,0,.18-.04.36-.11.55-.07.19-.11.39-.11.6,0,.18.02.36.07.55.04.19.08.38.11.55.03.09.04.21.04.35,0,.41,0,.83-.02,1.26-.02.43,0,.85.07,1.26,0,.21.04.41.13.62.09.21.19.4.31.58.24.38.52.7.86.95.34.25.76.39,1.26.42h.04c.29.12.58.12.84,0,.09-.06.16-.06.22,0,.29.15.59.28.89.4.29.12.56.3.8.53.15.18.21.37.18.58-.03.21-.15.37-.35.49-.56.32-1.2.37-1.9.13-.56-.15-1.12-.26-1.68-.33-.56-.07-1.12-.08-1.68-.02-.3.03-.58.04-.84.04h-.84s-.06,0-.09.02c-.03.01-.07.02-.13.02-.3.15-.58.21-.86.2-.28-.02-.57-.05-.86-.11-.12-.03-.24-.06-.35-.09-.12-.03-.24-.03-.35,0-.35.03-.72.01-1.08-.04-.37-.06-.73.01-1.08.22-.06.03-.14.04-.24.02-.1-.02-.21,0-.33.02-.3,0-.53-.13-.71-.4-.24-.53-.13-1,.31-1.42.24-.21.49-.41.75-.6.27-.19.52-.38.75-.55.09-.09.21-.1.35-.04.03,0,.04.03.04.09s.03.1.09.13c.24.12.43.18.58.18.09.03.16.02.22-.04.06-.06.01-.13-.13-.22-.03,0-.04-.04-.04-.13.06-.06.12-.09.18-.09l.09.04c.06-.03.1-.04.11-.04s.05-.01.11-.04v-.09c-.06,0-.12.03-.18.09-.06,0-.1.02-.13.04Z"/>
  </g>
  <g>
    <path class="cls-1" d="M17.84,8.75c-.33,0-.59.08-.8.25-.21.16-.43.35-.67.56-.15.15-.31.27-.47.36-.16.09-.32.21-.47.36-.15.15-.29.3-.42.45-.13.15-.27.3-.42.45-.15.24-.29.48-.42.71-.13.24-.27.48-.42.71-.06.09-.1.19-.11.29-.02.1-.04.2-.07.29-.03.12-.04.22-.04.31s-.03.19-.09.31c-.27.62-.45,1.26-.56,1.92-.1.65-.17,1.32-.2,2.01,0,.33,0,.67-.02,1.02s-.08.7-.2,1.02c-.03.15-.04.28-.04.4s-.02.25-.04.4v.67c0,.21-.04.43-.13.67-.15.33-.1.65.13.98.03.06.04.12.02.18-.02.06-.02.12-.02.18v1.34c0,.09.02.17.07.25.04.07.08.16.11.25.06.15.1.3.11.47.02.16.04.32.07.47.06.48.1.94.13,1.4.03.46.07.91.13,1.36,0,.06.03.12.09.18.06.18.11.36.16.53s.1.36.16.53l.13.53c.12.18.23.36.33.53s.23.36.38.53c.21.33.43.56.67.71.18.09.34.19.49.31.15.12.3.25.45.4.27.18.55.34.85.49.12.06.23.11.33.16.1.04.22.1.33.16.59.33,1.2.54,1.83.65.62.1,1.26.19,1.92.25.21.03.41.02.6-.04.19-.06.36-.19.51-.4.21-.24.49-.36.85-.36.5.06.94-.04,1.32-.29.37-.25.72-.54,1.05-.87.09-.09.19-.25.31-.49,0-.03.01-.06.04-.09.3-.12.48-.33.56-.62.07-.3.23-.53.47-.71.12-.09.21-.2.27-.33.06-.13.12-.26.18-.38.09-.21.17-.41.25-.6.07-.19.16-.38.25-.56.15-.27.23-.53.25-.8.01-.27.02-.53.02-.8-.06-.42.01-.76.22-1.02.06-.12.09-.24.09-.36s.02-.25.04-.4c.03-.15.15-.31.36-.49.21-.18.39-.25.53-.22.71.03,1.26.4,1.65,1.11.09.24.09.51,0,.8-.06.27-.13.53-.2.78-.07.25-.1.53-.07.82,0,.12-.02.24-.07.36-.04.12-.08.25-.11.4-.06.15-.12.37-.18.67-.03.06-.06.12-.09.18-.03.06-.08.12-.13.18-.06.12-.11.23-.16.33-.04.1-.1.22-.16.33-.03.06-.09.13-.18.22-.03.06-.05.1-.07.11-.02.02-.04.05-.07.11-.06.06-.11.13-.16.22-.04.09-.1.16-.16.22-.06.09-.12.19-.18.31-.06.12-.12.21-.18.27-.42.51-.87.99-1.36,1.45-.49.46-1.02.88-1.58,1.27-.06.06-.13.1-.22.11-.09.02-.18.05-.27.11-.12,0-.19.02-.22.04-.33.27-.68.36-1.07.27-.06,0-.13.02-.2.07-.07.04-.14.1-.2.16-.15.06-.28.12-.38.18-.1.06-.22.12-.33.18-.15.03-.31.05-.47.07-.16.02-.32.05-.47.11-.24.09-.48.14-.74.16-.25.01-.5,0-.74-.07-.33-.06-.66-.1-1-.11-.34-.01-.68-.02-1-.02-.12,0-.22,0-.31-.02-.09-.01-.19-.04-.31-.07-.15-.03-.31-.06-.49-.09-.18-.03-.34-.06-.49-.09-.24,0-.46-.01-.67-.04-.21-.03-.4-.12-.58-.27-.06-.06-.11-.09-.16-.09s-.1-.01-.16-.04c-.36-.09-.64-.19-.85-.31-.21-.09-.4-.19-.58-.31-.18-.12-.37-.25-.58-.4-.27-.15-.53-.31-.78-.49-.25-.18-.53-.36-.82-.53-.36-.21-.65-.47-.89-.78-.24-.31-.51-.6-.8-.87-.06-.06-.1-.11-.11-.16-.02-.04-.04-.1-.07-.16-.15-.33-.33-.59-.53-.8-.21-.21-.43-.43-.67-.67-.12-.12-.22-.25-.31-.38-.09-.13-.13-.3-.13-.51,0-.12-.02-.23-.07-.33-.04-.1-.1-.22-.16-.33-.21-.56-.42-1.12-.62-1.67-.21-.55-.43-1.09-.67-1.63-.03-.09-.04-.21-.04-.36v-.29c0-.1-.03-.19-.09-.24-.18-.36-.19-.7-.04-1.02.06-.09.05-.2-.02-.33-.07-.13-.11-.27-.11-.42-.03-.15-.05-.3-.07-.47-.02-.16-.02-.32-.02-.47-.03-.24-.04-.48-.04-.74v-.74c-.06-.27-.06-.53,0-.8.03-.24.05-.47.07-.69.01-.22.04-.45.07-.69.06-.18.1-.35.13-.51.03-.16.06-.32.09-.47.06-.5.13-1.02.2-1.54.07-.52.23-1.02.47-1.49.09-.24.21-.44.36-.6.15-.16.3-.33.45-.51.06-.09.13-.18.2-.27.07-.09.14-.18.2-.27.41-.83.8-1.65,1.16-2.45l.09-.09c.21-.15.42-.3.62-.47.21-.16.42-.32.62-.47.3-.27.53-.52.71-.76.12-.3.33-.42.62-.36.47.09.88-.07,1.2-.49.15-.15.3-.3.45-.45.15-.15.34-.21.58-.18.03,0,.07-.03.13-.09.15-.21.33-.35.53-.42.21-.07.43-.13.67-.16.59-.06,1.08-.24,1.47-.53.06-.06.15-.08.27-.07.12.02.24,0,.36-.02.06,0,.13.02.22.04.09.03.18.03.27,0,.24-.06.47-.07.71-.02.24.04.47.13.71.25.09.03.18.06.27.09.09.03.18.03.27,0,.24,0,.47.02.71.07s.47,0,.71-.16c.3-.15.55-.13.76.04.12.06.24.1.36.13.12.03.24.07.36.13.15.06.28.1.4.13.12.03.25.06.4.09.12,0,.22.03.31.09.09.06.19.12.31.18.21.09.42.19.62.31.21.12.43.21.67.27.36.15.68.16.98.02.3-.13.56-.32.8-.56.03-.03.04-.06.04-.09s.02-.06.04-.09c0-.09.01-.15.04-.18.24-.12.4-.22.49-.31.24-.18.5-.25.8-.22.47.06.85.22,1.14.47.28.25.5.54.65.87.15.33.22.67.22,1.02s-.04.68-.13.98v.18c.06.33.1.63.13.91.03.28,0,.59-.09.91-.03.06-.03.13,0,.22.03.09.04.16.04.22,0,.42,0,.83-.02,1.25-.02.42-.02.83-.02,1.25,0,.03,0,.05-.02.07-.02.02-.02.04-.02.07-.12.24-.22.48-.31.74-.09.25-.19.5-.31.74-.27.59-.71.77-1.34.53-.51-.21-.88-.5-1.11-.89-.24-.45-.47-.89-.69-1.34-.22-.45-.45-.89-.69-1.34-.15-.3-.32-.56-.51-.8-.19-.24-.42-.45-.69-.62v-.04c-.27-.42-.61-.73-1.03-.94-.42-.21-.82-.45-1.2-.71-.36-.3-.74-.5-1.14-.6-.4-.1-.82-.19-1.27-.25-.12,0-.27-.03-.45-.09-.15-.12-.3-.16-.45-.13-.15.03-.3.07-.45.13-.56.3-1.11.43-1.65.4.03-.03.04-.09.04-.18h-.22v.09s.06.04.09.04.06.02.09.04Z"/>
    <path class="cls-1" d="M70.29,21.31c.03-.09.04-.16.04-.22,0-.27,0-.54.02-.82.01-.28.02-.56.02-.82-.03-.36-.05-.71-.07-1.07-.02-.36-.1-.7-.25-1.02-.09-.21-.16-.42-.2-.62-.04-.21-.1-.42-.16-.62-.06-.24-.11-.47-.16-.69-.04-.22-.1-.45-.16-.69-.06-.24-.13-.45-.22-.65-.09-.19-.16-.41-.22-.65-.12-.62-.45-1.2-.98-1.74-.3-.33-.58-.7-.85-1.11-.15-.15-.27-.32-.36-.51-.09-.19-.21-.36-.36-.51-.21-.24-.42-.48-.65-.74s-.47-.45-.74-.6c-.56-.27-1.08-.6-1.54-1s-.94-.76-1.45-1.09c-.24-.15-.48-.26-.74-.33-.25-.07-.5-.19-.74-.33-.15-.09-.32-.15-.51-.18-.19-.03-.39-.07-.6-.13-.3-.06-.52-.09-.67-.09h-2.14v.04h-1.07c-.68-.09-1.38.1-2.09.58-.18.09-.36.17-.56.25s-.39.14-.6.2c-.18.06-.3.12-.36.18-.33.18-.61.37-.85.58-.42.33-.82.65-1.2.96-.39.31-.77.63-1.16.96-.47.45-.9.93-1.27,1.45-.37.52-.71,1.06-1,1.63-.06.06-.1.12-.13.18-.03.06-.06.12-.09.18-.27.45-.52.91-.76,1.38-.15.33-.3.66-.45,1-.15.34-.3.68-.45,1-.18.42-.34.86-.49,1.34-.06.24-.1.48-.11.71-.02.24-.04.48-.07.71-.03.12-.03.24,0,.36.06.24.11.45.16.65.04.19.04.41-.02.65-.06.15-.1.3-.13.45-.03.15-.07.3-.13.45,0,.09,0,.19-.02.29-.02.1,0,.2.02.29.06.36.12.71.18,1.05.06.34.12.69.18,1.05.03.15.04.31.04.47s.03.32.09.47c.06.3.13.59.2.87.07.28.17.57.29.87.18.45.36.88.56,1.31.19.43.39.87.6,1.31.06.06.1.13.11.22s.05.18.11.27c.09.3.19.53.31.71.12.15.22.31.31.47.09.16.21.29.36.38.5.36.88.73,1.11,1.11.06.12.13.22.22.31.09.09.18.18.27.27.18.21.36.42.53.62.18.21.36.43.53.67.12.12.23.25.33.38.1.13.23.25.38.33.3.21.59.41.87.6.28.19.59.39.91.6.09.06.25.12.49.18.18.03.36.05.53.07.18.02.34.04.49.07.36.09.7.19,1.03.29.33.1.67.19,1.03.25.41.06.84.08,1.27.07.43-.02.85,0,1.27.02.53,0,.98-.12,1.34-.36.33-.18.65-.35.96-.51.31-.16.65-.27,1-.33.74-.15,1.32-.49,1.74-1.03.03-.03.05-.04.07-.04.01,0,.04-.01.07-.04.21-.15.41-.3.62-.47.21-.16.42-.33.62-.51.47-.45.94-.91,1.38-1.38.15-.15.28-.31.4-.49.12-.18.25-.36.4-.53.12-.15.23-.31.33-.49.1-.18.22-.34.33-.49.09-.15.19-.27.31-.38.12-.1.21-.23.27-.38.18-.33.35-.65.51-.98.16-.33.32-.65.47-.98,0-.06,0-.1.02-.11.02-.01.02-.04.02-.07-.03-.42.04-.77.2-1.07.16-.3.35-.58.56-.85.33-.39.39-.83.18-1.34-.15-.42-.22-.82-.2-1.2.01-.39.07-.77.16-1.16.03-.09.06-.18.09-.27ZM64.68,22.6c-.06.15-.08.32-.07.51.01.19,0,.36-.02.51-.03.24-.07.47-.11.69s-.1.45-.16.69c0,.21.04.42.13.62v.25c0,.1.07.13.22.07l.09.04.04.04-.13.13c-.09.09-.15.16-.18.22-.06.33-.13.63-.22.91-.09.28-.16.59-.22.91-.06.15-.1.28-.11.4s-.04.24-.07.36c-.03.06-.06.1-.09.11s-.06.04-.09.07l-1.2,1.87c-.18.3-.35.59-.51.87-.16.28-.35.57-.56.87-.06.06-.13.1-.2.13-.08.03-.14.07-.2.13-.27.24-.58.41-.94.51-.36.1-.65.28-.89.51-.21.15-.39.22-.56.22s-.35.02-.56.04h-.09s.04.06.04.09c0,.09-.03.16-.09.22-.15.09-.31.15-.49.18-.03.03-.07.02-.11-.02s-.07-.08-.07-.11c-.09-.15-.19-.18-.31-.09-.09.09-.19.13-.31.13-.06.03-.16,0-.31-.09v-.18c.15-.09.25-.1.31-.04.15.15.27.18.36.09.09-.09.21-.13.36-.13h.04s-.06-.04-.09-.04h-.13c-.33.06-.63.04-.91-.04-.28-.09-.56-.21-.82-.36-.21-.12-.45-.18-.71-.18-.39-.06-.68-.18-.89-.36-.21-.18-.42-.35-.62-.51-.21-.16-.42-.32-.62-.47,0-.03-.02-.03-.04,0-.09.09-.1.15-.04.18.15.15.21.3.18.45-.03.15-.04.3-.04.45-.03.03-.04.07-.04.13-.03-.03-.05-.04-.07-.04-.02,0-.04-.01-.07-.04-.15-.03-.27-.1-.36-.22-.06-.06-.1-.14-.13-.25-.03-.1-.06-.2-.09-.29-.03-.03,0-.12.09-.27.03-.03.07-.04.13-.04.12.09.17.11.16.07-.02-.04,0-.11.07-.2.09-.18.1-.33.02-.47-.07-.13-.14-.26-.2-.38-.15-.21-.31-.4-.47-.58-.16-.18-.32-.37-.47-.58,0-.03-.03-.04-.09-.04-.03-.03-.07-.04-.13-.04l.09-.04v-.09s-.02-.06-.04-.09c-.3-.42-.45-.91-.45-1.47,0-.18-.04-.34-.13-.49-.06-.24-.13-.46-.22-.67-.09-.21-.18-.43-.27-.67-.06-.18-.11-.36-.16-.56s-.08-.38-.11-.56c-.03-.09-.02-.22.04-.4.03-.09.06-.19.09-.29.03-.1.04-.2.04-.29.03-.15.04-.31.02-.49-.02-.18-.02-.34-.02-.49,0-.33-.04-.65-.13-.98-.06-.24-.09-.48-.09-.74s-.02-.5-.04-.74c0-.06,0-.14.02-.25.01-.1-.05-.13-.2-.07-.06.06-.09.04-.09-.04l.09-.18c.03-.06.07-.1.11-.11.04-.01.07-.05.07-.11.06-.56.14-1.11.25-1.65.1-.53.13-1.08.07-1.65,0-.09.02-.17.04-.25.03-.07.06-.14.09-.2.09-.33.18-.65.27-.96.09-.31.18-.63.27-.96.12-.42.26-.82.42-1.2.16-.39.41-.74.74-1.07.06-.06.09-.12.09-.18.06-.36.2-.65.42-.89.22-.24.45-.47.69-.71.24-.24.47-.47.71-.71.24-.24.47-.47.71-.71.18-.21.37-.35.58-.42.21-.07.43-.13.67-.16.09,0,.17-.01.25-.04.07-.03.14-.06.2-.09.09-.03.19-.06.29-.09.1-.03.2-.04.29-.04.15-.03.29-.04.42-.02.13.02.27.02.42.02.18,0,.36,0,.56-.02.19-.01.38,0,.56.07.27.06.55.11.85.16s.56.14.8.29c.56.33,1.08.69,1.56,1.09.47.4.83.93,1.07,1.58.06.18.1.3.13.36.21.3.37.6.49.91s.25.63.4.96c.15.36.23.71.25,1.07s.05.7.11,1.02c.03.12.07.23.13.33.06.1.1.22.13.33.03.15.04.31.04.47v.47c0,.12,0,.23-.02.33-.02.1,0,.2.02.29.15.53.16,1.01.04,1.43-.03.06-.02.13.02.22.04.09.07.18.07.27.09.42.15.84.18,1.27.03.43-.04.85-.22,1.27Z"/>
    <path class="cls-1" d="M110.93,12.87v-.87c0-.47-.15-.83-.45-1.07-.12-.12-.18-.22-.18-.31.03-.18,0-.33-.11-.45-.1-.12-.19-.25-.25-.4-.09-.15-.17-.28-.25-.4-.07-.12-.14-.25-.2-.4-.06-.21-.16-.39-.29-.56-.13-.16-.28-.32-.42-.47-.33-.27-.63-.53-.91-.8-.28-.27-.57-.53-.87-.8-.03-.03-.05-.04-.07-.04s-.04-.01-.07-.04l-1.74-.67c-.18-.06-.3-.09-.36-.09-.39.06-.75.06-1.09,0-.34-.06-.69-.15-1.05-.27-.36-.09-.73-.13-1.11-.13-.51.06-1,.08-1.49.07-.49-.01-.99-.05-1.49-.11-.06,0-.11,0-.16-.02-.04-.01-.1-.02-.16-.02-.15-.06-.29-.1-.42-.13-.13-.03-.27-.03-.42,0-.24.03-.46.06-.67.09-.21.03-.42.04-.62.04-.71.03-1.43.03-2.14,0-.71-.03-1.41-.04-2.09-.04-.24,0-.47-.03-.69-.09-.22-.06-.45,0-.69.18-.03.03-.07.04-.11.02-.04-.01-.1-.02-.16-.02-.33-.06-.63-.1-.91-.13s-.59-.07-.91-.13l-1.6-.27c-.15,0-.34.03-.58.09h-.13c-.18,0-.36-.02-.56-.07s-.38-.05-.56-.02c-.24.06-.45.14-.65.25-.19.1-.41.19-.65.25-.33.15-.48.39-.45.71.06.15.06.3,0,.45-.12.33-.1.6.07.82.16.22.31.45.42.69h.09c.33.09.66.17,1,.25.34.07.68.16,1,.25.06,0,.1,0,.13.02.03.02.06.02.09.02.18.09.36.18.56.27.19.09.38.18.56.27.15.09.28.18.4.27.12.09.25.21.4.36.06.06.07.13.04.22-.03.09-.02.16.04.22.15.24.23.48.25.71.01.24,0,.47-.02.71-.06.33-.02.61.13.85.06.12.11.22.16.29.04.07.07.19.07.33,0,.09,0,.19.02.31.02.12.05.21.11.27.33.36.39.74.18,1.16-.15.39-.23.77-.25,1.14-.02.37,0,.75.07,1.14.03.12.07.23.11.33.04.1,0,.22-.11.33-.03.03-.04.07-.02.11.01.04.02.1.02.16.03.12.06.22.09.31.03.09.06.18.09.27.03.15.06.3.09.47.03.16.01.29-.04.38-.15.21-.21.39-.18.56.03.16.09.33.18.51.06.09.1.2.11.33.02.13,0,.25-.07.33-.21.36-.22.73-.04,1.11.12.21.12.45,0,.71-.06.09-.1.2-.11.33s0,.25.07.33c.15.3.22.65.22,1.07v3.52c0,.33-.04.63-.13.91-.09.28-.06.59.09.91v.13c-.03.15-.04.3-.04.47v.47c0,.06-.02.1-.04.13-.12.09-.18.2-.18.33v.42c-.03.24-.07.45-.13.62-.06.18-.22.31-.49.4-.09.03-.16.15-.22.36-.09.59-.39.95-.89,1.07-.18.06-.37.1-.58.11-.21.02-.42.04-.62.07-.09,0-.16.02-.22.04l-.67.53c-.06.06-.1.22-.11.49-.02.27,0,.43.07.49h.13c.12.06.24.1.36.11.12.02.22.05.31.11.21.09.41.16.6.22.19.06.41.06.65,0,.27-.06.5.02.71.22.12.12.33.19.65.22.31.03.53-.02.65-.13.3-.21.62-.31.98-.31.3,0,.59,0,.89.02.3.02.59.02.89.02.06,0,.1,0,.11-.02.01-.01.05-.02.11-.02l-.13-.13c-.03-.06-.06-.13-.09-.2-.03-.07-.06-.14-.09-.2.06-.03.13-.06.22-.09.09-.03.16-.03.22,0,.15.09.16.22.04.4-.06.06-.09.13-.09.22.06,0,.1,0,.11.02.02.02.05.02.11.02h5.48c.45,0,.83-.24,1.16-.71,0-.03,0-.05.02-.07s.02-.05.02-.11c-.03-.21-.16-.43-.38-.67-.22-.24-.44-.37-.65-.4-.51-.09-.99-.18-1.45-.27-.46-.09-.93-.16-1.4-.22-.03,0-.06.02-.09.04v.4c0,.06-.02.1-.04.11-.03.02-.04.04-.04.07-.06-.06-.09-.12-.09-.18,0-.18-.06-.21-.18-.09,0,.03-.02.04-.04.04-.03-.03-.04-.07-.04-.13.03-.06.06-.11.09-.16.03-.04.07-.1.13-.16v-.13c-.15-.27-.29-.54-.42-.82-.13-.28-.27-.57-.42-.87h-.13c-.12.09-.22.06-.31-.09-.03-.06-.07-.1-.13-.13-.06-.03-.12-.07-.18-.13-.03.06-.09.13-.18.22-.06.06-.12.1-.18.13-.06.03-.12.06-.18.09-.06-.12-.09-.21-.09-.27.06-.09.07-.13.02-.11-.04.02-.08,0-.11-.02-.09-.06-.19-.12-.29-.18s-.16-.12-.16-.18c.09-.3-.02-.49-.31-.58-.06,0-.09-.04-.09-.13.21-.24.4-.22.58.04.09.12.16.12.22,0,.06-.06.16-.09.31-.09.03,0,.04.02.04.04v.09c-.06.12-.05.2.02.25.07.04.14.1.2.16.06.06.1.11.13.16s.07.08.13.11c.06.09.16.15.31.18.03,0,.06.02.09.04.06.03.1.06.13.09.03.03.07.06.13.09,0-.06,0-.1.02-.11.01-.01.02-.05.02-.11.03-.5.05-1.02.07-1.56.01-.53.04-1.05.07-1.56,0-.09-.02-.13-.04-.13-.15-.12-.21-.23-.18-.33.03-.1.07-.22.13-.33.12-.15.15-.3.09-.45,0-.3,0-.58-.02-.85s-.04-.53-.07-.8c0-.3,0-.57.02-.82.01-.25.14-.5.38-.74.09-.09.16-.24.22-.45.03-.47.28-.73.76-.76.3-.03.59-.07.87-.11s.57-.14.87-.29c.18-.12.37-.13.58-.04.24.15.47.23.71.25.24.02.47.02.71.02.15,0,.31.02.47.04.16.03.32.06.47.09h.18c.21-.06.41-.12.6-.18.19-.06.39-.1.6-.13.3-.06.6-.1.91-.11.31-.01.6-.14.87-.38h.09c.24-.06.42-.12.53-.18.3-.18.61-.25.94-.22.8.21,1.44-.04,1.92-.76.06-.09.13-.16.22-.22.12-.06.24-.11.36-.16.12-.04.24-.1.36-.16.59-.36,1.03-.88,1.29-1.56.06-.09.13-.16.22-.22.09-.09.2-.16.33-.22.13-.06.23-.13.29-.22.33-.71.59-1.4.8-2.05.09-.3.16-.59.22-.87.06-.28.12-.57.18-.87.03-.09.06-.19.09-.29.03-.1.03-.19,0-.25-.12-.3-.18-.59-.18-.87ZM104.87,15.05c-.06.16-.12.33-.18.51-.03.06-.04.15-.04.27.03.18.03.34,0,.49-.03.15-.12.3-.27.45-.06.06-.1.13-.13.2-.03.07-.03.14,0,.2.03.3-.12.53-.45.71-.24.15-.34.31-.31.49,0,.15-.04.24-.13.27-.33.21-.64.42-.94.62-.3.21-.61.42-.94.62-.15.09-.31.1-.49.04-.48-.09-.91,0-1.29.27-.21.12-.42.21-.65.27s-.45.06-.69,0c-.33-.06-.65-.1-.96-.11-.31-.01-.63-.04-.96-.07-.42-.03-.85-.21-1.29-.56-.45-.34-.74-.72-.89-1.14v-.13c.06-.33.07-.65.04-.98-.03-.33-.06-.65-.09-.98-.03-.21-.04-.42-.02-.65.01-.22,0-.45-.02-.69,0-.09-.02-.19-.04-.29s-.06-.2-.09-.29l-.04-.09v-.04c.21-.39.3-.77.27-1.16-.03-.39-.04-.77-.04-1.16,0-.21-.02-.41-.04-.6-.03-.19-.04-.39-.04-.6.03-.74.4-1.35,1.11-1.83.12-.06.24-.13.36-.2.12-.07.24-.14.36-.2.12-.06.22-.09.31-.09.18.03.35.02.51-.04.16-.06.32-.12.47-.18.3-.09.65-.13,1.07-.13.15,0,.3,0,.45.02.15.02.3.02.45.02.06,0,.15-.03.27-.09.24-.12.51-.1.8.04.15.09.31.16.49.2.18.04.36.1.53.16h.04c.56.09,1.06.26,1.49.51.43.25.78.63,1.05,1.14.03.06.04.13.04.22l-.09.09c.06.12.12.24.18.36.06.12.15.22.27.31.15.15.27.31.38.49.1.18.16.39.16.62,0,.36.02.72.07,1.09.04.37.07.74.07,1.09,0,.18-.03.35-.09.51Z"/>
    <path class="cls-1" d="M151.48,13.07s-.03-.04,0-.04c-.06-.42-.09-.81-.09-1.18s-.16-.72-.49-1.05c-.06-.06-.09-.12-.09-.18s-.02-.12-.04-.18v-.18c-.24-.33-.45-.67-.65-1.03s-.39-.7-.6-1.03c-.03-.06-.06-.1-.09-.11s-.07-.05-.13-.11c-.15-.12-.29-.23-.42-.33-.13-.1-.27-.23-.42-.38-.36-.33-.72-.62-1.09-.89-.37-.27-.81-.43-1.32-.49-.03,0-.06-.01-.09-.04-.15-.18-.3-.28-.47-.31-.16-.03-.35-.03-.56,0h-.74c-.25,0-.5-.06-.74-.18-.3-.15-.59-.24-.87-.27-.28-.03-.59-.03-.91,0-.42.03-.81.07-1.18.11-.37.04-.75,0-1.14-.16-.24-.06-.42-.09-.53-.09-.45,0-.89,0-1.34.02-.45.02-.89.02-1.34.02-.98,0-1.96,0-2.94-.02-.98-.02-1.96-.02-2.94-.02-.56,0-1.19-.07-1.87-.22-.24-.06-.5-.09-.78-.09h-1.14c-.47-.09-.92-.1-1.34-.02-.42.07-.8.28-1.16.6-.18.18-.27.33-.27.45-.03.21-.05.41-.07.6-.02.19,0,.36.07.51.06.18.14.34.25.49.1.15.2.3.29.45,0-.03.03-.01.09.04l.94.27c.18.03.35.05.51.07.16.02.32.04.47.07.06.03.11.04.16.04s.1.02.16.04c.45.21.92.46,1.43.76.24.12.39.24.45.36.06.15.1.3.13.47.03.16.07.32.13.47v.04c.03.24.04.48.04.71s.01.48.04.71c0,.09.01.19.04.29.03.1.06.2.09.29.03.06.06.1.09.13.03.03.04.07.04.13,0,.27.07.55.22.85.09.15.15.31.18.49.03.18.01.34-.04.49-.18.42-.27.85-.27,1.29s.04.89.13,1.34v.18c0,.06,0,.13-.02.22-.02.09,0,.16.02.22.09.27.16.53.2.8.04.27,0,.55-.11.85-.12.36-.07.68.13.98.15.3.13.55-.04.76-.15.15-.18.34-.09.58.03.12.06.22.09.31.03.09.06.19.09.31,0,.06-.02.13-.04.2-.03.07-.06.14-.09.2,0,.09-.02.19-.07.29-.04.1-.04.2.02.29.15.36.22.68.22.98,0,.42.02.85.07,1.29.04.45.07.88.07,1.29,0,.3,0,.59-.02.89-.02.3-.05.58-.11.85-.18.51-.19,1.02-.04,1.56.09.45.03.83-.18,1.16-.15.3-.22.56-.22.8,0,.27-.12.46-.36.58-.18.12-.28.24-.31.36-.09.59-.42.98-.98,1.16-.18.06-.36.09-.53.09s-.37.02-.58.04c-.12,0-.19.02-.22.04l-.67.53c-.06.06-.11.21-.16.45s-.04.39.02.45c.06.06.1.09.13.09.15.06.28.11.4.16.12.04.25.1.4.16.18.09.36.16.53.22.18.06.37.06.58,0,.27-.03.53.03.8.18.24.15.46.2.67.16.21-.04.43-.07.67-.07.15,0,.3-.05.45-.16.15-.1.3-.19.45-.25.06-.03.1-.04.13-.02.03.02.07.02.13.02.06.03.1.06.11.09s.05.04.11.04h1.78c.59,0,1.19.02,1.78.04.03,0,.09-.04.18-.13.06,0,.1,0,.13-.02.03-.01.07-.02.13-.02.03,0,.05,0,.07.02.01.02,0,.02-.02.02-.06.12-.06.17,0,.16.06-.02.1-.02.13-.02.42,0,.83,0,1.25-.02.42-.02.83,0,1.25.02.53.03,1.03-.1,1.47-.4.36-.24.43-.52.22-.85-.06-.09-.11-.17-.16-.25-.04-.07-.1-.16-.16-.25-.15-.21-.4-.34-.76-.4-.27,0-.53,0-.78-.02-.25-.01-.5-.04-.74-.07-.39-.06-.74-.15-1.07-.27-.33-.12-.58-.39-.76-.8-.12-.27-.23-.54-.33-.82-.1-.28-.13-.59-.07-.91.06-.21.06-.42,0-.62-.06-.21-.09-.43-.09-.67-.03-.15-.03-.27,0-.38.03-.1.06-.23.09-.38,0-.12.03-.23.09-.33.06-.1.07-.19.04-.25-.09-.24-.13-.46-.11-.67.01-.21.04-.43.07-.67.03-.33.03-.67,0-1.02-.03-.36-.04-.7-.04-1.03v-.25c0-.1-.08-.14-.22-.11l-.04-.04c0-.12-.06-.15-.18-.09-.03.03-.08.04-.13.04v-.04c.06-.03.14-.07.25-.11.1-.04.17-.05.2-.02.09.09.13.12.13.09v-.13c.03-.06.04-.15.04-.27-.06,0-.1,0-.13-.02-.03-.01-.07-.02-.13-.02.03-.06.05-.1.07-.11.02-.01.04-.05.07-.11l.13.27c.06-.06.11-.12.16-.18.04-.06.08-.12.11-.18.15-.18.24-.34.27-.49.06-.45.31-.71.76-.8.24-.03.47-.06.71-.09.24-.03.47-.07.71-.13.42-.15.83-.18,1.25-.09.5.06,1.02.13,1.54.22.52.09,1.05.02,1.58-.22.12-.06.21-.09.27-.09.53.09,1.07-.01,1.6-.31.15-.06.3-.11.45-.16.15-.04.3-.1.45-.16.09-.03.19-.06.29-.09.1-.03.2-.04.29-.04.39.03.76.02,1.11-.04.36-.06.67-.25.94-.58.15-.15.3-.28.47-.4.16-.12.33-.24.51-.36.24-.12.41-.22.53-.31.45-.3.73-.71.85-1.25l.18-.18c.15-.12.3-.22.47-.31.16-.09.27-.24.33-.45.06-.18.15-.35.27-.51.12-.16.18-.35.18-.56,0-.06.02-.11.07-.16.04-.04.07-.1.07-.16.06-.12.1-.24.13-.36s.07-.25.13-.4v-.58c.06-.33.16-.65.29-.98.13-.33.11-.67-.07-1.03ZM145.49,14.83c.02.16-.05.32-.2.47-.06.06-.09.12-.09.18v.18c.06.51-.06.89-.36,1.16-.06.12-.09.22-.09.31,0,.18-.04.32-.11.42-.07.1-.17.2-.29.29-.15.06-.26.14-.33.25-.07.1-.08.25-.02.42,0,.03-.04.09-.13.18-.33.21-.64.41-.94.6-.3.19-.61.38-.94.56-.09.06-.2.09-.33.09s-.26-.02-.38-.04c-.39-.06-.7.02-.94.22-.3.24-.6.38-.91.42-.31.04-.63.04-.96-.02-.33-.06-.65-.1-.98-.13-.33-.03-.65-.07-.98-.13h-.04c-.3-.18-.59-.36-.87-.53s-.51-.42-.69-.71c-.12-.21-.18-.46-.18-.76.03-.33.03-.66,0-1-.03-.34-.06-.68-.09-1,0-.21.02-.42.04-.62.03-.21.02-.42-.04-.62-.06-.15-.08-.3-.07-.45.01-.15.04-.3.07-.45.06-.33.08-.67.07-1.03-.02-.36-.02-.7-.02-1.03,0-.24,0-.47-.02-.71-.02-.24,0-.47.02-.71.03-.15.08-.27.16-.38.07-.1.14-.22.2-.33.03-.06.07-.12.13-.18.39-.65.99-1.01,1.83-1.07.21,0,.36-.01.45-.04.53-.21,1.08-.34,1.63-.4.55-.06,1.11-.01,1.67.13.12.03.22.07.31.13.09.06.19.1.31.13.15.03.29.06.42.09.13.03.25.02.33-.04.09-.06.14-.08.16-.07.01.02.07.05.16.11.18.15.37.27.58.36.21.09.41.19.62.31.24.15.41.33.51.56.1.22.19.45.25.69.03.09.07.19.11.29.04.1.1.19.16.25.24.21.41.43.51.67.1.24.17.52.2.85,0,.27.01.54.04.82.03.28.07.56.13.82-.06.18-.08.35-.07.51Z"/>
    <path class="cls-1" d="M178.93,8.03c-.33-.06-.67-.1-1.03-.13-.36-.03-.7-.07-1.02-.13-.36-.03-.64.06-.85.27-.15.12-.29.22-.42.31-.13.09-.29.12-.47.09-.06-.03-.12-.01-.18.04-.06.06-.12.12-.18.18-.15.06-.27.13-.38.22-.1.09-.23.16-.38.22-.27.09-.42.25-.45.49-.12.42-.22.82-.31,1.23-.09.4-.19.81-.31,1.23-.03.12-.1.15-.22.09-.06-.06-.14-.1-.25-.13-.1-.03-.2-.06-.29-.09-.03-.03-.09,0-.18.09v.09s.01.04.04.04c.09.09.18.17.27.25.09.07.16.14.22.2.06.06.1.1.11.13.01.03.04.06.07.09l.09.53c.03.18.06.36.09.53v.4c0,.09-.02.19-.04.29-.03.1.03.19.18.25v.22c-.06.24-.07.48-.04.71.03.24.06.48.09.71.06.24.12.49.18.76.06.27.01.55-.13.85-.15.27-.16.51-.02.71.13.21.35.34.65.4.59.15,1.2.22,1.83.2.62-.01,1.23-.08,1.83-.2.09-.03.18-.09.27-.18.09-.09.16-.16.22-.22.12-.12.22-.24.31-.36.09-.12.18-.24.27-.36.15-.18.3-.36.47-.56.16-.19.32-.38.47-.56.18-.24.35-.46.51-.67.16-.21.33-.43.51-.67.03-.09.12-.16.27-.22.53-.3.89-.16,1.07.4.03.15.04.34.04.58v.04c.12.06.16.13.13.22-.03.09-.02.16.04.22.12.18.16.36.13.56-.03.19-.04.38-.04.56-.03.15-.04.3-.02.45.01.15.02.3.02.45-.03.15-.06.28-.09.38-.03.1-.04.23-.04.38.06.33.04.62-.07.89-.1.27-.16.56-.16.89v.76c0,.15.02.27.04.38.03.1-.02.22-.13.33-.03.03-.03.07,0,.11.03.04.03.08,0,.11,0,.12-.03.27-.09.45-.06.12-.09.19-.09.22,0,.3,0,.59.02.87.02.28.02.59.02.91,0,.12,0,.23-.02.33-.02.1-.04.23-.07.38-.06.42-.25.53-.58.36-.39-.18-.73-.42-1.03-.71-.06-.06-.09-.16-.09-.29s-.02-.24-.04-.33c0-.06,0-.1-.02-.11-.02-.01-.02-.04-.02-.07-.33-.53-.65-1.05-.98-1.56-.33-.5-.7-.98-1.11-1.43-.24-.18-.43-.3-.58-.36-.42-.15-.84-.27-1.27-.36-.43-.09-.87-.1-1.31-.04-.24.03-.45.07-.65.13-.19.06-.36.21-.51.45-.06.12-.09.21-.09.27-.06.15-.1.28-.11.38-.02.1-.05.23-.11.38l-.04.09c.06.15.07.28.02.4-.04.12-.05.25-.02.4.06.15.07.28.02.4-.04.12-.07.25-.07.4-.03.06-.04.13-.04.22-.06,1.75-.06,3.49,0,5.21,0,.18.02.37.07.58.04.21.14.39.29.53.06.06.08.13.07.2-.02.07,0,.14.02.2.03.03.04.05.04.07s.01.04.04.07c0,.03,0,.06.02.09.02.03.02.06.02.09v.13c.06.3.12.52.18.67.06.12.13.24.22.36.09.12.19.21.31.27.15.15.31.25.49.31.18.06.34.16.49.31.21.21.43.35.67.42.24.07.51.13.8.16.42.06.84.11,1.27.16.43.04.85.07,1.27.07.27,0,.53-.04.8-.11.27-.07.55-.1.85-.07.74,0,1.43-.22,2.05-.67.06-.06.15-.1.27-.13.12-.03.22-.04.31-.04.21,0,.39-.04.56-.11.16-.07.32-.16.47-.24.3-.24.59-.45.89-.62.3-.18.58-.39.85-.62.15-.12.25-.25.31-.4.06-.15.15-.28.27-.4.24-.24.43-.5.58-.8.15-.3.31-.61.49-.94.06-.09.13-.18.2-.27.07-.09.14-.18.2-.27,0-.03.01-.04.04-.04l.04-.04c.12.09.22.17.31.25.09.07.19.16.31.25v.04c.06-.09.18-.19.36-.31,0-.06-.04-.13-.13-.22-.09-.06-.19-.12-.29-.18-.1-.06-.2-.12-.29-.18-.18-.12-.22-.3-.13-.53.06-.15.11-.31.16-.49s.11-.34.2-.49c.3-.5.64-.95,1.03-1.34.15-.15.35-.17.6-.07.25.1.39.28.42.51.06.42.13.83.2,1.25.07.42.13.83.16,1.25.03.24.03.48,0,.74-.03.25-.06.5-.09.74,0,.03-.03.07-.09.13-.06.03-.11.04-.16.04s0,.03.16.09v.22c.15.39.19.77.11,1.14-.08.37-.14.75-.2,1.14-.03.15-.04.28-.04.4v.4c-.06.24-.09.42-.09.53-.09.09-.1.15-.04.18.06.18.04.33-.04.47-.09.13-.18.26-.27.38-.33.42-.7.71-1.11.89s-.88.28-1.38.31c-.59.06-1.17.08-1.74.07-.56-.02-1.14-.11-1.74-.29-.09-.03-.19-.02-.31.02-.12.04-.22.1-.31.16-.21.09-.41.14-.6.16-.19.01-.38-.05-.56-.2h-.18c-.53-.03-1.07-.05-1.6-.07-.53-.01-1.08-.05-1.65-.11-.42-.03-.82-.01-1.23.04-.4.06-.78.19-1.14.4-.12.12-.24.15-.36.09-.18-.18-.37-.26-.58-.25-.21.01-.43,0-.67-.02-.51,0-1.02,0-1.54-.02-.52-.02-1.03-.02-1.54-.02h-.4c-.21.06-.4.07-.58.02s-.36-.1-.53-.16c-.06-.06-.12-.06-.18,0-.53.18-1.08.18-1.65,0-.3-.06-.59-.12-.89-.18-.3-.06-.61-.03-.94.09-.59.24-1.13.18-1.6-.18-.06-.03-.11-.05-.16-.07-.04-.01-.1-.04-.16-.07-.24-.06-.39-.19-.47-.38-.07-.19-.04-.38.11-.56.12-.21.31-.39.58-.53.15-.12.31-.22.49-.31.18-.09.34-.18.49-.27.21-.15.4-.29.58-.42.18-.13.3-.33.36-.6.03-.06.06-.12.09-.18.03-.06.07-.12.13-.18.3-.39.39-.8.27-1.25-.06-.15-.08-.31-.04-.49.03-.18.07-.34.13-.49.12-.36.18-.77.18-1.25-.03-.42-.06-.83-.09-1.25-.03-.42-.06-.83-.09-1.25-.03-.15-.02-.3.02-.47.04-.16.07-.32.07-.47-.03-.33-.06-.66-.09-1-.03-.34-.04-.68-.04-1v-.74c0-.25.02-.5.04-.74v-.13c-.18-.39-.25-.77-.2-1.16.04-.39.1-.79.16-1.2,0-.15.02-.25.04-.31,0-.15.02-.27.04-.38.03-.1.15-.14.36-.11.03,0,.06-.03.09-.09.03-.06.07-.12.13-.18-.18-.12-.31-.18-.4-.18-.12,0-.18-.04-.18-.13s0-.18-.02-.27c-.02-.09-.02-.18-.02-.27,0-.06.02-.11.04-.16s.04-.1.04-.16c.03-.03.04-.1.04-.22-.18-.62-.25-1.25-.2-1.89.04-.64.1-1.28.16-1.94.06-.53.08-1.06.07-1.58-.02-.52-.07-1.05-.16-1.58-.06-.33-.18-.59-.36-.8-.18-.21-.45-.37-.8-.49-.15-.06-.29-.14-.42-.25-.13-.1-.28-.23-.42-.38-.3-.3-.62-.46-.98-.49-.06,0-.12-.03-.18-.09-.06-.06-.11-.11-.16-.16-.04-.04-.1-.1-.16-.16-.21-.18-.31-.39-.29-.62.01-.24.11-.45.29-.62.33-.27.66-.42,1-.45.34-.03.69-.03,1.05,0,.59.06,1.17.1,1.74.11.56.02,1.14-.04,1.74-.16.15-.03.3-.04.47-.02.16.02.32.02.47.02.06,0,.09.03.09.09,0,.09-.02.15-.04.18.06-.03.1-.04.13-.04s.07-.01.13-.04c.12-.06.24-.09.36-.09.39,0,.76,0,1.14.02.37.02.75.04,1.14.07h.18c.33-.12.63-.16.91-.11.28.04.59.1.91.16.36.06.73.1,1.11.11.39.02.77.02,1.16.02.65.03,1.29.02,1.92-.02.62-.04,1.26-.04,1.92.02.5.06,1.03.03,1.56-.09.53-.12,1.07-.21,1.6-.27.21,0,.36.02.45.04.27.15.53.21.8.18.27-.03.53-.06.8-.09,1.37-.12,2.35.43,2.94,1.65.06.12.07.24.04.36-.03.12-.04.25-.04.4-.03.51-.02,1,.04,1.47.06.48.16.97.31,1.47.06.06.06.12,0,.18v.62c-.03.15-.04.36-.04.62l-.04.04c.15.24.19.49.13.76-.06.27-.08.52-.04.76,0,.15,0,.28.02.4.01.12.04.25.07.4.09.45.06.83-.09,1.16-.09.21-.25.33-.49.36-.24.03-.43-.04-.58-.22-.33-.33-.62-.67-.89-1.02-.06-.06-.09-.14-.09-.25s-.03-.19-.09-.25c-.06-.15-.18-.34-.36-.58-.15-.09-.27-.19-.36-.31-.09-.12-.1-.27-.04-.45,0-.06-.03-.18-.09-.36-.24-.42-.47-.83-.71-1.25-.24-.42-.55-.79-.94-1.11-.15-.15-.27-.28-.38-.4-.1-.12-.23-.25-.38-.4-.18-.24-.42-.37-.71-.4-.15-.06-.29-.13-.42-.2-.13-.07-.28-.16-.42-.25-.45-.3-.89-.45-1.34-.45-.27,0-.46-.04-.58-.13-.33-.24-.66-.37-1-.4-.34-.03-.68-.04-1-.04h-.53v.09Z"/>
    <path class="cls-1" d="M231.16,30.71c-.06-.24-.1-.47-.11-.71-.02-.24-.11-.47-.29-.71-.45-.5-.89-.59-1.34-.27-.18.12-.31.18-.4.18-.3.03-.51.21-.62.53-.12.21-.26.34-.42.4-.16.06-.35.09-.56.09-.18,0-.32-.05-.42-.16-.1-.1-.2-.23-.29-.38-.06-.09-.1-.19-.11-.29-.02-.1-.05-.2-.11-.29-.06-.12-.11-.22-.16-.31-.04-.09-.1-.19-.16-.31-.06-.12-.11-.23-.16-.33-.04-.1-.1-.22-.16-.33-.03-.12-.04-.25-.04-.38s-.03-.26-.09-.38c-.15-.36-.31-.71-.47-1.05-.16-.34-.31-.71-.42-1.09-.15-.42-.33-.79-.53-1.11-.21-.33-.43-.65-.67-.98,0-.06-.02-.09-.07-.09s-.07-.03-.07-.09c-.06-.15-.1-.29-.13-.42-.03-.13-.08-.27-.13-.42-.21-.3-.27-.58-.18-.85.09-.27.3-.43.62-.49.42-.12.78-.3,1.09-.53.31-.24.62-.51.91-.8.21-.24.42-.45.62-.65s.43-.39.67-.6c.06-.06.09-.12.09-.18.12-.3.23-.58.33-.85.1-.27.21-.55.33-.85.09-.27.19-.53.31-.78.12-.25.19-.54.22-.87.03-.36.03-.71,0-1.07-.03-.09-.04-.19-.02-.29.02-.1.02-.2.02-.29,0-.06,0-.1-.02-.11-.02-.01-.02-.05-.02-.11-.03-.06-.05-.11-.07-.16-.02-.04-.04-.1-.07-.16,0-.21-.02-.34-.04-.4-.15-.36-.31-.71-.49-1.05s-.39-.68-.62-1c-.24-.3-.45-.61-.65-.94-.19-.33-.47-.59-.82-.8-.09-.06-.17-.13-.25-.2-.07-.07-.16-.13-.25-.16-.33-.09-.62-.27-.89-.53-.12-.18-.24-.28-.36-.31-.42-.12-.83-.22-1.25-.31s-.83-.18-1.25-.27c-.09-.03-.18-.04-.27-.04s-.18-.03-.27-.09c-.53-.21-1.07-.37-1.6-.49-.53-.12-1.1-.16-1.69-.13-.42.03-.85.05-1.29.07-.45.02-.89,0-1.34-.07-.39-.06-.76-.07-1.14-.04-.37.03-.74.07-1.09.13-.24.06-.47.1-.69.13s-.45-.03-.69-.18c-.15-.06-.3-.06-.45,0-.18.03-.36.06-.53.09-.18.03-.36.06-.53.09-.15.03-.3.05-.45.07-.15.02-.27,0-.36-.07-.33-.21-.64-.33-.94-.36-.3-.03-.61-.03-.94,0-.39.03-.76.06-1.11.09-.36.03-.71.06-1.07.09-.3,0-.53.07-.69.22-.16.15-.32.34-.47.58-.21.36-.15.71.18,1.07.09.12.18.22.27.31.09.09.19.19.31.31.15.21.33.33.53.38.21.04.43.07.67.07.03,0,.04-.01.04-.04.15-.06.27-.12.38-.18.1-.06.19-.16.25-.31.03-.06.16-.07.38-.02.22.04.35.1.38.16.03.09.02.16-.04.22,0,.03-.02.04-.04.02-.03-.01-.06,0-.09.02-.06,0-.13,0-.22-.02-.09-.01-.1.07-.04.25l-.04.04s-.04.02-.04.04c-.06-.06-.09-.1-.09-.13.03-.15.01-.22-.04-.22s-.13.02-.22.04c-.09.06-.18.09-.27.09s-.18.02-.27.04c.24.15.43.32.58.51.15.19.28.41.4.65.15.27.27.53.36.78.09.25.12.53.09.82,0,.27,0,.54.02.82.02.28.07.54.16.78.15.33.19.63.11.91-.07.28-.16.57-.25.87v1.11c0,.3.02.59.04.89,0,.12-.02.24-.07.36-.04.12,0,.21.16.27v.13c-.06.33-.03.59.09.8.06.15.07.25.04.31-.03.24-.05.47-.07.69s-.04.45-.07.69c-.03.15-.04.3-.04.45s.03.3.09.45c.06.09.07.19.04.31-.03.12-.06.24-.09.36,0,.06,0,.11-.02.16-.02.04-.02.1-.02.16.06.33.07.66.04,1-.03.34-.12.68-.27,1v1.6c0,.06,0,.1.02.13.01.03.02.06.02.09.03.12.06.23.09.33.03.1.04.2.04.29,0,.21,0,.42-.02.62-.02.21-.05.4-.11.58-.12.3-.16.58-.11.85.04.27.1.55.16.85.06.27.12.54.18.82.06.28.01.57-.13.87-.03.09-.04.19-.04.31s-.02.24-.04.36c0,.18-.02.3-.04.36-.18.24-.36.47-.53.69-.18.22-.37.42-.58.6-.24.24-.51.43-.8.58-.3.15-.58.31-.85.49-.18.15-.33.32-.45.51-.12.19-.18.41-.18.65v.18c.21.15.39.28.56.4.16.12.35.21.56.27.24.06.49.09.76.09s.52-.01.76-.04c.42-.03.82-.04,1.2-.04s.79.07,1.2.22c.12.06.24.07.36.04l.36-.09c.12-.03.22-.07.31-.11.09-.04.19-.07.31-.07.36.03.71.05,1.07.07.36.02.7.02,1.03.02.41.03.84.04,1.27.04h1.67c.12,0,.25-.01.4-.04.33-.06.59-.21.8-.45.21-.24.34-.49.4-.76.06-.56-.24-1.01-.89-1.34-.3-.15-.59-.29-.89-.42-.3-.13-.61-.27-.94-.42-.06-.03-.12-.07-.18-.13-.48-.62-.76-1.28-.85-1.96-.03-.33-.04-.64-.02-.94s-.05-.61-.2-.94c-.15-.24-.19-.5-.11-.78.07-.28.14-.54.2-.78.03-.27,0-.56-.09-.89,0-.03,0-.04-.02-.04s-.02-.01-.02-.04c0-.06,0-.1.02-.13.02-.03.02-.07.02-.13.03-.56.03-1.13,0-1.69,0-.42.1-.71.31-.89.09-.09.16-.18.22-.27.06-.09.12-.19.18-.31.09-.15.21-.29.36-.42.15-.13.31-.22.49-.25.5-.06,1.01-.06,1.52,0,.24.06.48.12.73.18.25.06.5.12.74.18,1.46.27,2.35,1.08,2.67,2.45l.13.13c.06.12.11.23.16.33.04.1.08.22.11.33.06.15.08.31.07.47-.02.16,0,.32.07.47.12.27.16.52.13.76-.03.12-.03.24,0,.36,0,.12.01.23.04.33.03.1.04.22.04.33-.03.42-.04.82-.04,1.2s.09.77.27,1.16c.06.12.07.24.04.36-.03.12-.04.24-.04.36.03.06.04.11.04.16s.01.1.04.16c.15.36.31.7.49,1.02.18.33.34.67.49,1.02.15.39.42.7.8.94.12.06.22.13.31.22.09.09.18.18.27.27.06.06.09.1.09.13-.03.27.1.46.4.58.15.09.3.16.45.2.15.04.31.1.49.16.33.06.67.11,1.03.16.36.04.7.1,1.03.16.39.09.71.03.98-.18.18-.15.36-.28.53-.4.18-.12.37-.21.58-.27.59-.21,1.03-.53,1.29-.96.27-.43.45-.94.53-1.54,0-.06.03-.15.09-.27.18-.42.33-.82.45-1.23.12-.4.12-.82,0-1.27ZM222.07,15.25s-.04.02-.04.04c-.06.15-.09.31-.09.47s-.04.31-.13.42c-.18.24-.3.51-.36.8-.06.3-.16.56-.31.8-.12.18-.26.33-.42.47-.16.13-.32.26-.47.38-.15.09-.31.16-.49.22-.18.06-.34.12-.49.18-.39.09-.7.04-.94-.13h-.22c-.27.15-.53.25-.8.29-.27.04-.55.05-.85.02-.36-.03-.71-.06-1.05-.09-.34-.03-.69-.07-1.05-.13-.09,0-.17-.01-.25-.04-.07-.03-.16-.07-.25-.13-.06-.03-.13-.07-.2-.11-.07-.04-.14-.08-.2-.11-.42-.12-.68-.32-.78-.6-.1-.28-.17-.59-.2-.91-.03-.15-.04-.3-.04-.47s-.02-.32-.04-.47c.03-.12.04-.3.04-.53,0-.15,0-.31.02-.49.01-.18,0-.34-.07-.49-.15-.3-.12-.58.09-.85,0-.03,0-.06-.02-.09-.02-.03-.02-.07-.02-.13,0-.15,0-.3-.02-.47-.02-.16.04-.32.16-.47.06-.06.07-.13.04-.22-.03-.09-.04-.16-.04-.22-.03,0-.06.02-.09.04-.06,0-.1.02-.13.04-.03.03-.07.04-.13.04-.09,0-.19-.03-.31-.09.06-.06.1-.12.13-.18.03-.06.07-.12.13-.18h.13c.18.09.27.09.27,0v-.27c0-.21,0-.41-.02-.6s0-.39.07-.6c.06-.15.09-.31.09-.49s.07-.34.22-.49c.21-.21.39-.33.53-.36.15-.06.28-.13.4-.2.12-.07.24-.14.36-.2.15-.06.27-.14.38-.25.1-.1.21-.19.33-.25s.24-.09.36-.09h.4l1.34.13c.21.03.41.04.6.02.19-.01.39,0,.6.07.12.03.22.08.31.16.09.07.19.14.31.2s.19.09.22.09c.12.03.24.04.36.04s.24.02.36.04c.09.03.18.07.27.13.09.06.19.03.31-.09.03,0,.07.02.11.04.04.03.1.06.16.09-.03.03-.06.05-.09.07s-.06.04-.09.07h-.09s.01.06.04.09c.15.15.28.28.4.38.12.1.25.23.4.38l.13.13c.15.42.31.84.49,1.27.18.43.34.85.49,1.27.03.09.04.19.02.31-.02.12-.02.24-.02.36,0,.06.01.1.04.13.12.33.16.64.13.94-.03.3-.18.58-.45.85Z"/>
  </g>
  <g>
    <path class="cls-1" d="M95.44,87.34c0-.1-.03-.19-.09-.25-.18-.33-.24-.71-.18-1.16.06-.27.06-.56,0-.89-.06-.18-.12-.36-.18-.53-.06-.18-.12-.36-.18-.53l-.04-.04c-.12-.15-.23-.3-.33-.47-.1-.16-.22-.33-.33-.51-.15-.15-.27-.31-.36-.49-.09-.18-.15-.37-.18-.58-.03-.21-.12-.39-.27-.53-.06-.06-.09-.15-.09-.27s-.03-.21-.09-.27c-.09-.15-.19-.27-.31-.38-.12-.1-.24-.22-.36-.33-.06-.06-.13-.13-.22-.22-.09-.09-.13-.16-.13-.22-.03-.24-.1-.42-.22-.53-.12-.12-.25-.24-.4-.36l-.2-.2c-.07-.07-.13-.16-.16-.25-.12-.24-.27-.39-.45-.47-.18-.07-.4-.14-.67-.2-.51-.06-.98-.19-1.43-.4-.45-.21-.89-.43-1.34-.67-.33-.15-.65-.3-.96-.47-.31-.16-.66-.25-1.05-.25-.06,0-.09.02-.09.04-.03.03-.04.06-.04.09v.04c-.09.06-.16.06-.22,0-.03-.03-.04-.09-.04-.18.12-.15.09-.22-.09-.22-.39,0-.7-.12-.94-.36-.03-.03-.07-.04-.13-.04h-.36c-.06,0-.1,0-.13.02-.03.02-.06.02-.09.02-.06-.03-.12-.1-.18-.22-.06-.15-.1-.22-.13-.22-.03-.03-.07-.05-.11-.07-.04-.01-.08-.05-.11-.11-.18-.15-.34-.23-.49-.25-.15-.01-.34.02-.58.11-.09.06-.19.08-.29.07-.1-.01-.22-.02-.33-.02h-.13c-.18.15-.36.23-.56.25-.19.02-.41.02-.65.02-.06,0-.13.03-.2.09-.08.06-.14.12-.2.18-.03.03-.05.07-.07.11-.02.04-.04.07-.07.07-.09,0-.18-.04-.27-.13-.09-.06-.09-.13,0-.22.15-.15.2-.25.16-.29-.04-.04-.14-.08-.29-.11-.03,0-.06,0-.09-.02s-.07-.02-.13-.02c-.24-.03-.48-.06-.74-.09-.25-.03-.48,0-.69.09-.27.12-.53.18-.78.18s-.51-.01-.78-.04c-.27,0-.54-.02-.82-.07-.28-.04-.56-.04-.82.02-.48.09-.92.09-1.34,0-.42-.06-.84-.09-1.27-.09s-.85-.01-1.27-.04c-.24,0-.48-.05-.71-.16-.24-.1-.48-.07-.71.11h-1.65c-.27.03-.54.04-.82.04s-.56.02-.82.04c-.42.06-.73.25-.94.58-.06.06-.1.14-.13.25-.03.1-.07.19-.13.25-.15.18-.21.36-.18.53.03.18.1.34.22.49.12.18.27.33.45.45.24.18.48.35.73.51.25.16.5.33.74.51.59.39.91.89.94,1.52,0,.09.03.13.09.13.15.06.23.13.25.22.02.09.04.21.07.36.03.27.06.53.09.8.03.27.07.53.13.8,0,.06.01.13.04.2.03.07.04.14.04.2,0,.21,0,.41-.02.6-.02.19-.02.39-.02.6.03.51,0,1-.07,1.49s-.07.99.02,1.49c.06.42.07.85.04,1.29-.03.45-.06.88-.09,1.29-.03.59-.05,1.17-.07,1.74-.02.56-.05,1.13-.11,1.69,0,.18.07.25.22.22.09,0,.15.02.18.04-.03.03-.05.06-.07.09-.02.03-.04.06-.07.09-.15.03-.22.15-.22.36.03.77.05,1.52.07,2.25.02.73.04,1.46.07,2.21h-.04c0,.27,0,.53.02.8s0,.52-.02.76c-.03.36-.05.71-.07,1.07-.02.36-.1.7-.25,1.02-.06.15-.1.29-.13.42s-.06.28-.09.42c-.09.09-.15.13-.18.13-.12.03-.33.07-.62.13-.03.03-.07.07-.11.11-.04.04-.05.07-.02.07.06.09.06.16,0,.2-.06.04-.1.1-.13.16,0,.12.01.19.04.22.21.15.21.28,0,.4-.12.06-.19.12-.22.18-.09.06-.17.14-.25.25-.07.1-.16.19-.25.25-.12.06-.25.06-.4,0-.06,0-.09-.03-.09-.09-.06-.03-.04-.09.04-.18l.67-.53c.12-.12.15-.22.09-.31-.06-.12-.16-.18-.31-.18-.21,0-.37.03-.49.09-.15.06-.31.12-.47.18-.16.06-.31.15-.42.27-.36.39-.45.83-.29,1.34.16.51.5.83,1,.98.33.06.63.1.91.13.28.03.59.01.91-.04.39-.09.78-.12,1.18-.09.4.03.79-.03,1.18-.18.06-.03.13-.04.2-.02.07.01.14.02.2.02.47-.03.94,0,1.38.07.45.07.91.04,1.38-.11.27-.09.56-.11.87-.07.31.04.62.07.91.07.15,0,.29,0,.42-.02.13-.01.27-.04.42-.07.15,0,.31-.01.49-.04.18-.03.34-.03.49,0,.36.06.71.13,1.05.2.34.07.69.14,1.05.2.09,0,.19-.03.31-.09.12-.06.21-.09.27-.09.15-.03.3-.03.47,0,.16.03.32.01.47-.04.24-.12.47-.17.69-.16.22.02.44,0,.65-.07.27-.09.52-.13.76-.13.15-.03.3-.04.45-.04s.3-.01.45-.04c.36-.09.71-.22,1.07-.4.51-.27,1.03-.46,1.56-.58.53-.12,1.07-.25,1.6-.4.09-.03.19-.07.31-.13.3-.21.59-.4.87-.58.28-.18.57-.37.87-.58.18-.12.36-.21.56-.27.19-.06.36-.19.51-.4.21-.33.45-.61.71-.85.27-.24.53-.47.8-.71.42-.33.81-.68,1.18-1.05.37-.37.68-.81.91-1.32.12-.18.22-.31.31-.4.06-.09.1-.17.13-.25.03-.07.02-.17-.04-.29,0-.03.01-.06.04-.09.03-.03.04-.07.04-.13.15-.24.3-.47.45-.69s.25-.48.31-.78c.03-.06.06-.12.09-.18.03-.06.07-.12.13-.18.09-.09.16-.21.22-.36.03-.12.05-.25.07-.38.01-.13.05-.25.11-.33.18-.24.3-.49.36-.76.06-.27.09-.53.09-.8.03-.09.04-.21.04-.36-.12.06-.22.12-.31.18h-.13s.04-.06.04-.09c.03-.09.06-.19.09-.29.03-.1-.02-.2-.13-.29-.03,0-.04-.03-.02-.09s.04-.12.07-.18c.06,0,.1.02.13.04.06.03.13.09.22.18.03-.09.04-.19.04-.31-.06-.59-.08-1.2-.07-1.8.01-.61.08-1.21.2-1.8v-.25ZM89.83,88.48c-.06.53-.08,1.08-.07,1.63.01.55,0,1.09-.07,1.63,0,.24-.02.47-.07.69s-.1.45-.16.69c-.03.15-.08.34-.13.58l-.13.4c-.06.15-.12.31-.18.47-.06.16-.12.32-.18.47-.06.12-.09.19-.09.22-.06.18-.11.36-.16.53-.04.18-.1.37-.16.58-.03.06-.06.12-.09.18-.03.06-.06.13-.09.22l-.27.67c-.03.06-.04.12-.04.18s-.02.12-.04.18c-.24.59-.56,1.12-.96,1.58s-.84.9-1.31,1.31c-.15.15-.29.28-.42.4-.13.12-.27.25-.42.4-.24.24-.48.45-.74.62-.25.18-.54.31-.87.4-.15.06-.3.14-.45.25-.15.1-.3.22-.45.33-.27.24-.54.44-.82.6-.28.16-.62.26-1,.29-.3,0-.59.03-.87.09-.28.06-.59.12-.91.18-.21-.06-.41-.12-.6-.18-.19-.06-.39-.12-.6-.18-.09-.03-.18-.04-.27-.02-.09.02-.19.02-.31.02-.3.06-.52.09-.67.09-.15-.03-.31-.05-.49-.07-.18-.01-.36-.04-.53-.07-.24-.06-.43-.12-.58-.18-.21-.15-.41-.31-.6-.49-.19-.18-.39-.36-.6-.53-.09-.09-.17-.19-.25-.31-.07-.12-.14-.25-.2-.4-.06-.06-.1-.13-.13-.22-.03-.09-.08-.16-.13-.22-.03-.09-.04-.24-.04-.45-.03-.18-.04-.37-.04-.58s-.03-.4-.09-.58c-.15-.42-.24-.81-.27-1.18-.03-.37.01-.76.13-1.18.03-.09.04-.19.02-.29-.02-.1-.04-.2-.07-.29,0-.15,0-.28-.02-.4-.02-.12-.04-.25-.07-.4,0-.47,0-.94-.02-1.4-.02-.46-.02-.93-.02-1.4,0-.24.03-.47.09-.69.06-.22.1-.45.13-.69.03-.12.04-.23.02-.33-.02-.1-.02-.22-.02-.33-.03-.03-.04-.07-.04-.13.12-.42.16-.82.11-1.23-.04-.4-.08-.81-.11-1.23,0-.27.02-.53.04-.78.03-.25.1-.5.22-.74.18-.33.21-.61.09-.85-.15-.21-.19-.4-.13-.58.06-.18.09-.36.09-.53,0-.03,0-.05.02-.07.01-.01.02-.04.02-.07.06-.21.07-.4.02-.58-.04-.18-.02-.37.07-.58.06-.18.08-.38.07-.6s-.04-.45-.07-.69c-.06-.21-.11-.41-.16-.6-.04-.19-.1-.39-.16-.6-.03-.15-.04-.37-.04-.67v-.04c.24-.06.37-.17.4-.33.03-.16.07-.32.13-.47.03-.06.04-.13.04-.22s.01-.16.04-.22c0-.06.03-.15.09-.27.12-.15.24-.29.36-.42.12-.13.25-.26.4-.38.06-.06.14-.1.25-.13.1-.03.2-.06.29-.09.12-.06.24-.12.36-.18.12-.06.24-.12.36-.18.06,0,.12-.03.18-.09.21-.06.4-.11.58-.16.18-.04.36-.1.53-.16h.04c.33.06.62.03.87-.09.25-.12.5-.22.74-.31.41-.15.74-.04.98.31.12.15.3.25.53.31s.45.06.62,0c.03,0,.04-.02.04-.04-.03,0-.04,0-.04-.02s-.02-.02-.04-.02c-.15-.03-.23-.08-.25-.16-.02-.07-.02-.14-.02-.2.06-.18.1-.36.13-.53.03-.18.16-.3.4-.36l.04-.09c.06-.06.12-.12.18-.18s.12-.09.18-.09.11.02.16.07c.04.04.1.08.16.11.09.09.19.16.31.22.3.27.58.28.85.04.03,0,.1.05.2.16.1.1.2.19.29.25-.03,0-.04.02-.04.04l-.09.09-.27.27c-.06,0-.1,0-.11.02-.02.02-.05.02-.11.02v-.18c0-.12-.04-.18-.13-.18-.15,0-.28.02-.4.04-.12.03-.25.04-.4.04h-.27c-.06-.06-.1-.1-.11-.13-.02-.03-.05-.07-.11-.13.03-.03.06-.05.09-.07.03-.01.07-.05.13-.11.06,0,.1-.01.13-.04l.09-.09h-.13c-.06.03-.13.04-.22.04-.09.03-.18.04-.27.02-.09-.01-.15.05-.18.2-.06.18-.05.31.02.4.07.09.17.18.29.27.03,0,.05,0,.07-.02.02-.01.04-.02.07-.02.06-.03.1-.06.11-.09.01-.03.04-.04.07-.04.09,0,.22.03.4.09-.03.06-.06.1-.09.13s-.06.07-.09.13c-.12.24-.28.31-.49.22v.04c0,.06.03.09.09.09h.53c.06,0,.12,0,.18-.02.06-.01.12,0,.18.02.15.03.31.07.49.11.18.04.34.08.49.11.15.06.31.1.47.13.16.03.32.07.47.13.45.15.83.33,1.16.53.15.06.27.14.38.25.1.1.23.2.38.29.62.39,1.13.89,1.51,1.52.15.24.36.46.62.67.27.18.48.4.65.67.16.27.27.56.33.89.03.06.04.1.04.13,0,.03.02.06.04.09.15.15.23.3.25.45.02.15.04.3.07.45.09.45.19.83.31,1.16.15.51.26,1,.33,1.49s.08,1,.02,1.54Z"/>
    <path class="cls-1" d="M134.43,90.62c.03-.09.04-.16.04-.22,0-.27,0-.54.02-.82.01-.28.02-.56.02-.82-.03-.36-.05-.71-.07-1.07-.02-.36-.1-.7-.25-1.02-.09-.21-.16-.42-.2-.62-.04-.21-.1-.42-.16-.62-.06-.24-.11-.47-.16-.69-.04-.22-.1-.45-.16-.69-.06-.24-.13-.45-.22-.65-.09-.19-.16-.41-.22-.65-.12-.62-.45-1.2-.98-1.74-.3-.33-.58-.7-.85-1.11-.15-.15-.27-.32-.36-.51-.09-.19-.21-.36-.36-.51-.21-.24-.42-.48-.65-.74s-.47-.45-.74-.6c-.56-.27-1.08-.6-1.54-1s-.94-.76-1.45-1.09c-.24-.15-.48-.26-.74-.33-.25-.07-.5-.19-.74-.33-.15-.09-.32-.15-.51-.18-.19-.03-.39-.07-.6-.13-.3-.06-.52-.09-.67-.09h-2.14v.04h-1.07c-.68-.09-1.38.1-2.09.58-.18.09-.36.17-.56.25s-.39.14-.6.2c-.18.06-.3.12-.36.18-.33.18-.61.37-.85.58-.42.33-.82.65-1.2.96-.39.31-.77.63-1.16.96-.47.45-.9.93-1.27,1.45-.37.52-.71,1.06-1,1.63-.06.06-.1.12-.13.18-.03.06-.06.12-.09.18-.27.45-.52.91-.76,1.38-.15.33-.3.66-.45,1-.15.34-.3.68-.45,1-.18.42-.34.86-.49,1.34-.06.24-.1.48-.11.71-.02.24-.04.48-.07.71-.03.12-.03.24,0,.36.06.24.11.45.16.65.04.19.04.41-.02.65-.06.15-.1.3-.13.45-.03.15-.07.3-.13.45,0,.09,0,.19-.02.29-.02.1,0,.2.02.29.06.36.12.71.18,1.05.06.34.12.69.18,1.05.03.15.04.31.04.47s.03.32.09.47c.06.3.13.59.2.87.07.28.17.57.29.87.18.45.36.88.56,1.31.19.43.39.87.6,1.31.06.06.1.13.11.22s.05.18.11.27c.09.3.19.53.31.71.12.15.22.31.31.47.09.16.21.29.36.38.5.36.88.73,1.11,1.11.06.12.13.22.22.31.09.09.18.18.27.27.18.21.36.42.53.62.18.21.36.43.53.67.12.12.23.25.33.38.1.13.23.25.38.33.3.21.59.41.87.6.28.19.59.39.91.6.09.06.25.12.49.18.18.03.36.05.53.07.18.02.34.04.49.07.36.09.7.19,1.03.29.33.1.67.19,1.03.25.41.06.84.08,1.27.07.43-.02.85,0,1.27.02.53,0,.98-.12,1.34-.36.33-.18.65-.35.96-.51.31-.16.65-.27,1-.33.74-.15,1.32-.49,1.74-1.03.03-.03.05-.04.07-.04.01,0,.04-.01.07-.04.21-.15.41-.3.62-.47.21-.16.42-.33.62-.51.47-.45.94-.91,1.38-1.38.15-.15.28-.31.4-.49.12-.18.25-.36.4-.53.12-.15.23-.31.33-.49.1-.18.22-.34.33-.49.09-.15.19-.27.31-.38.12-.1.21-.23.27-.38.18-.33.35-.65.51-.98.16-.33.32-.65.47-.98,0-.06,0-.1.02-.11.02-.01.02-.04.02-.07-.03-.42.04-.77.2-1.07.16-.3.35-.58.56-.85.33-.39.39-.83.18-1.34-.15-.42-.22-.82-.2-1.2.01-.39.07-.77.16-1.16.03-.09.06-.18.09-.27ZM128.82,91.91c-.06.15-.08.32-.07.51.01.19,0,.36-.02.51-.03.24-.07.47-.11.69s-.1.45-.16.69c0,.21.04.42.13.62v.25c0,.1.07.13.22.07l.09.04.04.04-.13.13c-.09.09-.15.16-.18.22-.06.33-.13.63-.22.91-.09.28-.16.59-.22.91-.06.15-.1.28-.11.4s-.04.24-.07.36c-.03.06-.06.1-.09.11s-.06.04-.09.07l-1.2,1.87c-.18.3-.35.59-.51.87-.16.28-.35.57-.56.87-.06.06-.13.1-.2.13-.08.03-.14.07-.2.13-.27.24-.58.41-.94.51-.36.1-.65.28-.89.51-.21.15-.39.22-.56.22s-.35.02-.56.04h-.09s.04.06.04.09c0,.09-.03.16-.09.22-.15.09-.31.15-.49.18-.03.03-.07.02-.11-.02s-.07-.08-.07-.11c-.09-.15-.19-.18-.31-.09-.09.09-.19.13-.31.13-.06.03-.16,0-.31-.09v-.18c.15-.09.25-.1.31-.04.15.15.27.18.36.09.09-.09.21-.13.36-.13h.04s-.06-.04-.09-.04h-.13c-.33.06-.63.04-.91-.04-.28-.09-.56-.21-.82-.36-.21-.12-.45-.18-.71-.18-.39-.06-.68-.18-.89-.36-.21-.18-.42-.35-.62-.51-.21-.16-.42-.32-.62-.47,0-.03-.02-.03-.04,0-.09.09-.1.15-.04.18.15.15.21.3.18.45-.03.15-.04.3-.04.45-.03.03-.04.07-.04.13-.03-.03-.05-.04-.07-.04-.02,0-.04-.01-.07-.04-.15-.03-.27-.1-.36-.22-.06-.06-.1-.14-.13-.25-.03-.1-.06-.2-.09-.29-.03-.03,0-.12.09-.27.03-.03.07-.04.13-.04.12.09.17.11.16.07-.02-.04,0-.11.07-.2.09-.18.1-.33.02-.47-.07-.13-.14-.26-.2-.38-.15-.21-.31-.4-.47-.58-.16-.18-.32-.37-.47-.58,0-.03-.03-.04-.09-.04-.03-.03-.07-.04-.13-.04l.09-.04v-.09s-.02-.06-.04-.09c-.3-.42-.45-.91-.45-1.47,0-.18-.04-.34-.13-.49-.06-.24-.13-.46-.22-.67-.09-.21-.18-.43-.27-.67-.06-.18-.11-.36-.16-.56s-.08-.38-.11-.56c-.03-.09-.02-.22.04-.4.03-.09.06-.19.09-.29.03-.1.04-.2.04-.29.03-.15.04-.31.02-.49-.02-.18-.02-.34-.02-.49,0-.33-.04-.65-.13-.98-.06-.24-.09-.48-.09-.74s-.02-.5-.04-.74c0-.06,0-.14.02-.25.01-.1-.05-.13-.2-.07-.06.06-.09.04-.09-.04l.09-.18c.03-.06.07-.1.11-.11.04-.01.07-.05.07-.11.06-.56.14-1.11.25-1.65.1-.53.13-1.08.07-1.65,0-.09.02-.17.04-.25.03-.07.06-.14.09-.2.09-.33.18-.65.27-.96.09-.31.18-.63.27-.96.12-.42.26-.82.42-1.2.16-.39.41-.74.74-1.07.06-.06.09-.12.09-.18.06-.36.2-.65.42-.89.22-.24.45-.47.69-.71.24-.24.47-.47.71-.71.24-.24.47-.47.71-.71.18-.21.37-.35.58-.42.21-.07.43-.13.67-.16.09,0,.17-.01.25-.04.07-.03.14-.06.2-.09.09-.03.19-.06.29-.09.1-.03.2-.04.29-.04.15-.03.29-.04.42-.02.13.02.27.02.42.02.18,0,.36,0,.56-.02.19-.01.38,0,.56.07.27.06.55.11.85.16s.56.14.8.29c.56.33,1.08.69,1.56,1.09.47.4.83.93,1.07,1.58.06.18.1.3.13.36.21.3.37.6.49.91s.25.63.4.96c.15.36.23.71.25,1.07s.05.7.11,1.02c.03.12.07.23.13.33.06.1.1.22.13.33.03.15.04.31.04.47v.47c0,.12,0,.23-.02.33-.02.1,0,.2.02.29.15.53.16,1.01.04,1.43-.03.06-.02.13.02.22.04.09.07.18.07.27.09.42.15.84.18,1.27.03.43-.04.85-.22,1.27Z"/>
    <path class="cls-1" d="M152.35,95.25c.06.18.09.3.09.36-.06.74.07,1.37.4,1.87.12.18.21.36.29.56.07.19.16.38.25.56.06.15.11.3.16.47.04.16.11.32.2.47.27.42.53.83.78,1.25.25.42.54.82.87,1.2.24.27.51.5.8.69.3.19.59.39.89.6.12.12.24.22.36.31.12.09.25.16.4.22.15.06.31.08.49.07.18-.01.34-.02.49-.02.06,0,.13,0,.22-.02.09-.01.16,0,.22.07.18.06.34.12.49.18.15.06.34.07.58.04.21-.06.42-.07.62-.02s.42.08.62.11c.3.06.58.04.85-.04.27-.09.53-.16.8-.22.39-.12.71-.3.98-.53.27-.24.53-.49.8-.76.12-.12.27-.22.45-.31.36-.24.58-.55.67-.94.03-.09.07-.17.13-.25.06-.07.12-.16.18-.25.03-.03.04-.07.04-.13s0-.1-.02-.13c-.02-.03-.02-.07-.02-.13.03-.09.06-.18.09-.27.03-.09.06-.18.09-.27.03-.15.06-.28.09-.4.03-.12.06-.25.09-.4v-.29c0-.1-.02-.2-.04-.29-.03-.09-.06-.17-.09-.25-.03-.07-.04-.14-.04-.2.03-.36,0-.71-.07-1.05-.07-.34-.14-.68-.2-1-.06-.27-.17-.47-.33-.62-.16-.15-.35-.3-.56-.45-.12-.12-.27-.22-.45-.31-.09-.06-.19-.11-.29-.16-.1-.04-.22-.08-.33-.11-.27-.06-.5-.22-.69-.49-.19-.27-.23-.53-.11-.8.06-.09.15-.17.27-.25.12-.07.24-.14.36-.2.18-.06.36-.12.56-.18.19-.06.39-.1.6-.13.21-.03.45,0,.71.09.21.09.42.13.62.13s.4-.03.58-.09c.45-.15.85-.16,1.2-.04.74.21,1.56.19,2.45-.04.18-.06.36-.08.56-.07.19.02.39.04.6.07.24.03.45.06.65.09.19.03.41.07.65.13.39.06.62.28.71.67.06.33-.09.59-.45.8-.18.09-.36.19-.56.29-.19.1-.39.2-.6.29-.06.06-.12.1-.18.13-.06.03-.12.07-.18.13-.15.21-.3.41-.45.6-.15.19-.3.41-.45.65-.15.24-.22.48-.2.74.02.25,0,.5-.02.74v1.25c0,.42-.03.83-.09,1.25-.03.42-.07.84-.11,1.27-.04.43-.1.85-.16,1.27-.03.21-.06.41-.09.6-.03.19-.06.38-.09.56-.06.27-.2.47-.42.6-.22.13-.45.16-.69.07-.18-.06-.36-.13-.56-.22-.19-.09-.38-.16-.56-.22-.53-.18-1.04-.18-1.52,0-.42.15-.82.3-1.2.45-.39.15-.79.3-1.2.45-.33.12-.65.24-.98.36-.33.12-.65.24-.98.36-.18.06-.35.13-.51.22-.16.09-.35.06-.56-.09-.06-.06-.13-.06-.22,0-.45.15-.9.22-1.36.22s-.93-.03-1.4-.09c-.59-.06-1.1-.27-1.52-.62-.09-.06-.19-.13-.29-.2-.1-.07-.22-.11-.33-.11-.3-.06-.56-.16-.78-.29s-.45-.27-.69-.42c-.15-.06-.28-.11-.4-.16-.12-.04-.25-.1-.4-.16-.18-.09-.36-.18-.53-.27-.18-.09-.34-.19-.49-.31-.3-.27-.59-.54-.89-.82-.3-.28-.58-.59-.85-.91-.15-.18-.28-.37-.4-.58-.12-.21-.25-.42-.4-.62-.18-.27-.35-.53-.51-.8s-.33-.53-.51-.8c-.03-.06-.06-.1-.09-.13-.03-.03-.06-.07-.09-.13-.12-.3-.24-.59-.36-.87-.12-.28-.24-.57-.36-.87-.06-.15-.1-.32-.13-.51-.03-.19-.08-.38-.13-.56-.09-.33-.18-.65-.27-.96-.09-.31-.18-.63-.27-.96-.24-.95-.36-1.86-.36-2.72.03-.47.04-.94.04-1.38s.01-.91.04-1.38c0-.3.06-.55.18-.76.21-.5.31-1.05.31-1.65.03-.53.13-1.04.29-1.52.16-.47.35-.95.56-1.43.15-.33.32-.62.51-.87.19-.25.39-.5.6-.74.12-.15.22-.3.29-.47.07-.16.17-.32.29-.47.09-.15.19-.29.29-.42.1-.13.21-.26.33-.38.27-.27.53-.53.78-.78.25-.25.51-.5.78-.74.06-.06.13-.11.22-.16s.16-.07.22-.07c.18-.06.33-.13.45-.22.12-.09.25-.21.4-.36.12-.09.24-.17.36-.25.12-.07.24-.16.36-.25.15-.12.3-.22.45-.31.15-.09.28-.19.4-.31.18-.18.38-.3.6-.38.22-.07.45-.14.69-.2.36-.09.71-.16,1.07-.2.36-.04.7-.11,1.03-.2.21-.06.4-.12.58-.18.18-.06.37-.12.58-.18.15-.06.3-.06.45,0,.45.18.92.16,1.43-.04.39-.12.68-.09.89.09.03.03.09.04.18.04.53.06,1.06.19,1.58.4.52.21,1.03.4,1.54.58.36.15.71.2,1.05.16.34-.04.68-.22,1-.51.12-.12.3-.21.53-.27.18-.06.36-.12.53-.18.18-.06.36-.1.53-.13.24-.03.46-.03.67,0,.21.03.4.12.58.27.39.33.58.71.58,1.16s0,.9-.02,1.36c-.02.46-.02.91-.02,1.36v2.32c0,.77.01,1.54.04,2.32,0,.21-.04.39-.13.56-.09.16-.18.33-.27.51-.12.3-.34.49-.67.58-.21.06-.34.06-.4,0-.12-.12-.22-.25-.31-.38-.09-.13-.18-.27-.27-.42-.06-.09-.1-.19-.13-.31-.03-.12-.08-.22-.13-.31-.18-.36-.34-.72-.49-1.09-.15-.37-.33-.72-.53-1.05-.36-.56-.73-1.11-1.11-1.65-.39-.53-.82-1.04-1.29-1.51-.09-.09-.18-.16-.27-.22-.09-.06-.19-.12-.31-.18-.15-.12-.31-.22-.47-.31-.16-.09-.32-.18-.47-.27-.09-.06-.19-.1-.29-.13-.1-.03-.2-.06-.29-.09l-1.47-.4c-.09,0-.15-.01-.18-.04-.18-.09-.37-.16-.58-.2-.21-.04-.42-.08-.62-.11h-.53c-.15,0-.28,0-.4.02-.12.02-.25.02-.4.02-.18,0-.3.02-.36.04-.27.12-.53.23-.8.33-.27.1-.55.22-.85.33-.12.06-.24.11-.36.16s-.24.1-.36.16c-.62.33-1.07.77-1.34,1.34-.18.39-.39.75-.62,1.09-.24.34-.48.69-.71,1.05v.04c-.12.3-.23.59-.33.87-.1.28-.2.57-.29.87-.06.12-.15.33-.27.62-.21.36-.34.73-.4,1.11-.06.39-.09.79-.09,1.2,0,.18-.02.36-.07.53s-.08.36-.11.53c-.03.06-.04.15-.04.27v1.11c0,.36-.02.73-.04,1.11,0,.24-.02.48-.07.71-.04.24-.08.48-.11.71-.03.24-.04.47-.04.69s-.02.45-.04.69c0,.33,0,.63.02.91.01.28.02.57.02.87,0,.39-.15.64-.45.76-.03,0-.04.02-.04.07s.01.08.04.11c.03.06.06.12.09.18.03.06.07.12.13.18.06-.06.1-.1.13-.11s.07-.05.13-.11c.06,0,.09-.03.09-.09Z"/>
  </g>
</svg>