<?xml version="1.0" encoding="UTF-8"?>
<svg id="Layer_1" data-name="Layer 1" xmlns="http://www.w3.org/2000/svg" viewBox="0 0 285.94 154.81">
  <defs>
    <style>
      .cls-1 {
        fill: #983c23;
      }
    </style>
  </defs>
  <g>
    <path class="cls-1" d="M281.2,20.57c-.43-1.22-.68-2.5-1.21-3.7-.07-.15-.05-.35-.06-.48-.24-.19-.43-.34-.52-.41-.13-.32.18-.54-.16-.76-.12.05-.34.08-.43.19-.35.46-.79.9-.95,1.43-.17.56-.46.89-.96,1.07-.47.16-.73.51-.82.94-.21.99-.79,1.88-.74,2.93,0,.13-.1.27-.14.41-.29,1.01-.74,1.96-1.13,2.94-.42,1.07-.82,2.17-1.06,3.29-.14.64-.27,1.25-.6,1.83-.83,1.48-1.26,3.15-2.19,4.58-.04.06-.05.14-.06.21-.03.35-.21.6-.46.83-.18.17-.32.39-.45.6-.37.58-.73,1.16-1.11,1.74-.41.64-.86,1.26-1.23,1.92-.23.42-.5.78-.83,1.13-.59.63-1.18,1.28-1.69,1.98-.43.59-.88,1.15-1.41,1.65-1.33,1.28-2.8,2.4-4.21,3.6-1.64,1.39-3.49,2.46-5.22,3.71-.91.66-1.93,1.15-2.75,1.93-.1.1-.23.18-.36.24-.63.28-1.24.59-1.74,1.08-.1.09-.25.16-.39.17-.39.03-.67.26-.96.47-.44.32-.9.58-1.4.8-.79.34-1.55.76-2.41.96-.14.03-.28.11-.38.2-.76.64-1.73.87-2.58,1.33-.79.43-1.62.8-2.44,1.19-.32.16-.65.3-.95.45-.33-.14-.63-.27-.92-.4-.38,1.34-1.15,2.6-1.95,3.71-.34.47-.71.93-1.09,1.38.8.52,1.59,1.05,2.37,1.6,1.39.99,2.67,2.11,3.7,3.49.35.47.72.94,1.08,1.41,1.51-1.2,3.09-2.26,5.07-2.56.07-.01.14-.01.21-.02-.03-.04-.06-.07-.09-.11-.11-.12-.18-.29-.3-.47.2-.14.32-.27.48-.34.52-.25,1.06-.46,1.58-.71,1.01-.49,2.02-.97,3-1.5,1.33-.73,2.63-1.52,3.95-2.28,1.85-1.07,3.63-2.22,5.27-3.62,1.79-1.52,3.62-3,5.28-4.68.2-.2.43-.39.67-.55.79-.53,1.53-1.08,1.8-2.07.05-.19.22-.36.36-.51.09-.1.24-.25.34-.23.47.1.55-.17.55-.53,0-.31.12-.61.42-.71.62-.2.91-.68,1.17-1.21.13-.27.41-.48.33-.86-.02-.08.23-.21.35-.32-.34-.39.17-.45.26-.67.47-.01.65-.39.88-.7.42-.58.93-1.11,1.18-1.81.05-.13.15-.26.26-.34.25-.17.42-.37.46-.69.02-.17.14-.33.23-.48,1.03-1.74,2.12-3.46,2.58-5.47.11-.49.37-.9.73-1.3.55-.62.91-1.39,1-2.23.05-.43.15-.75.54-.99.17-.1.29-.33.36-.52.21-.6.19-1.28.75-1.73.05-.04.05-.13.06-.2.09-.53.19-1.07.25-1.6.1-.94.22-1.87.55-2.75.06-.17.1-.35.1-.53.01-1.56.24-3.1.39-4.64.06-.58-.01-1.12-.21-1.69ZM272.58,40.64c-.24.44-.51.86-.75,1.3-.15.28-.27.59-.4.88-.04.1-.05.25-.12.29-.75.51-1.04,1.37-1.59,2.02-.53.64-.99,1.34-1.49,2-.24.32-.52.6-.77.91-.37.44-.75.88-1.12,1.32-1.25,1.5-2.41,3.07-3.95,4.3-1.07.86-2.08,1.8-3.13,2.68-.8.67-1.62,1.32-2.58,1.78-.51.25-.93.68-1.4,1.02-.35.26-.69.52-1.06.75-1.02.62-2.06,1.22-3.08,1.83-.25.15-.5.3-.72.49-.98.88-2.13,1.47-3.33,1.98-.3.12-.6.29-.82.52-.57.58-1.28.93-2.01,1.26-.3.14-.59.28-.93.44-1.06-.7-1.99-1.59-3-2.55.21-.07.33-.14.45-.15.87-.02,1.73-.05,2.58-.25.57-.13,1.11-.3,1.63-.56.58-.28,1.19-.52,1.77-.8,1.04-.5,2.08-1.02,3.1-1.55.61-.31,1.2-.66,1.8-1,.6-.34,1.18-.7,1.78-1.04.31-.18.61-.39.94-.53,1.19-.48,2.23-1.19,3.19-2.03.35-.31.74-.57,1.11-.87,1.32-1.07,2.65-2.13,3.94-3.23,1.02-.87,2.02-1.75,2.97-2.7.59-.59,1.17-1.17,1.85-1.64.14-.1.24-.26.35-.4.22-.29.39-.62.64-.87.56-.56.89-1.22.9-2.09.85-.23,1.17-.85,1.49-1.45.5-.95,1.14-1.81,1.72-2.71.32.23.15.45.05.64ZM277.29,21.35c-.54.2-.6.84-.89,1.34-.1-.13-.14-.16-.14-.19,0-.14-.02-.29.04-.41.51-1.1.49-2.37,1.21-3.42-.07.87-.14,1.74-.22,2.68Z"/>
    <path class="cls-1" d="M227.97,125.45s-.08.09-.11.14c-.05-.15.03-.15.11-.14Z"/>
    <path class="cls-1" d="M76,124.92c.02.08.03.16.05.23.03,0,.06-.01.09-.02-.06-.06-.11-.12-.17-.19-.05-.03-.1-.06-.16-.09,0,0-.03.03-.04.04.08,0,.16.01.23.02Z"/>
    <path class="cls-1" d="M71.58,134.54c.1,0,.2.02.29,0,.05-.01.07-.09.11-.14-.07-.04-.15-.13-.21-.12-.13.03-.24.11-.17.28-.08.01-.17.02-.25.03.03.04.05.08.08.12.05-.06.1-.12.15-.18Z"/>
    <path class="cls-1" d="M137.83,121.47c.05-.08.1-.15.15-.23,0,0-.06-.07-.07-.06-.08.04-.16.09-.25.14.04.04.09.08.17.16Z"/>
    <path class="cls-1" d="M279.43,23.82s-.05,0-.07,0v.45s.05,0,.07,0v-.45Z"/>
    <path class="cls-1" d="M224.76,121.92c.06-.03.12-.05.17-.08-.05-.04-.1-.11-.14-.11-.07,0-.14.06-.2.09.06.03.11.06.17.09Z"/>
    <path class="cls-1" d="M85.27,132.55c-.03-.06-.05-.12-.08-.18-.03.05-.09.11-.09.16,0,.06.04.12.07.18.03-.05.07-.11.1-.16Z"/>
    <path class="cls-1" d="M208.01,111.05c.06-.03.12-.06.18-.08-.05-.04-.1-.12-.14-.11-.08.01-.14.07-.22.11.06.03.12.06.18.09Z"/>
    <path class="cls-1" d="M219.51,139.28s.13-.06.14-.11c.02-.05-.02-.13-.03-.19-.07.05-.14.1-.19.16-.01.01.05.09.08.14Z"/>
    <path class="cls-1" d="M224.12,130.5s-.05.02-.08.03c.03.01.07.03.1.04,0-.02-.01-.04-.02-.07Z"/>
    <path class="cls-1" d="M161.85,58.52s-.05-.02-.08-.02c0,0-.02.04-.02.06.03,0,.05.02.08.02.01,0,.02-.04.02-.06Z"/>
    <path class="cls-1" d="M145.77,121.29c-.15.21-.33.25-.65.04.3,0,.49-.01.68-.02,0,0-.03-.03-.03-.03Z"/>
    <path class="cls-1" d="M160.17,112.28c.06.1.12.19.19.29,0,0,.03-.03.03-.03-.15,0-.3,0-.55,0,.16-.13.24-.2.33-.28v.02Z"/>
    <path class="cls-1" d="M161.72,111.78c.26-.03.51-.05.77-.08l-.02-.03c-.2.39-.49.09-.74.09h0Z"/>
    <path class="cls-1" d="M164.15,111.39c-.14,0-.28.02-.44.03.16-.2.3-.07.45-.02,0,0-.01,0-.01,0Z"/>
    <path class="cls-1" d="M160.17,112.26s.09.03.13.04c-.02-.01-.04-.04-.06-.04-.03,0-.05.01-.08.02,0,0,0-.02,0-.02Z"/>
    <path class="cls-1" d="M162.49,111.71c.03-.05.05-.14.09-.15.08-.02.17,0,.25.02,0,0,.01.07,0,.07-.06.03-.12.06-.18.07-.06,0-.13-.02-.19-.03,0,0,.02.03.02.03Z"/>
    <path class="cls-1" d="M161.72,111.78c.02.15.04.3.06.44,0,0,.02-.03.02-.03-.24-.09.02-.29-.08-.41,0,0,0,0,0,0Z"/>
  </g>
  <g>
    <g>
      <path class="cls-1" d="M46.99,36.48c.03-.54.34-.9.66-1.28.39-.46.8-.92.78-1.6,0-.16.13-.34.23-.49.47-.67,1.22-1.11,1.5-1.93.02-.06.12-.09.17-.14.9-.87,1.8-1.74,2.32-2.92.1-.22.33-.44.55-.53.46-.18.71-.54.99-.9.46-.59.55-1.42,1.23-1.87.03-.02.04-.07.05-.1.34-.92.63-1.85,1.02-2.74.44-1.01.66-2.11,1.33-3.01.12-.17.16-.42.19-.64.14-1.05.26-2.11.38-3.16.07-.61.16-1.2.43-1.76.1-.21.06-.52.01-.77-.21-1.04-.45-2.08-.67-3.12-.14-.66.06-1.01.69-1.2.36-.11.72-.17,1.05-.25.66.64,1.33,1.67,1.77,2.68.31.71.49,1.44.41,2.22-.05.54.02,1.05.16,1.58.28,1.11.5,2.26.28,3.38-.33,1.63-.56,3.29-1.12,4.88-.42,1.18-.71,2.42-1.38,3.49-.52.84-.98,1.71-1.44,2.58-.9,1.72-2.11,3.24-2.96,4.99-.05.1-.13.18-.2.28-.54.82-1.15,1.61-1.44,2.58-.05.18-.16.35-.28.49-.39.44-.58.96-.78,1.5-.09.25-.19.5-.32.73-.77,1.45-1.14,3.04-1.67,4.58-.16.46-.27.94-.4,1.42-.09.33-.21.65-.28.98-.21,1.08-.42,2.15-.59,3.24-.15.9-.29,1.8-.35,2.7-.06.95,0,1.9-.02,2.85-.02,1.19.07,2.35.64,3.43.14.26.22.57.29.86.31,1.47,1.1,2.55,2.49,3.15.73.32,1.49.55,2.28.68,1.76.28,3.48.02,5.2-.29.07-.01.16-.02.22-.05.96-.46,2.03-.56,3.03-.9.66-.22,1.27-.47,1.84-.87.71-.5,1.43-1,2.19-1.44.46-.27.91-.54,1.28-.94.36-.4.77-.74,1.28-.94.14-.06.29-.13.39-.23,1.07-1.01,2.28-1.85,3.29-2.95,1.11-1.22,2.01-2.57,2.93-3.92.28-.4.57-.8.88-1.18.19-.24.43-.44.62-.67,1.21-1.52,2.43-3.02,3.4-4.71.61-1.05,1.29-2.06,1.85-3.13.65-1.23,1.42-2.41,1.47-3.9.04-1.1.36-2.17.3-3.28-.02-.43-.11-.8-.38-1.16-.35-.48-.74-.99-.9-1.55-.47-1.69-1.35-3.22-1.93-4.86-.07-.21-.2-.41-.33-.59-.78-1.04-1.42-2.15-1.69-3.44-.05-.22-.17-.42-.27-.62-.18-.38-.35-.76-.53-1.13-.98-2.06-1.96-4.12-2.95-6.17-.2-.41-.47-.78-.74-1.14-.41-.56-.75-1.14-.96-1.8-.35-1.08-.73-2.16-1.06-3.24-.11-.36-.13-.74-.17-1.12,0-.04.1-.09.15-.14.15.15.18.46.52.35.01-.1.06-.22.04-.31-.27-.91-.89-1.58-1.59-2.17-.14-.11-.34-.17-.52-.2-.65-.11-1.24-.36-1.77-.74-.18-.13-.39-.28-.6-.32-.56-.09-.95-.45-1.39-.75-.41-.28-.81-.57-1.19-.89-.52-.44-1.12-.63-1.78-.68-1.1-.09-2.18-.36-3.29-.29-.19.01-.38-.05-.57-.06-.64-.06-1.28-.12-1.93-.16-.8-.04-1.61.04-2.38-.08-.75-.12-1.49-.24-2.25-.21-.15,0-.31,0-.45-.05-1.27-.4-2.53-.26-3.79.08-.4.11-.81.17-1.22.28-1.1.28-2.21.56-3.3.87-1.13.32-2.25.69-3.37,1.04-.25.08-.54.07-.77.18-1.13.53-2.3.99-3.34,1.71-.25.17-.51.36-.79.46-.77.27-1.41.74-2.03,1.24-.36.3-.75.52-1.21.61-.19.04-.37.09-.55.16-.74.29-1.33.72-1.47,1.58-.04.22-.13.45-.26.62-.48.64-.94,1.3-1.5,1.86-1.02,1.02-2.11,1.98-3.17,2.96-.65.6-1.36,1.09-2.17,1.45-.38.17-.72.42-1.09.61-.64.33-1.26.73-1.94.94-.65.2-1.34.26-1.8.86-.08.11-.26.15-.4.2-1.12.45-2.28.8-3.35,1.39-.76.42-1.58.74-2.36,1.13-.78.39-1.54.8-2.3,1.23-.99.56-2.02,1.02-2.94,1.7-.51.38-1.12.65-1.77.76-.26.05-.54.09-.76.22-.65.37-1.29.77-1.97,1.19.72.23,1.44.36,2.02.83.12.1.35.07.53.1.18.03.36.05.64.09-.28.48,0,.69.32.84.23.11.49.18.66.25.51,1.05.28,2.09.34,3.11,0,.18-.07.38-.17.53-.46.74-1.02,1.4-1.52,2.1-.53.75-1.33,1.24-2.2,1.58-.28.11-.57.22-.83.36-.26.14-.33.43-.18.69.33.57.79,1,1.41,1.27,1,.44,2.06.74,3,1.34.68.43,1.46.64,2.29.49.41-.07.83-.09,1.23-.17.28-.05.53-.03.76.13.18.13.36.28.54.41.06.04.14.03.23.05.17-.12.35-.25.51-.37.69.14,1.39.19,2,.44.71.29,1.34.14,1.99-.09.5-.17.98-.42,1.49-.55.53-.14.99-.59,1.62-.37.09.03.26-.13.39-.2.17-.09.33-.24.5-.24,1.08-.01,1.99-.54,2.87-1.02,1.88-1.02,3.97-1.44,5.92-2.27.78-.33,1.6-.7,2.52-.54.17.03.36-.1.55-.14.18-.04.37-.07.56-.07,1.37.01,2.72.2,4.07.47.22.04.44.12.65.22.6.29.73.77.32,1.3-.32.42-.69.8-.96,1.11-.88.23-1.64.44-2.42.63-.29.07-.6.14-.9.13-.74-.02-1.43.16-2.11.42-.92.35-1.83.73-2.75,1.09-.53.2-1.06.37-1.61.56.18.42.52.36.8.34,1.9-.15,3.79-.06,5.69.04,1.53.08,2.99.49,4.49.71.86.13,1.8.42,2.15,1.46.05.15.27.27.44.33.63.23,1.3.32,1.91.85.36-1.24.68-2.36,1.01-3.48.35-1.19.56-2.44,1.34-3.48.11-.14.19-.35.2-.52ZM76.13,44.5c.47-1.32,1-2.62,1.44-3.96.52-1.56.82-3.15.75-4.81-.04-.99-.02-1.98.02-2.97.06-1.76-.22-3.48-.59-5.19-.11-.48-.19-.97-.3-1.45-.14-.65.06-1.27.17-2.03.18.14.26.2.4.31.14-.52.27-1.03.42-1.6.25.16.51.25.67.43.75.81,1.46,1.62,1.77,2.74.33,1.18.54,2.35.65,3.57.18,1.9.2,3.8.22,5.7,0,.27,0,.54.07.79.3,1.14.17,2.26-.13,3.37-.21.77-.44,1.53-.62,2.3-.21.87-.69,1.6-1.13,2.35-.04.07-.07.15-.13.18-.71.34-.95,1.06-1.31,1.67-.5.87-1.11,1.62-2.1,2.1-.21-.29-.04-.62-.17-.87-.6-.3-.73-.47-.61-1.01.13-.55.31-1.1.5-1.63ZM45.78,15.94c-.07-.1-.18-.32-.36-.45-.44-.34-.71-.76-.87-1.29-.13-.43-.33-.85-.57-1.23-.18-.28-.44-.53-.7-.73-.39-.29-.83-.51-1.25-.77-.15.69-.16.86.25,1.46.29.42.46.87.56,1.35.18.82-.47,1.8-1.28,1.96-.37.07-.74.16-1.11.23-.75.14-1.5.23-2.23-.14-.09-.05-.22,0-.39,0-.05.26-.09.51-.15.75-.33,1.23-1.19,1.57-2.22.84-.3-.22-.57-.5-.79-.8-.4-.55-.77-1.13-1.12-1.71-.35-.58-.13-1.16.22-1.59.45-.55,1-1.03,1.68-1.32.06-.03.15,0,.24,0,.11.13.23.27.35.42.41-.2.54-.47.36-.92-.23-.56-.42-1.14-.6-1.72-.22-.7.01-1.38.62-1.78.18-.11.44-.17.64-.15,1.09.13,2.2-.09,3.29.14.22.05.47.06.68,0,.86-.23,1.72,0,2.59-.02.71,0,1.24.28,1.58.92.09.17.17.36.32.47.76.56,1.17,1.39,1.7,2.12.78,1.08.73,2.28.3,3.48-.14.38-.45.61-.89.56-.22-.02-.45-.05-.82-.09Z"/>
      <path class="cls-1" d="M154.09,122.39c-.35-.14-.67.05-1.01.06.35.15.69.23,1.01-.06Z"/>
      <path class="cls-1" d="M41.37,11.82c0,.06.04.12.06.17.03-.02.05-.04.08-.07l-.06-.18s-.07.05-.07.07Z"/>
      <path class="cls-1" d="M80.74,28.54c-.01-.38-.12-.74-.46-.98v-.48h-.01v.48c.37.97.21,2.04.45,3.03.03-.69.05-1.37.02-2.05Z"/>
      <path class="cls-1" d="M49.65,108.68s-.06.06-.06.09c-.05.22.09.51.26.53.03,0,.07-.02.08-.04.1-.13,0-.41-.19-.55-.02-.02-.06-.02-.09-.03Z"/>
      <path class="cls-1" d="M38.49,59.58c.19-.19.39-.38.63-.62q-.6,0-.63.62Z"/>
      <path class="cls-1" d="M214.02,113.12l.18.09c.06-.03.13-.06.19-.09-.05-.04-.1-.12-.15-.12-.08.01-.15.07-.23.11Z"/>
      <polygon class="cls-1" points="163.98 114.5 163.99 114.48 163.98 114.5 163.98 114.5"/>
      <path class="cls-1" d="M97.96,107.21s.07.1.11.14c.03-.06.09-.12.09-.18,0-.06-.05-.12-.07-.18-.04.07-.1.14-.12.21Z"/>
      <path class="cls-1" d="M140.37,123.98s.09.09.18.16c.06-.08.11-.16.15-.24,0,0-.06-.07-.07-.07-.09.04-.17.1-.26.15Z"/>
      <path class="cls-1" d="M235.61,126.59c-.23.47-.4.92-.49,1.4-.02.09.03.18.06.28.75-.77.81-.97.43-1.68Z"/>
      <path class="cls-1" d="M231.97,124.53s-.1-.12-.14-.11c-.07,0-.14.06-.22.1.06.03.12.06.18.09.06-.03.12-.05.18-.08Z"/>
      <path class="cls-1" d="M158.66,121.4c.84-.22,1.69-.44,2.53-.68.07-.02.12-.13.29-.34-.31.06-.45.09-.58.12-1.99.5-3.97,1-5.96,1.52-.26.07-.58.08-.76.36.44.03.86-.02,1.29-.15,1.05-.32,2.13-.55,3.19-.82Z"/>
      <path class="cls-1" d="M4.04,28.58c-.22.34-.37.57-.57.87q.57-.29.57-.87Z"/>
      <path class="cls-1" d="M226.19,142.69s.05.09.08.15c.05-.04.13-.07.15-.12.02-.06-.02-.13-.03-.2-.07.06-.15.1-.2.17Z"/>
      <path class="cls-1" d="M235.03,128.46s.08-.1.12-.14c-.09,0-.17-.02-.12.14Z"/>
      <path class="cls-1" d="M231.1,133.62s-.06.02-.08.03l.11.04s-.02-.05-.02-.07Z"/>
      <path class="cls-1" d="M1.46,30.07c-.32.18-.63.37-.94.56.46.21.79.03,1.11-.14.1-.05.2-.26.17-.37-.05-.21-.22-.12-.34-.04Z"/>
      <path class="cls-1" d="M230.17,135.52c-.1.1-.11.33-.22.37-.43.18-.6.55-.71.94-.11.38-.39.71-.37,1.3.81-.83,1.36-1.64,1.57-2.65-.1,0-.22-.02-.27.03Z"/>
      <path class="cls-1" d="M2.31,30.54c.4.06.58-.19.9-.67-.43.22-.64.31-.85.43-.04.02-.03.12-.05.23Z"/>
      <path class="cls-1" d="M165.75,58.07s-.06-.02-.09-.02c0,0-.02.04-.02.07.03,0,.06.02.08.02.01,0,.02-.04.03-.07Z"/>
      <path class="cls-1" d="M230.46,135.43c.02-.15.04-.31.08-.56-.27.25-.19.41-.08.56Z"/>
      <path class="cls-1" d="M70.76,137.92s.05.08.08.12c.04-.05.09-.1.13-.15-.07,0-.14.02-.21.03Z"/>
      <path class="cls-1" d="M81.08,138.34c0-.34.08-.67.12-1.01.13-1.17.23-2.33-.27-3.47-.29-.65-.45-1.36-.68-2.05-.08-.25-.17-.5-.29-.74-.15-.29-.59-.31-.74-.03-.09.16-.15.35-.19.53-.27,1.06-.54,2.13-.8,3.19-.33,1.36-.68,2.72-.95,4.09-.12.62-.36,1.23-.25,2.01,1.38-.08,2.57-.33,3.48-1.36.32-.36.58-.68.57-1.18Z"/>
      <path class="cls-1" d="M85.3,135.59c-.03.06-.09.11-.09.17,0,.06.05.12.07.18.03-.06.07-.11.1-.17-.03-.06-.05-.12-.08-.19Z"/>
      <path class="cls-1" d="M217.01,143.84c.57.49,1.13-.11,1.76.03.08-.29.14-.43.16-.58.16-.92.47-1.75,1.29-2.31.04-.03-.01-.18-.02-.29-1.42.58-2.68,1.82-3.18,3.15Z"/>
      <path class="cls-1" d="M75.8,127.98s-.09-.1-.13-.15c.01.06.02.11.04.17.03,0,.07-.02.1-.02Z"/>
      <path class="cls-1" d="M75.4,127.74c.05,0,.1,0,.15.01-.03-.02-.07-.04-.1-.06,0,0-.03.03-.05.05Z"/>
      <path class="cls-1" d="M71.42,137.71c-.07-.04-.16-.14-.22-.12-.13.03-.22.11-.17.27.09,0,.19.02.28,0,.05-.01.08-.09.12-.15Z"/>
      <path class="cls-1" d="M252.02,76.97c-.23-.54-.56-.97-1.09-1.27-.29-.16-.54-.41-.75-.67-1.06-1.35-2.1-2.7-3.13-4.07-1.08-1.45-2.43-2.62-3.88-3.66-1.11-.8-2.26-1.55-3.41-2.29-1.86-1.19-3.78-2.26-5.84-3.07-.18-.07-.37-.18-.54-.16-.57.06-1.03-.22-1.53-.38-.83-.28-1.65-.58-2.5-.78-.92-.21-1.85-.45-2.82-.2-.14.04-.3.05-.45.03-.75-.08-1.51-.15-2.26-.28-1.73-.3-3.46-.43-5.22-.31-.49.03-.99.03-1.48,0-1.44-.1-2.88-.06-4.33,0-1.33.05-2.66.11-3.99.16-.19,0-.38.03-.57,0-1.19-.2-2.34.08-3.49.32-.74.15-1.49.31-2.24.42-1.01.15-2.04.27-3.06.36-1.47.13-2.94.42-4.43.36-.26-.01-.52.08-.78.13-.82.16-1.63.43-2.45.47-1.08.06-2.09.4-3.14.53-.11.01-.25.05-.31.12-.26.31-.59.27-.94.25-.38-.02-.76.01-1.14.04-1.21.08-2.42.18-3.64.26-.68.05-1.36.06-2.05.1-.43.03-.85.05-1.33-.39.53.07.9.13,1.27.15.16,0,.38-.02.32-.37-1.4.11-2.8.19-4.19.34-.48.05-.93.29-1.4.42-.33.09-.67.17-1,.19-1.25.1-2.5.16-3.74.25-.64.05-1.28.16-1.92.21-1.25.08-2.51.14-3.76.21-.34.02-.69.04-1.01.14-1.46.48-2.92.16-4.44-.04-.1.59-.59.57-1.06.59-1.44.06-2.88.04-4.29.43-.25.07-.53.05-.79.04-1.22-.03-2.43-.07-3.65-.09-.3,0-.7-.05-.88.12-.57.53-1.19.36-1.83.3-.37-.04-.76-.08-1.13-.07-.87.03-1.74.1-2.61.13-.38.01-.76-.02-1.14-.04-.72-.04-1.44-.11-2.16-.11-.88,0-1.74-.05-2.61-.15-.97-.12-1.93-.51-2.93-.16-.07.02-.16.01-.22-.02-.88-.38-1.8-.16-2.7-.18-.76-.02-1.51.03-2.26-.16-.59-.15-1.18-.29-1.78-.39-.67-.11-1.38-.33-2.01-.2-.8.16-1.58-.14-2.35.1-1.42-.2-2.86-.34-4.26-.61-1.11-.22-2.18-.61-3.28-.91-1.39-.38-2.78-.76-4.04-1.5.14-.01.27-.02.46-.04-.17-.44-.5-.41-.81-.43-.02,0-.06.16-.08.25.15.1.41-.02.47.25-.16-.08-.31-.16-.47-.24,0,0,0,0,0,0-1.06.17-1.99-.05-2.93-.63-1.06-.65-2.21-1.19-3.37-1.66-2.03-.82-4.1-1.55-6.24-2.35.07.37.12.64.18.96-.21.05-.35.1-.49.1-.44,0-.8-.19-1.14-.45-1.09-.83-2.19-1.64-3.28-2.48-1.09-.85-2.06-1.79-2.73-3.02-.25-.46-.61-.87-.9-1.31-.25-.38-.56-.74-.71-1.16-.51-1.35-.95-2.72-1.43-4.08-.04-.12-.09-.25-.18-.53-.24.43-.4.71-.56.99-.17.29-.33.6-.53.87-.2.27-.45.51-.66.77-.07.09-.1.21-.15.31-.07.13-.12.29-.22.4-.43.45-.66,1.01-.87,1.58-.13.36-.36.64-.62.93-.39.45-.83.86-1.16,1.39-.54.87-1.23,1.64-1.79,2.5-.49.75-1.18,1.4-1.29,2.35-.66.27-1.1.72-1.36,1.34-.12.29-.29.52-.59.66-.77.37-1.38.94-1.87,1.62-.37.52-.84.89-1.42,1.08-.61.2-1.08.56-1.43,1.07-.19.26-.42.42-.69.56-.9.44-1.65,1.08-2.4,1.72-.14.12-.26.32-.42.37-.47.14-.76.49-1.1.79-1.02.91-2.08,1.78-3.35,2.33-.48.21-.96.4-1.43.6.14.72.05,1.32-.41,1.85-.35.41-.43.92-.49,1.53.18-.1.3-.13.36-.2.25-.34.48-.68.71-1.03.45-.68,1.06-1.18,1.74-1.6.53.03.8-.34,1.1-.69.37-.43.76-.85,1.15-1.26.12-.12.29-.18.51-.32.02.25.09.43.03.53-.31.51-.58,1.08-.99,1.49-.79.78-1.37,1.7-2.01,2.59-.02.04.03.12.06.24.41-.23.68-.75,1.33-.58-.08.21-.12.43-.25.59-.37.48-.79.92-1.17,1.4-.18.23-.41.51-.42.78-.02.43-.22.71-.47,1-.53.64-1.12,1.25-1.58,1.94-.97,1.5-1.91,3.02-2.6,4.68-.12.28-.25.56-.42.81-.51.76-.89,1.59-1.25,2.42-.22.52-.49,1.03-.75,1.53-.09.18-.22.33-.39.58-.05-.47-.14-.77-.5-.95-.26-.13-.47-.34-.7-.51-.36.18-.49.49-.67.78-.14.22-.29.44-.45.65-.02.03-.12,0-.24-.01.08-.34.16-.65.22-.93-.11-.16-.17-.25-.24-.34-.81-1.06-1.08-2.24-.76-3.54.12-.48.21-.96.32-1.44.42-1.78.96-3.51,1.86-5.11.41-.73.77-1.48.98-2.3.14-.56.41-1.05.84-1.46.66-.63,1.31-1.26,1.96-1.9.22-.21.45-.42.63-.66.28-.36.1-.8-.35-.83-.56-.04-1.12,0-1.77,0-.07-.08-.19-.22-.32-.35-.45-.45-.7-.44-1.18.05-.05.05-.09.15-.14.15-.3.01-.6.04-.89-.01-.27-.05-.61,0-.73-.41-.08-.28-.32-.3-.53-.11-.16.14-.32.15-.52.12-.41-.06-.83-.07-1.24-.11-.26-.03-.54-.03-.79-.11-1.11-.36-2.1-1.01-3.19-1.45-.27-.11-.49-.35-.71-.55-.25-.23-.48-.48-.71-.74-.22-.24-.42-.5-.74-.89.07.8.16,1.43.17,2.07.02,1.4.16,2.8.35,4.18.2,1.42.22,2.88.61,4.27.03.11.03.23.03.34.06,1.71-.06,3.41-.23,5.11-.09.9-.24,1.79-.14,2.7.02.22,0,.45-.02.68-.08.71-.3,1.44-.25,2.14.09,1.1-.16,2.12-.55,3.11-.23.58-.35,1.15-.39,1.75-.07,1.03-.25,2.02-.68,3.02.26.49.53.99.8,1.49.64,1.21,1.3,2.41,2.18,3.46.25.3.47.6.57.97.13.45.38.82.64,1.19.31.43.57.9.86,1.34.4.6.74,1.27,1.25,1.75.51.47.94.97,1.28,1.56.54.94,1.27,1.69,2.18,2.27.26.16.52.33.73.54.98.95,2.05,1.79,3.06,2.7,1.04.95,2.15,1.8,3.26,2.66.63.48,1.19,1.06,1.78,1.6.28.9,1.03,1.27,1.81,1.6.43.18.81.43,1.08.81.56.81,1.4,1.27,2.23,1.73.54.29,1.05.59,1.53.98.56.45,1.14.85,1.91.94.4.05.85.21,1.14.47.63.58,1.42.8,2.25,1.21-.26-1.05-.61-1.94-1.17-2.76-.3-.44-.54-.91-.81-1.37-.07-.13-.13-.28-.21-.4-1.09-1.47-1.93-3.08-2.7-4.74-.36-.76-.4-1.46-.23-2.47.29,0,.6-.05.88.01.45.1.87.14,1.34,0,.5-.15.99.04,1.37.38.54.47,1.11.9,1.5,1.53.24.38.59.69.89,1.03.37.43.82.81,1.1,1.29.27.47.61.86.96,1.26.88,1.01,1.58,2.11,2.01,3.41.45,1.36.8,2.77,1.53,4.03.1.17.12.32.08.53-.11.57-.09.57.56.93.15.73.32,1.51.46,2.29.19,1.01.48,1.99.95,2.91.56,1.1.83,2.27.89,3.49.03.57-.11,1.18.05,1.69.29.91.11,1.72-.17,2.56-.17.54-.39,1.07-.35,1.66.04.57-.2,1.03-.62,1.41-.45.4-.93.78-1.35,1.22-.37.39-.67.81-1.31.7-.12-.02-.29.1-.4.19-.36.28-.77.28-1.19.31-.98.07-1.97-.19-2.95.05-1-.23-1.97.06-2.94.17-1.33.16-2.6.53-3.77,1.2-.98.55-1.59,1.37-1.69,2.54-.03.38-.14.75-.19,1.12-.01.1.03.22.04.31q.52.15.99.03c.06-.17.13-.35.19-.53.31-.86.8-1.54,1.67-1.92.27-.12.49-.35.73-.53.79-.6,1.55-1.23,2.52-1.48.13.04.24.08.35.11,1.25.38,1.44.69,1.2,1.97-.03.19-.09.37-.17.54-.26.55-.53,1.09-.79,1.64-.17.36-.47.66-.56,1.12.5.1.94.2,1.39.27.41.06.73-.08.97-.45,1-1.55,2.52-2.5,4.01-3.48.29-.2.71-.06.85.28.13.31.2.64.28.9-.36.47-.68.85-.95,1.26-.28.43-.8.69-.94,1.31.19.05.34.13.46.11.71-.11,1.43-.19,2.12-.37.92-.24,1.8-.6,2.71-.85,1.63-.45,2.66-1.55,3.3-3.04.39-.9.72-1.83,1.06-2.76.17-.46.33-.91.78-1.22.19-.13.29-.44.35-.69.17-.77.33-1.55.45-2.34.12-.86.19-1.73.29-2.6.13-1.17.26-2.34.4-3.5.16-1.33.35-2.63,1.23-3.73.23-.29.38-.66.47-1.02.34-1.24.64-2.49.95-3.74.17-.7.38-1.39.51-2.1.25-1.38.49-2.76.66-4.15.1-.79.08-1.59.04-2.39-.02-.53-.17-1.04-.59-1.44-.34-.32-.47-.76-.55-1.23-.12-.75-.32-1.48-.41-2.23-.1-.78-.38-1.56-.19-2.37.25-1.07.57-2.11,1.01-3.16.28,0,.54.02.79,0,.29-.03.58-.11.82-.16.56.2.46.8.81,1.1.53.04.95.27,1.31.63.62.62,1.24,1.24,1.65,2.02.2.37.32.77.53,1.13.55.93.83,1.94.97,3,.04.3.04.61.13.9.16.48.16.96.14,1.46-.05,1.18-.31,2.32-.68,3.44-.12.36-.22.73-.25,1.11-.05.49,0,.99-.03,1.48-.04.52-.12,1.04-.18,1.53.33.3.69.22,1.01.13.64-.19,1.28-.14,1.93-.15.49,0,.99,0,1.48-.04.92-.08,1.82-.04,2.72.15.56.12,1.12.18,1.69,0,.17-.05.4-.09.55-.02.96.47,2,.43,3.01.5.91.06,1.82.07,2.6.51.24-.08.43-.13.6-.21.8-.41,1.65-.52,2.54-.51,1.03.02,2.06,0,3.08-.06,1.63-.09,3.26-.17,4.88-.35,1.01-.11,2.07-.09,3.03-.49.82-.35,1.69-.5,2.54-.55,1.72-.11,3.39-.41,5.06-.76.78-.16,1.57-.25,2.35-.41,2.16-.44,4.25-1.14,6.42-1.55.63-.12,1.23-.38,1.85-.57.22-.07.43-.13.65-.19.44-.12.9-.18,1.31-.36.98-.42,2.03-.56,3.06-.8.89-.2,1.77-.41,2.65-.64.62-.16,1.24-.36,1.85-.55.6-.19,1.31-.04,1.8-.59.06-.07.22-.04.33-.06.41-.08.83-.12,1.22-.26.69-.24,1.45-.3,2.08-.72,0,0,0-.01-.01-.02-.15,0-.29,0-.52,0,.16-.14.26-.21.35-.29.01,0,.02,0,.04.01.01,0,.03-.01.04,0,.02,0,.04.03.06.04-.04-.01-.07-.02-.1-.03-.02,0-.03,0-.04,0,.06.09.12.18.18.27h.05s-.02.02-.03.03h0c.56.14,1.03-.12,1.5-.37v-.03c-.13-.07-.06-.19-.04-.29v-.04s0-.05-.02-.08c0,0,0,0,0,0h0,0s.02,0,.02,0c.24-.02.49-.05.73-.07.01-.02.02-.01.03-.03l.02.03s-.02-.03-.02-.03c.01,0,.02,0,.03,0,.03-.06.05-.13.09-.14.08-.02.17,0,.26.02,0,0,.01.07,0,.07-.06.03-.12.07-.19.07-.06,0-.11-.01-.17-.03,0,0,0,.01-.01.02-.02,0-.03,0-.05,0-.2.33-.48.09-.73.07,0,0-.01,0-.02,0,0,.03,0,.05.01.08,0,.01,0,.02,0,.04.01.1.03.2.04.29.01,0,.01.02.03.02,0,0,0,0,0,0l-.02.03c1.01-.05,1.96-.37,2.9-.72.17-.06.31-.17.27-.37-.22.07-.44.14-.66.21,0,0,0,0,0,.02h0s0,0-.02-.01c-.14,0-.29.02-.46.03.16-.2.31-.09.46-.03h0s.01,0,.02,0c-.13-.46.11-.69.52-.81.77-.22,1.55-.39,2.3-.66,1.57-.55,3.12-1.21,4.76-1.55.15-.03.3-.06.44-.13,1.1-.55,2.32-.7,3.48-1.07,1.26-.4,2.51-.85,3.76-1.28.43-.15.84-.34,1.27-.49,1.68-.61,3.36-1.2,5.04-1.81.64-.23,1.26-.54,1.91-.72,2.79-.76,5.62-1.29,8.52-1.35,1.18-.02,2.36-.04,3.53,0,1.21.04,2.43-.17,3.63.18.1.03.23.01.34-.02.68-.16,1.35-.05,2.02.04,1.32.17,2.64.27,3.96.42.64.07,1.28.18,1.91.28.86.13,1.72.27,2.57.41.4.07.8.15,1.33.26-.12-.23-.17-.36-.25-.46-.85-1.08-1.6-2.23-2.14-3.49-.69-1.6-1.37-3.22-1.93-4.87-.41-1.22-.8-2.45-.94-3.74-.07-.68-.1-1.35.03-2.04.3-1.52.52-3.06.82-4.59.2-1.01.62-1.93,1.16-2.82.3.33.02.77.4,1.1.2-.39.38-.74.6-1.17.13.33.24.57.3.82.18.73.29,1.48.51,2.2.19.63.25,1.26.22,1.91-.01.38,0,.76-.02,1.14-.04,1.25-.05,2.5.45,3.69.07.17.13.36.17.54.21,1.01.54,1.97,1.12,2.84.16.25.23.56.32.85.25.84.6,1.63,1.08,2.38.28.45.51.93.79,1.38.2.32.43.62.66.92.18.24.4.45.57.7.33.46.6.97.97,1.4,1.03,1.22,2.06,2.44,3.3,3.46,1.58,1.31,3.14,2.65,4.75,3.92,1.1.87,2.21,1.74,3.57,2.21.35.12.69.33.99.55.69.5,1.46.79,2.26,1.06.75.25,1.48.6,2.22.89,1.59.63,3.13,1.4,4.91,1.35.3,0,.6.09.89.18,1.02.3,2.02.66,3.05.92.83.21,1.57.55,2.26,1.05.4.29.8.57,1.31.66.43.07.76.33,1.02.68.36.49.76.93.92,1.55.09.35.33.68.56.98.77,1,1.14,2.11,1.15,3.37,0,.41.09.84.25,1.21.18.44.22.88.22,1.34,0,1.44-.04,2.89.03,4.34.06,1.34-.17,2.64-.29,3.96-.11,1.2-.43,2.38-.71,3.56-.17.7-.43,1.38-1.06,1.84-.15.11-.25.29-.37.43-1.24,1.34-1.82,1.33-2.95.93-.11-.04-.22-.08-.32-.1-.56-.15-1.1-.16-1.68-.02-1.26.29-2.48.69-3.65,1.24-.48.23-1.01.43-1.29.91-.38.65-.69,1.34-.99,2.02-.14.32.05.57.42.66.18.04.38.04.56.08.85.18,1.7.38,2.55.56.52.11.77-.02,1.01-.51.17-.34.3-.7.43-1.05.43-1.09,1.11-1.98,2.06-2.67.12-.09.25-.18.39-.22.62-.15,1.26-.26,1.88-.43.54-.14,1.05.08,1.3.65.13.31.21.65.24.98.06.68-.25,1.25-.66,1.77-.31.4-.72.74-.96,1.2.56.39,1.12.4,1.7.29.9-.17,1.79-.37,2.68-.53.79-.14,1.58-.24,2.27.33.04.03.14-.02.24-.04.04-.08.11-.18.15-.28.45-1.23.52-2.52.67-3.8.18-1.51.28-3.02.7-4.49.21-.73.33-1.48.48-2.22.19-.93.34-1.86.55-2.79.15-.66.38-1.31.36-2.01,0-.22.04-.47.14-.66.28-.52.33-1.08.32-1.65,0-.3.04-.61.11-.9.3-1.14.62-2.26.93-3.4.09-.33.24-.66.26-.99.05-1.01.39-1.93.85-2.81.82-1.61,1.05-3.32.99-5.09-.02-.69-.27-1.24-.99-1.5-.98-.35-1.71-1.11-2.52-1.72-.7-.53-1.51-.84-2.27-1.23-.15-.08-.37-.06-.56-.06-1.4,0-2.37-.71-2.98-1.9-.29-.57-.51-1.2-.61-1.83-.29-1.77-.87-3.46-1.31-5.18-.08-.3-.13-.57-.05-.89.09-.36.11-.75.15-1.12.04-.34.03-.69.1-1.02.2-.91.21-1.82.09-2.72-.14-1.03-.06-2.06.09-3.06.14-.95.19-1.89.19-2.84,0-.61-.01-1.2.18-1.8.11-.34.06-.76,0-1.13-.29-1.68-.56-3.37-1.07-5-.15-.47-.31-.94-.53-1.37-.78-1.52-1.56-3.04-2.15-4.65-.3-.82-.66-1.62-1-2.42ZM64.86,69.5c-.06-.12-.09-.18-.12-.24.13-.06.25-.13.38-.18,0,0,.1.16.09.17-.11.09-.22.16-.35.25ZM68.85,67.1c-.06-.08-.1-.13-.1-.13.1-.09.2-.17.31-.25,0,0,.07.07.07.07-.09.1-.18.2-.28.31ZM113.66,74.95c-.17.49-.14.97-.15,1.46,0,.23,0,.46-.07.68-.34,1.08-.7,2.16-1.04,3.24-.1.32-.19.66-.25.99-.08.46-.26.86-.57,1.19-.13-.03-.24-.05-.4-.08-.36,1.55-.83,3.06-1.75,4.45-.44-.19-.14-.78-.57-.94-.49.04-.25.62-.57.83-.13-.12-.26-.24-.45-.4-.28.45-.56.88-.83,1.31-.26-.03-.19-.21-.17-.34.06-.37.14-.74.19-1.12.06-.45.17-.92.11-1.36-.12-1.01.13-1.97.34-2.92.36-1.64.54-3.29.68-4.95.19-2.16-.19-4.24-.73-6.31-.34-1.3-.85-2.5-1.59-3.63-.55-.85-.9-1.83-1.32-2.7.16-.32.27-.56.39-.8.43-.11.86-.21,1.3-.32.23-.06.46-.07.64.12.25.27.48.2.81.1.41-.12.77.19.9.54.19.55.57.76,1.06.93.24.08.5.22.67.41.98,1.01,1.99,2,2.36,3.43,0,.04.03.07.05.1.45.72.61,1.53.72,2.36.13.94.05,1.89.28,2.82.07.28.06.63-.04.9Z"/>
      <path class="cls-1" d="M154.18,122.37s-.03,0-.05,0c-.01.01-.03,0-.04.02.02,0,.04,0,.06,0,0-.02.02-.01.03-.03Z"/>
      <path class="cls-1" d="M169.07,113.34c-.07,0-.15,0-.22,0,0,0,0,.01,0,.02,0,0,0,0,.01,0,.07,0,.14,0,.21-.01Z"/>
      <path class="cls-1" d="M153.08,122.45s-.02,0-.03,0c0,0,0,.01,0,.02,0,0,.01,0,.02,0,0,0,.01,0,.02,0Z"/>
      <path class="cls-1" d="M148.91,123.99s.07-.02.1-.04c-.04,0-.09.01-.13.01l.03.03Z"/>
      <path class="cls-1" d="M71.03,137.86s-.02,0-.02,0c0,.01-.02.02-.03.03.02,0,.03,0,.05,0,0-.01,0-.02,0-.03Z"/>
      <path class="cls-1" d="M168.18,113.57s0,0,0,0h0s0,0,0-.01c0,0-.01,0-.02,0,0,0,.02.01.01,0Z"/>
      <path class="cls-1" d="M235.19,128.27s0,.01-.02.02c0,0-.02.02-.02.03.02,0,.03,0,.05,0,0-.02,0-.03-.01-.05Z"/>
      <path class="cls-1" d="M75.66,127.84s-.01-.05-.02-.08c-.03,0-.06,0-.09,0,.02.01.04.02.06.03.02.02.03.03.05.05Z"/>
      <path class="cls-1" d="M230.46,135.43s0,.02,0,.03c0,.01-.01.02-.01.03.02,0,.03,0,.05,0-.01-.02-.02-.04-.03-.06Z"/>
      <path class="cls-1" d="M148.91,123.99s-.03-.03-.03-.03c-.01.02-.03.01-.04.03.02,0,.05,0,.07,0Z"/>
      <path class="cls-1" d="M148.84,123.99c-.18,0-.36,0-.64.02.32.19.49.16.64-.02Z"/>
      <path class="cls-1" d="M64.74,69.26c.03.06.06.12.12.24.12-.08.24-.16.35-.25.01-.01-.08-.17-.09-.17-.13.05-.25.12-.38.18Z"/>
      <path class="cls-1" d="M68.75,66.97s.04.05.1.13c.1-.11.19-.21.28-.31,0,0-.06-.07-.07-.07-.11.08-.21.16-.31.25Z"/>
      <path class="cls-1" d="M164.16,114.77s0,.01.01.02c.01,0,.03,0,.04-.02l-.03.03s.03-.03.03-.03h-.05Z"/>
      <path class="cls-1" d="M163.98,114.5h0s0-.02,0-.02c-.09.08-.19.15-.35.29.23,0,.37,0,.52,0-.06-.09-.12-.18-.18-.27h0Z"/>
      <path class="cls-1" d="M164.17,114.79s0,0,0,.01c0,0,0,0,0,0l.03-.03s-.03,0-.04.02Z"/>
      <path class="cls-1" d="M166.4,113.87s-.02.02-.03.03c.02,0,.04,0,.05,0l-.02-.03Z"/>
      <path class="cls-1" d="M166.37,113.9c-.24.02-.49.05-.73.07.25.01.52.25.73-.07Z"/>
      <path class="cls-1" d="M165.64,113.97s-.01,0-.02,0c0,0,0,0,0,0,0,0,.01,0,.02,0Z"/>
      <polygon class="cls-1" points="165.61 113.98 165.62 113.98 165.62 113.97 165.61 113.98"/>
      <path class="cls-1" d="M167.7,113.59c.17,0,.31-.02.46-.03-.15-.06-.3-.18-.46.03Z"/>
      <path class="cls-1" d="M168.16,113.56s.01,0,.02,0h0s0,0,0,0Z"/>
      <path class="cls-1" d="M168.17,113.56h0s0,0,0,0c0,0-.01,0-.01,0Z"/>
      <path class="cls-1" d="M163.98,114.5s.03,0,.04,0c-.01,0-.02,0-.04-.01,0,0,0,.02,0,.02h0Z"/>
      <path class="cls-1" d="M164.07,114.48s-.03,0-.04,0c.03,0,.07.02.1.03-.02-.01-.04-.04-.06-.04Z"/>
      <path class="cls-1" d="M110.97,61.4s0,0,0,0c.16.08.31.16.47.24-.06-.27-.32-.15-.47-.25Z"/>
      <path class="cls-1" d="M110.94,61.39s.02,0,.03.01c0,0,0,0,0,0,0,0-.02,0-.03,0Z"/>
      <path class="cls-1" d="M166.79,113.83s0-.07,0-.07c-.09-.01-.18-.04-.26-.02-.04,0-.06.08-.09.14.06.01.11.03.17.03.06,0,.13-.04.19-.07Z"/>
      <path class="cls-1" d="M166.4,113.87s.02.03.02.03c0,0,0-.01.01-.02-.01,0-.02,0-.03,0Z"/>
      <path class="cls-1" d="M165.63,114.06v.04s0-.02,0-.04Z"/>
      <path class="cls-1" d="M165.67,114.39c-.01-.1-.03-.2-.04-.29-.02.11-.09.22.04.29Z"/>
      <path class="cls-1" d="M165.62,113.98s0,0,0,0c.02.02.02.05.02.08,0-.03,0-.05-.01-.08,0,0,0,0,0,0Z"/>
      <path class="cls-1" d="M165.68,114.42s.01,0,.02,0c-.02,0-.01-.02-.03-.02v.03Z"/>
      <path class="cls-1" d="M165.68,114.44s.02-.03.02-.03c0,0,0,0,0,0,0,0-.01,0-.02,0,0,0,0,.01,0,.02Z"/>
      <polygon class="cls-1" points="165.62 113.97 165.62 113.98 165.62 113.98 165.62 113.97"/>
    </g>
    <path class="cls-1" d="M239.34,126.81c-.3-.57.12-.91.4-1.26-.03-.2-.05-.35-.06-.5-.13-1.44-.81-2.5-2.11-3.15-.37-.19-.75-.38-1.13-.54-.53-.22-1.07-.39-1.59-.63-1.18-.53-2.35-1.06-3.51-1.64-.29-.14-.54-.42-.72-.69-.28-.43-.65-.73-1.08-.99-.42-.26-.84-.53-1.18-.88-1.06-1.11-2.09-2.25-3.12-3.39-.51-.29-.97-.64-1.37-1.05-.4,0-.77-.02-.78-.04-.69-2.7-2.02-4.97-3.71-6.95-.48-.09-.86-.18-1.24-.24-.86-.14-1.72-.28-2.57-.41-.64-.1-1.27-.2-1.91-.28-1.32-.15-2.65-.25-3.96-.42-.68-.09-1.34-.2-2.02-.04-.11.03-.24.05-.34.02-1.19-.35-2.42-.14-3.63-.18-.47-.02-.94,0-1.41,0-.43,1.91-.08,5.61.66,5.58.37-.01.67.1.87.42.67,1.13,1.67,1.97,2.66,2.78,1.32,1.08,2.66,2.16,3.89,3.34.94.9,1.98,1.65,3.08,2.34,1.93,1.23,4,2.19,6.04,3.19.3.15.64.23.96.35.89.32,1.82.58,2.67,1,1.09.53,2.12,1.19,3.16,1.81.36.21.67.49.75.66.21.65-.37.86-.19,1.29.16.39-.02.74-.16,1.1-.56,1.49-1.11,2.98-1.69,4.46-.42,1.08-.85,2.15-.88,3.35-.28.06-.5.12-.72.14-.79.08-1.59.07-2.36.23-1.45.32-2.83.89-4.1,1.67-.67.42-1.24,1-1.89,1.45-1.31.9-2.14,2.14-2.61,3.63-.23.72-.34,1.48-.49,2.22-.03.14,0,.3.04.44.26.86.88,1.31,1.74,1.42,1.84.23,3.66.63,5.54.51.3-.02.6.1.9.1.45,0,.92,0,1.34-.14.45-.15.87-.19,1.33-.13.41.06.83.06,1.24.04.41-.02.83-.12,1.24-.16.26-.03.5-.07.74-.24.35-.25.75-.34,1.18-.13.11.06.29.04.42,0,.33-.08.64-.21.97-.29.47-.11.82-.35,1.07-.78.19-.33.43-.62.66-.92.54-.69,1.07-1.38,1.64-2.04.39-.46.37-1.07.66-1.56.45-.75.75-1.58,1.03-2.4.22-.65.54-1.25.89-1.84.45-.79.91-1.59,1.22-2.44.34-.94.66-1.85,1.36-2.6.2-.22.36-.5.49-.77.28-.58.54-1.17.81-1.76.28-.6.59-1.19.87-1.79.04-.09.07-.23.03-.31ZM220.19,140.84c-.82.56-1.12,1.39-1.29,2.31-.02.14-.08.28-.16.58-.63-.14-1.18.46-1.76-.03.5-1.33,1.76-2.57,3.18-3.15.01.11.06.27.02.29ZM228.84,138c-.02-.59.26-.92.37-1.3.12-.39.28-.76.71-.94.11-.04.12-.27.22-.37.05-.05.17-.03.27-.03-.21,1.01-.75,1.81-1.57,2.65ZM235.16,128.14c-.03-.09-.08-.19-.06-.28.09-.48.26-.93.49-1.4.39.71.33.91-.42,1.68Z"/>
    <path class="cls-1" d="M76.55,121.19c-.8-.38-1.55-.61-2.16-1.17-.29-.26-.74-.42-1.14-.47-.76-.09-1.35-.49-1.91-.94-.48-.39-.99-.68-1.53-.98-.83-.45-1.67-.92-2.23-1.73-.05-.07-.13-.12-.19-.19-.73,2.25-1.86,4.36-2.98,6.46-.02.74.03,1.47.22,2.18.17.64.21,1.28.13,1.92-.21,1.66-.44,3.31-.71,4.95-.07.45-.21.89-.14,1.35.11.66-.22,1.11-.72,1.44-.27.18-.62.29-.94.35-.75.13-1.5.26-2.26.3-.75.04-1.45.44-2.22.23-.07-.02-.15.02-.22.04-.65.18-1.28.48-1.99.41-.07,0-.16.03-.21.08-.52.46-1.13.75-1.75,1.04-.26.12-.45.4-.64.64-.78.95-1.14,2.12-1.67,3.21-.38.78-.69,1.59-1.05,2.46.07.18.14.44.25.68.15.3.39.57.48.89.09.29.04.61.06,1.02.66-.34,1.33-.26,2.05-.4.12.17.25.35.38.54.37-.15.68-.27.95-.37.13-.42.16-.82.35-1.13.6-.97,1.12-1.97,1.48-3.05.06-.17.15-.37.29-.47,1.03-.82,2.19-1.45,3.51-1.48,1.14-.03,2.25-.27,3.39-.31.83-.03,1.64-.07,2.38.48.32.24.77.32,1.15.47.21.08.43.16.63.26.17.09.44.04.52.36-1.48.68-2.45,1.87-3.28,3.22-.45-.02-.86-.07-1.28-.06-.39,0-.79.21-1.3.01.21-.23.36-.39.5-.55.24-.29.5-.58.69-.9.41-.69.23-1.22-.48-1.6-.2-.11-.39-.22-.6-.31-1.89-.82-2.67-.98-3.91.51-.17.2-.35.4-.51.61-.65.84-1.29,1.69-1.96,2.57-.13.83.19,1.59.64,2.31.3.48.77.72,1.25.96.41.2.73-.05,1.09-.14.04,0,.07-.03.11-.04.89-.2,1.76-.47,2.66-.58.82-.1,1.67-.03,2.51,0,.17,0,.34.09.54.14,0,.18-.04.35-.06.52,1.38-.6,2.56-1.64,4.1-1.81.31-.03.63-.03.94-.05.29-.51.72-.94,1.29-1.26,1.17-.66,2.44-1.04,3.77-1.2.6-.07,1.19-.19,1.8-.23.1-.47.17-.96.25-1.43.1-.62.26-1.25.57-1.8-.08,0-.15.02-.24.02-.11-.77.13-1.39.25-2.01.28-1.37.63-2.73.95-4.09.26-1.07.53-2.13.8-3.19,0-.02.02-.04.02-.06-.43-2.97-1.42-5.84-2.68-8.57Z"/>
  </g>
</svg>