<?xml version="1.0" encoding="UTF-8"?>
<svg id="Layer_1" data-name="Layer 1" xmlns="http://www.w3.org/2000/svg" viewBox="0 0 285.94 154.81">
  <defs>
    <style>
      .cls-1 {
        fill: #983c23;
      }
    </style>
  </defs>
  <path class="cls-1" d="M145.8,121.32c.42-.3.94-.26,1.41-.41.81-.26,1.61-.51,2.41-.78.07-.02.08-.18.13-.28.36.16.71.26,1.03-.06.44.03.85-.02,1.28-.15,1-.3,2.03-.52,3.04-.78.8-.21,1.61-.42,2.41-.64.07-.02.11-.13.28-.33-.29.06-.42.08-.55.11-1.89.48-3.79.95-5.68,1.44-.26.07-.59.07-.75.36-.36-.18-.69.05-1.03.06-.83.23-1.67.46-2.5.68-.28.07-.57.1-.85.15-.71.12-1.43.23-2.14.38-.74.15-1.35.58-2.17,1.06.93-.04,1.54-.53,2.35-.31-.09.04-.18.11-.27.13-.98.23-1.98.41-2.95.68-1.86.51-3.77.69-5.65,1.05-.07.01-.14.02-.22.02-1.17-.07-2.29.29-3.44.41-.17.02-.37.08-.49.19-.42.4-.95.5-1.48.62-1.2.27-2.39.55-3.59.82-.21.05-.43.1-.64.1-1.6-.02-3.17.3-4.75.46-.25.02-.51.04-.76.05-1.3.06-2.61.13-3.91.16-.79.02-1.58-.02-2.37-.09-1.21-.1-2.45,0-3.67.03-.4.01-.79.11-1.19.13-.25.01-.52.02-.74-.07-2.23-.9-4.45-.83-6.61,0-.53-.17-1-.33-1.46-.48-.15.2-.24.43-.36.46-.59.11-.69.58-.82,1.03-.43,1.49-.93,2.98-1.1,4.52-.15,1.34-.52,2.62-.73,3.94-.09.53-.12,1.08-.21,1.61-.15.92-.14,1.88-.55,2.75-.09.19-.21.36-.33.56-.25-.05-.45-.09-.64-.13-.06.05-.14.09-.16.14-.47,1.09-1.05,2.14-1.36,3.3-.07.27-.2.56-.38.77-.35.4-.51.87-.67,1.35-.28.85-.8,1.51-1.58,1.97-.24.14-.51.31-.66.53-.46.67-1.15.99-1.86,1.22-.79.25-1.62.38-2.44.54-.24.05-.51.02-.76,0-1.48-.16-2.96-.14-4.44.03-1.48.17-2.96.18-4.43-.15-1.06-.24-2.15-.25-3.23-.25-.59,0-1.17-.09-1.63-.48-.34-.28-.71-.36-1.11-.32-.79.09-1.59.14-2.35.33-.7.18-1.3-.08-1.9-.25-.29-.08-.52-.48-.71-.77-.2-.3-.33-.64-.49-.97-.24-.51-.3-1.03-.15-1.58.16-.59.3-1.18.32-1.86-.19-.05-.35-.13-.52-.14-.8-.01-1.6-.08-2.39,0-.85.1-1.69.36-2.53.55-.04,0-.07.03-.1.03-.34.08-.65.32-1.04.13-.46-.23-.91-.46-1.19-.91-.43-.69-.73-1.41-.61-2.2.64-.84,1.25-1.64,1.86-2.44.15-.2.33-.39.49-.58,1.19-1.41,1.93-1.26,3.73-.48.2.09.38.19.57.3.68.36.84.87.46,1.53-.18.31-.43.58-.66.86-.13.16-.27.3-.48.53.49.19.86,0,1.24-.01.39,0,.79.03,1.22.05.79-1.28,1.72-2.42,3.12-3.07-.07-.3-.33-.26-.49-.34-.19-.1-.4-.17-.6-.25-.37-.15-.79-.22-1.1-.45-.7-.52-1.47-.48-2.26-.46-1.08.04-2.14.27-3.23.3-1.26.03-2.36.63-3.34,1.41-.13.1-.22.29-.28.45-.34,1.03-.84,1.99-1.41,2.91-.18.29-.22.67-.34,1.07-.25.1-.54.21-.9.35-.13-.18-.25-.36-.36-.51-.68.13-1.33.06-1.95.38-.01-.38.03-.69-.05-.97-.09-.3-.32-.56-.46-.84-.11-.23-.18-.47-.24-.65.35-.82.64-1.6,1-2.34.5-1.03.85-2.15,1.59-3.06.18-.22.36-.49.61-.61.59-.28,1.18-.55,1.67-.99.05-.04.14-.08.2-.07.67.07,1.27-.21,1.9-.39.07-.02.15-.05.21-.04.73.2,1.4-.18,2.11-.22.72-.04,1.44-.16,2.15-.28.31-.05.64-.16.9-.33.47-.31.78-.74.68-1.37-.07-.43.06-.85.13-1.28.26-1.57.48-3.14.68-4.72.08-.61.04-1.22-.12-1.83-.29-1.09-.38-2.2-.07-3.37-.58-.33-1.13-.68-1.71-.96-.78-.39-1.52-.85-2.21-1.38-.29-.22-.58-.43-.89-.62-.71-.45-1.34-.99-1.96-1.55-.37-.34-.81-.6-1.2-.92-.39-.32-.78-.64-1.13-1.01-1.11-1.19-2.2-2.41-3.31-3.6-.47-.5-.91-1.03-1.54-1.35-.28-.14-.51-.41-.71-.67-.34-.43-.68-.84-1.14-1.15-.2-.13-.37-.36-.46-.59-.33-.78-.87-1.42-1.31-2.12-.51-.79-1.01-1.59-1.47-2.41-.43-.75-.71-1.58-1.35-2.17q.33-.68.06-1c-.17.35-.33.68-.48.99-.06-.03-.11-.03-.12-.06-.28-.5-.57-1.01-.85-1.51-.05-.09-.12-.19-.14-.29-.22-1.2-.53-2.38-.36-3.64.14-1.03.04-2.09-.03-3.14-.03-.44-.02-.84.11-1.27.44-1.35.66-2.73.69-4.16.01-.57.12-1.15.22-1.72.14-.78.27-1.57.49-2.33.24-.86.17-1.73.22-2.59.1-1.45.18-2.89.05-4.34-.02-.25.03-.51.05-.76.06-.65.09-1.3-.09-1.94-.08-.27-.1-.58-.07-.86.09-.87,0-1.73,0-2.59.01-.72.12-1.44.14-2.17.07-2.53.39-5.06.28-7.6,0-.11-.02-.22.01-.33.42-1.64.15-3.31.18-4.97,0-.46-.15-.93-.23-1.39-.06-.35-.13-.71-.18-1.06-.08-.59-.36-1.09-.67-1.58-.09-.14-.27-.21-.48-.36-.1.95-.1,1.8.3,2.61.12.25.17.55.2.83.07.72.14,1.44.13,2.16,0,.46-.09.94-.25,1.37-.18.48-.36.94-.32,1.47.02.3-.1.55-.27.8-.16.23-.31.5-.37.77-.19.91-.65,1.69-1.16,2.43-.17.26-.46.46-.73.62-.28.17-.59.29-.9.37-.31.08-.65.14-.96.08-1.15-.22-2.08-.82-2.77-1.77-.1-.14-.16-.32-.21-.49-.55-1.85-.52-3.72-.18-5.59.34-1.92.87-3.8,1.46-5.66.25-.8.52-1.58,1.06-2.24.11-.13.17-.31.29-.54-.21-.07-.36-.15-.52-.17-1.11-.17-2.23-.22-3.35-.23-1.08-.01-2.17-.15-3.25-.23-.25-.02-.51-.04-.76-.02-.61.04-1.22.11-1.83.17-.57-.34-1.21-.08-1.81-.17-.25-.04-.49-.01-.72-.16-.63-.39-1.29-.4-1.97-.07-.56.27-1.15.43-1.77.49-.39.04-.78.15-1.17.22-.25.05-.5.11-.75.12-1.37.04-2.75.08-4.12.09-.32,0-.64-.09-.95-.19-.82-.27-1.63-.57-2.44-.87-.2-.07-.4-.18-.55-.32-.56-.53-1.21-.9-1.94-1.17-.54-.2-1.05-.49-1.58-.72-1.06-.46-2.12-.91-3.18-1.37-1.35-.59-2.28-1.62-3.03-2.85-.72-1.17-1.46-2.33-2.2-3.49-.33-.52-.59-1.06-.66-1.7-.07-.61-.23-1.2-.35-1.81-.19-.95-.16-1.88.39-2.72.18-.26.42-.48.66-.71.18-.17.41-.29.57-.48.28-.32.63-.49,1.04-.5.35,0,.62-.13.9-.33.5-.36,1.01-.7,1.51-1.04.09-.06.19-.16.28-.15.55.06.83-.34,1.22-.6.53-.36,1.13-.64,1.69-.95.25-.14.52-.26.74-.45.48-.41,1.02-.68,1.61-.87.46-.14.87-.34,1.24-.65.16-.14.36-.24.55-.33.99-.45,1.99-.88,2.97-1.33.52-.24,1.02-.54,1.54-.8.45-.22.92-.43,1.38-.64.53-.24,1.07-.45,1.58-.72,1.69-.9,3.37-1.84,5.07-2.73.57-.3,1.14-.64,1.83-.63.48,0,.78-.34,1.07-.67.73-.85,1.42-1.74,2.17-2.57,1.02-1.13,1.93-2.35,3.12-3.32.47-.38.81-.91,1.18-1.4.09-.12.06-.34.09-.56.9-.11,1.44-.85,2.15-1.32.15-.1.26-.29.42-.33,1.39-.36,2.62-1.2,4.1-1.34.85-.08,1.69-.38,2.5-.66,1.13-.39,2.23-.86,3.34-1.29.14-.05.27-.12.41-.16,1.48-.36,2.94-.76,4.43-1.05.95-.18,1.93-.22,2.89-.28.24-.02.5.08.74.15.6.18,1.21.22,1.83.2,1.08-.03,2.17-.11,3.24.21.07.02.15.04.21.02.79-.22,1.57.06,2.35.07.47,0,.93.09,1.4.14.25.02.52.1.75.04.67-.14,1.29.02,1.9.24.67.25,1.39.31,2.08.59.85.34,1.63.77,2.4,1.25.3.19.57.44.83.68.29.27.54.59.86.83.4.31.76.6.96,1.12.15.37.54.67.88.94.74.6,1.34,1.3,1.82,2.12.27.46.55.89,1.1,1.12.34.14.6.52.82.84.6.86,1.18,1.74,1.74,2.63.82,1.28,1.53,2.62,2.04,4.06.12.33.38.61.54.93.54,1.06,1.07,2.13,1.59,3.2.47.97.97,1.94,1.14,3.03.03.16.18.31.27.46.43.75.85,1.51,1.03,2.37.06.31.21.62.38.89.77,1.28,1.21,2.7,1.76,4.08.2.5.4,1.01.66,1.48.16.31.29.63.18.93-.15.41-.02.78.06,1.16.05.28.12.57.18.85.11.46-.4.93-.06,1.36.32.4.31.88.48,1.29-.13.19-.27.35-.34.54-.05.15-.01.16.55.78-.02-.16-.04-.25-.05-.34,0-.09-.01-.17-.02-.28.11.05.22.07.23.1.06.53.26,1.03.36,1.56.15.81.49,1.58.77,2.36.22.61.46,1.21.69,1.81.23.61.55,1.18.5,1.87-.02.27.17.47.42.59.88.41,1.49,1.1,2.08,1.86.39.51.91.95,1.45,1.3.91.59,1.86,1.14,2.83,1.6,1.53.73,3.1,1.4,4.67,2.07.63.27,1.25.58,1.97.56.14,0,.29.05.42.11.68.35,1.43.51,2.17.65.71.13,1.42.29,2.12.42.68.13,1.35.2,2.05.11.69-.09,1.35.04,2.02.25,1.07.33,2.13.68,3.25.85.78.12,1.57.29,2.27.71.38.23.8.3,1.25.29.76-.01,1.52-.01,2.26.22.1.03.21.04.32.05,1.37.09,2.75.15,4.11.29,2.63.25,5.28.23,7.92.32,2.02.07,4.06-.03,6.08-.08,1.12-.03,2.24-.09,3.36-.16,1.16-.07,2.31-.17,3.47-.26,1.44-.12,2.87-.36,4.33-.31.32.01.64-.07.96-.12.33-.05.54.36.92.18.29-.14.62-.22.94-.27.72-.1,1.44-.15,2.16-.24.21-.02.43-.06.64-.11,1.45-.36,2.92-.57,4.41-.53,2.03.05,4.05-.1,6.08-.05.18,0,.37.02.54-.02,1.09-.29,2.16-.08,3.23.07,1.52.21,3.02.26,4.55.07.61-.08,1.23-.08,1.84-.07,1.45,0,2.88-.09,4.31-.38,1.27-.26,2.58-.35,3.89-.24.51.04,1.01.04,1.51-.03.43-.05.87-.04,1.3-.05.14,0,.29.03.43,0,1.74-.36,3.53-.32,5.27-.65,1-.19,2.01-.13,3.01-.36.62-.15,1.3-.07,1.95-.07,1.45-.01,2.89-.06,4.33-.25.25-.03.51,0,.76-.01.87-.02,1.74,0,2.61-.07,1.12-.08,2.24-.11,3.36.05.36.05.72.09,1.08.07,1.27-.06,2.52.16,3.78.25.43.03.86.1,1.3.1.84,0,1.65.13,2.48.24,1.51.19,3,.44,4.5.71.89.16,1.78.3,2.66.5.34.08.67.27.98.45.6.35,1.22.6,1.9.75,1.38.32,2.68.88,3.96,1.47.36.17.73.32,1.14.5.31-.14.63-.29.95-.45.81-.39,1.64-.76,2.43-1.19.85-.46,1.82-.69,2.58-1.33.11-.09.25-.16.38-.2.85-.2,1.61-.62,2.41-.96.51-.22.96-.48,1.4-.8.29-.21.57-.45.96-.47.13,0,.29-.08.39-.17.5-.49,1.11-.8,1.74-1.08.13-.06.26-.14.36-.24.82-.79,1.84-1.28,2.75-1.93,1.73-1.25,3.59-2.31,5.22-3.71,1.41-1.2,2.87-2.32,4.21-3.6.52-.5.98-1.06,1.41-1.65.51-.7,1.1-1.34,1.69-1.98.32-.35.6-.71.83-1.13.37-.66.82-1.28,1.23-1.92.37-.58.73-1.17,1.11-1.74.14-.21.27-.43.45-.6.25-.23.43-.49.46-.83,0-.07.02-.15.06-.21.94-1.43,1.36-3.1,2.2-4.58.33-.58.46-1.19.6-1.83.24-1.12.64-2.22,1.06-3.29.38-.98.84-1.92,1.13-2.94.04-.14.14-.27.14-.41-.05-1.05.53-1.94.74-2.93.09-.43.35-.78.82-.94.5-.18.78-.51.96-1.07.16-.53.6-.97.95-1.43.09-.12.31-.14.43-.19.34.22.03.43.16.76.08.07.28.22.52.41.02.13,0,.33.06.48.53,1.19.78,2.47,1.21,3.7.2.57.27,1.11.21,1.69-.15,1.55-.38,3.09-.39,4.64,0,.18-.04.36-.1.53-.34.89-.46,1.82-.55,2.75-.05.54-.16,1.07-.25,1.6-.01.07-.02.17-.06.2-.56.45-.54,1.14-.75,1.73-.07.19-.19.42-.36.52-.39.24-.49.56-.54.99-.1.84-.45,1.61-1,2.23-.36.4-.61.81-.73,1.3-.47,2.01-1.56,3.72-2.58,5.47-.09.15-.21.32-.23.48-.04.33-.21.52-.46.69-.11.08-.21.21-.26.34-.25.7-.75,1.22-1.18,1.81-.23.32-.41.69-.88.7-.09.22-.6.28-.26.67-.12.11-.37.24-.35.32.08.38-.2.58-.33.86-.26.53-.54,1.01-1.17,1.21-.29.09-.41.39-.42.71,0,.36-.08.63-.55.53-.09-.02-.25.13-.34.23-.14.15-.3.32-.36.51-.28.98-1.01,1.54-1.8,2.07-.24.16-.47.34-.67.55-1.66,1.68-3.49,3.16-5.28,4.68-1.64,1.39-3.42,2.54-5.27,3.62-1.31.76-2.62,1.55-3.95,2.28-.98.54-2,1.02-3,1.5-.52.25-1.06.46-1.58.71-.15.07-.28.2-.48.34.12.18.19.35.3.47.59.64,1.08,1.35,1.52,2.1.57.97,1.17,1.91,1.75,2.87.16.28.34.57.4.88.22,1.19.67,2.29,1.17,3.37.35.76.58,1.55.89,2.32.4,1,.72,2.04,1.07,3.06.37,1.06.59,2.15.74,3.27.12.93.38,1.84.57,2.76.03.14.13.3.09.41-.35.99.01,1.95.14,2.9.17,1.23.19,2.45.22,3.67.02.96-.35,1.84-.54,2.76-.07.32-.38.59-.58.88.35,1.78,1.07,3.39,1.83,4.99.3.64.74,1.16,1.42,1.43.13.05.25.15.39.19,1.24.32,2.17,1.13,3.13,1.9.28.23.59.42.89.63.75.51,1.5,1.01,1.95,1.85.1.19.25.35.37.52.34.47.82.89.98,1.41.2.64.14,1.36.2,2.04.03.32.06.64.09.96.05.58.06,1.13-.16,1.71-.25.67-.39,1.39-.55,2.09-.19.78-.51,1.5-.85,2.22-.52,1.11-1.02,2.22-1.32,3.43-.23.91-.49,1.8-.6,2.74-.05.38-.3.74-.39,1.12-.18.81-.32,1.62-.46,2.44-.2,1.21-.41,2.42-.57,3.64-.12.93-.19,1.87-.26,2.81-.06.84-.26,1.63-.55,2.41-.49,1.28-.9,2.59-1.35,3.89-.02.07-.07.14-.06.21.13.91-.36,1.5-1,2.03-.11.09-.17.23-.31.43.24.03.41.04.57.06,0,.05,0,.11-.02.12-.55.32-1.1.67-1.67.95-.2.1-.49.06-.73.06-.1,0-.21-.09-.31-.09-.17,0-.39,0-.51.09-.12.09-.14.3-.23.51-.54.17-1.15.16-1.72.42-.99.45-1.01.41-2.05.36-.25-.01-.51.01-.75.06-.87.15-1.73.13-2.59-.03-.35-.07-.71-.1-1.06-.14-.43-.66-.72-.73-1.85-.44-.21.2.14.3.08.47-.05.03-.11.1-.16.09-1.26-.14-2.51-.28-3.77-.42-.29-.03-.58-.08-.87-.06-.93.07-1.7-.28-2.42-.81-.12-.09-.22-.18-.37-.3-.29.11-.59.23-.92.35-.61-.21-1.18-.51-1.54-1.09-.17-.27-.22-.63-.41-.88-.53-.7-.65-1.5-.63-2.34.02-.89.26-1.71.72-2.47.11-.19.26-.36.32-.56.22-.76.62-1.38,1.27-1.84.14-.1.25-.26.35-.41.18-.29.41-.47.74-.59.33-.12.61-.37.91-.56.15-.09.29-.2.44-.29,1.33-.73,2.78-.94,4.28-.99.7-.02,1.46.01,2.16-.47.05-.18.11-.42.18-.66.13-.45.28-.89.63-1.25.46-.47.61-1.06.61-1.69,0-1.41.03-2.83-.01-4.24-.03-1.05-.32-2.07-.65-3.07-.13-.4-.36-.71-.74-.89-.49-.24-.75-.64-.89-1.16-.34-1.2-1.25-1.88-2.35-2.22-1.13-.35-2.25-.76-3.39-1.1-.45-.13-.87-.35-1.31-.53-.23-.1-.46-.21-.7-.28-2.59-.83-5.08-1.9-7.46-3.23-.16-.09-.32-.16-.49-.24-1.62-.75-3.11-1.7-4.57-2.7-.57-.39-1.09-.84-1.63-1.26-.31-.24-.63-.49-.95-.73-.45-.34-.9-.68-1.44-1.09.07.19.08.3.14.36,1.14,1.25,2.28,2.51,3.45,3.74.32.33.73.59,1.12.84.41.25.76.53,1.02.94.17.26.41.53.69.66,1.1.55,2.22,1.06,3.34,1.56.5.22,1.02.39,1.52.6.37.15.72.34,1.08.52,1.24.62,1.9,1.63,2.02,3,.01.14.04.28.06.48-.26.33-.66.65-.38,1.2.04.07.02.21-.03.29-.27.57-.56,1.13-.83,1.7-.26.55-.5,1.12-.77,1.67-.13.26-.27.52-.47.73-.66.71-.97,1.58-1.29,2.48-.29.81-.73,1.57-1.16,2.33-.33.57-.63,1.13-.84,1.76-.26.79-.54,1.57-.98,2.29-.28.47-.25,1.05-.63,1.49-.54.63-1.05,1.29-1.56,1.94-.22.28-.46.56-.63.87-.23.41-.57.64-1.01.75-.31.07-.61.2-.93.27-.13.03-.29.05-.4,0-.41-.21-.79-.12-1.12.12-.22.16-.45.2-.7.23-.4.04-.79.13-1.18.16-.39.02-.79.02-1.18-.04-.44-.07-.84-.03-1.27.12-.39.13-.85.12-1.27.13-.29,0-.58-.11-.86-.09-1.79.11-3.52-.27-5.28-.48-.83-.1-1.41-.54-1.66-1.35-.04-.13-.07-.29-.04-.42.14-.71.25-1.43.47-2.12.44-1.42,1.23-2.6,2.49-3.46.62-.43,1.16-.98,1.8-1.38,1.21-.74,2.52-1.29,3.9-1.59.73-.16,1.5-.15,2.25-.22.21-.02.42-.08.68-.13.03-1.15.43-2.17.84-3.2.55-1.41,1.08-2.84,1.61-4.25.13-.34.3-.68.15-1.05-.17-.41.38-.62.18-1.23-.07-.16-.37-.42-.72-.62-1-.59-1.98-1.22-3.02-1.73-.81-.4-1.69-.64-2.54-.95-.31-.11-.63-.19-.92-.33-1.95-.96-3.92-1.87-5.76-3.04-1.04-.66-2.04-1.37-2.93-2.23-1.18-1.13-2.45-2.15-3.71-3.18-.95-.78-1.9-1.57-2.54-2.65-.19-.31-.47-.42-.83-.4-1.23.05-2.46.07-3.69.13-.43.02-.85.15-1.28.2-.86.11-1.73.18-2.58.3-.35.05-.69.18-1.04.29-.34.11-.68.24-1.01.36-1.52.58-3.12.9-4.62,1.55-1.59.69-3.22,1.29-4.84,1.93-.07.03-.14.08-.2.08-1.12-.12-1.91.75-2.92.99-.77.18-1.51.51-2.25.79-.91.34-1.83.69-2.73,1.07-.6.25-1.2.5-1.85.59-1.05.14-1.99.66-3,.92-.66.17-1.32.38-1.98.57-.1.03-.23.02-.31.08-.85.63-1.89.66-2.85.96-1.84.56-3.72.92-5.6,1.34-1.45.32-2.9.62-4.34.94-.42.09-.85.19-1.25.34-1.03.39-2.08.6-3.18.57l.03.03ZM76,124.92c.02.08.03.16.05.23.03,0,.06-.01.09-.02-.06-.06-.11-.12-.17-.19-.05-.03-.1-.06-.16-.09,0,0-.03.03-.04.04.08,0,.16.01.23.02ZM71.58,134.54c.1,0,.2.02.29,0,.05-.01.07-.09.11-.14-.07-.04-.15-.13-.21-.12-.13.03-.24.11-.17.28-.08.01-.17.02-.25.03.03.04.05.08.08.12.05-.06.1-.12.15-.18ZM227.99,125.42c.74-.75.79-.94.42-1.62-.22.45-.38.88-.46,1.34-.02.1.05.21.07.31-.09,0-.22-.05-.16.14.04-.05.09-.11.13-.16ZM223.52,132.28c-.1,0-.24-.02-.3.04-.1.09-.11.31-.21.36-.41.17-.57.53-.68.9-.11.36-.37.68-.35,1.24.78-.8,1.31-1.58,1.51-2.55.02-.16.04-.31.08-.57-.29.27-.16.43-.05.59ZM164.15,111.39h.02c-.14-.44.1-.66.5-.78.73-.21,1.48-.37,2.19-.63,1.5-.53,2.97-1.16,4.54-1.48.14-.03.29-.06.42-.12,1.05-.53,2.21-.67,3.31-1.02,1.2-.38,2.39-.81,3.59-1.22.41-.14.81-.32,1.21-.47,1.6-.58,3.2-1.15,4.81-1.72.61-.22,1.2-.52,1.82-.69,2.66-.72,5.35-1.23,8.11-1.28,1.12-.02,2.24-.04,3.37,0,1.15.04,2.32-.16,3.46.17.1.03.22.01.32-.01.65-.16,1.28-.05,1.93.04,1.25.16,2.52.26,3.77.4.61.07,1.22.17,1.82.26.82.13,1.64.26,2.45.39.38.06.77.15,1.27.24-.12-.22-.16-.34-.24-.44-.81-1.03-1.52-2.13-2.04-3.33-.66-1.53-1.31-3.06-1.84-4.64-.39-1.16-.77-2.34-.9-3.57-.07-.65-.1-1.29.03-1.94.28-1.45.5-2.92.78-4.37.19-.96.59-1.84,1.11-2.69.29.31.02.74.38,1.05.19-.37.37-.71.58-1.12.12.31.23.54.29.78.17.7.28,1.41.48,2.1.18.6.24,1.2.21,1.82-.01.36,0,.72-.02,1.09-.04,1.2-.05,2.38.43,3.52.07.17.12.34.16.52.2.96.51,1.88,1.06,2.71.15.23.22.53.3.81.23.8.58,1.56,1.02,2.26.27.43.49.89.75,1.32.19.31.41.59.62.88.17.23.38.43.55.66.31.44.57.93.92,1.34.98,1.16,1.97,2.32,3.14,3.3,1.5,1.25,2.99,2.52,4.52,3.73,1.05.83,2.11,1.66,3.4,2.1.34.12.66.31.95.53.65.48,1.39.76,2.15,1.01.72.24,1.41.57,2.11.85,1.51.6,2.98,1.33,4.67,1.29.28,0,.57.09.85.17.97.29,1.93.63,2.91.87.79.2,1.5.52,2.15,1,.38.28.76.54,1.25.63.41.07.73.32.97.65.34.46.72.89.87,1.48.09.34.31.65.53.93.74.95,1.09,2.01,1.09,3.21,0,.39.09.8.23,1.16.17.42.21.84.21,1.27,0,1.38-.03,2.76.03,4.13.06,1.27-.16,2.52-.28,3.77-.11,1.14-.41,2.27-.67,3.39-.16.67-.41,1.31-1.01,1.75-.14.1-.24.27-.36.41-1.18,1.27-1.74,1.26-2.81.89-.1-.04-.2-.07-.31-.1-.53-.14-1.05-.15-1.6-.02-1.2.28-2.37.66-3.48,1.18-.46.22-.96.41-1.23.87-.36.62-.66,1.27-.94,1.93-.13.3.04.54.4.62.18.04.36.04.54.08.81.18,1.62.37,2.43.53.49.1.73-.02.96-.49.16-.32.28-.67.41-1,.41-1.04,1.06-1.89,1.96-2.55.11-.08.24-.17.37-.21.6-.14,1.2-.25,1.79-.41.51-.14,1,.08,1.24.62.13.29.2.62.23.94.06.65-.24,1.19-.63,1.69-.3.39-.68.71-.92,1.15.53.38,1.07.38,1.62.28.85-.16,1.7-.35,2.56-.5.75-.13,1.5-.23,2.16.32.03.03.13-.02.23-.04.04-.08.1-.17.14-.26.42-1.17.49-2.41.64-3.62.17-1.44.27-2.88.67-4.28.2-.69.31-1.41.45-2.12.18-.88.32-1.78.53-2.66.15-.63.36-1.25.35-1.91,0-.21.04-.45.13-.63.26-.5.32-1.02.31-1.57,0-.29.03-.58.11-.86.28-1.08.59-2.16.89-3.24.09-.31.23-.62.25-.94.05-.96.38-1.84.81-2.68.78-1.53,1-3.16.94-4.85-.02-.66-.25-1.18-.95-1.43-.94-.33-1.63-1.06-2.4-1.64-.67-.51-1.44-.8-2.16-1.17-.15-.08-.35-.05-.53-.05-1.33,0-2.26-.68-2.84-1.81-.28-.54-.48-1.15-.58-1.74-.28-1.68-.83-3.29-1.25-4.94-.07-.29-.12-.55-.05-.85.09-.35.1-.71.14-1.07.04-.32.03-.66.1-.97.19-.86.2-1.74.08-2.6-.13-.99-.06-1.96.08-2.92.13-.9.18-1.8.18-2.7,0-.58-.01-1.15.17-1.72.1-.33.06-.72,0-1.07-.27-1.6-.53-3.21-1.02-4.77-.14-.44-.3-.89-.51-1.3-.74-1.45-1.48-2.9-2.05-4.43-.29-.78-.63-1.54-.96-2.3-.22-.51-.54-.93-1.04-1.21-.27-.15-.52-.39-.71-.64-1.01-1.28-2-2.57-2.98-3.87-1.03-1.38-2.31-2.49-3.7-3.49-1.06-.76-2.15-1.47-3.25-2.18-1.77-1.14-3.6-2.16-5.57-2.92-.17-.07-.35-.17-.51-.16-.54.05-.98-.21-1.46-.37-.79-.27-1.58-.55-2.38-.74-.88-.2-1.77-.43-2.68-.19-.14.04-.29.04-.43.03-.72-.08-1.44-.14-2.15-.27-1.65-.29-3.3-.41-4.97-.3-.47.03-.94.03-1.41,0-1.37-.1-2.75-.05-4.12,0-1.27.05-2.53.1-3.8.15-.18,0-.37.02-.54,0-1.14-.19-2.23.08-3.33.31-.71.15-1.42.29-2.13.4-.97.14-1.94.25-2.91.34-1.41.13-2.8.4-4.22.34-.25-.01-.5.07-.74.12-.78.16-1.55.41-2.34.45-1.02.06-1.99.39-2.99.51-.1.01-.24.05-.3.12-.25.3-.56.26-.9.24-.36-.02-.72.01-1.09.04-1.16.08-2.31.17-3.46.25-.65.04-1.3.06-1.95.1-.41.02-.81.04-1.26-.37.51.06.86.13,1.21.14.15,0,.36-.02.31-.36-1.33.1-2.67.18-3.99.32-.45.05-.88.28-1.33.4-.31.09-.63.16-.96.19-1.19.09-2.38.15-3.57.24-.61.05-1.22.16-1.83.2-1.19.08-2.39.13-3.58.2-.32.02-.66.04-.96.14-1.4.46-2.78.15-4.23-.03-.1.57-.56.54-1.01.56-1.37.06-2.75.04-4.09.41-.24.07-.5.04-.76.04-1.16-.03-2.32-.07-3.47-.08-.29,0-.67-.04-.84.11-.54.51-1.14.35-1.74.28-.36-.04-.72-.08-1.08-.07-.83.03-1.66.09-2.48.12-.36.01-.72-.02-1.08-.04-.69-.04-1.37-.1-2.06-.11-.83,0-1.66-.05-2.49-.15-.92-.11-1.84-.48-2.79-.15-.06.02-.15.01-.21-.02-.83-.36-1.72-.15-2.57-.17-.72-.02-1.44.02-2.15-.15-.56-.14-1.13-.28-1.7-.37-.64-.1-1.31-.32-1.92-.19-.76.15-1.5-.13-2.24.09-1.35-.19-2.72-.32-4.06-.58-1.06-.21-2.08-.58-3.12-.87-1.32-.37-2.65-.73-3.85-1.43.13-.01.26-.02.44-.04-.16-.42-.48-.39-.77-.41-.02,0-.06.17-.08.26-1.01.17-1.9-.05-2.79-.6-1.01-.62-2.11-1.14-3.21-1.58-1.93-.78-3.91-1.47-5.94-2.23.07.35.12.61.17.91-.2.04-.33.09-.47.1-.42,0-.77-.18-1.09-.43-1.04-.79-2.09-1.56-3.12-2.36-1.03-.81-1.97-1.71-2.6-2.88-.24-.44-.58-.83-.86-1.25-.24-.36-.53-.71-.68-1.11-.48-1.28-.91-2.59-1.36-3.89-.04-.12-.08-.24-.18-.51-.23.41-.38.68-.54.94-.16.28-.32.57-.51.83-.19.26-.42.49-.63.74-.07.08-.09.2-.14.29-.07.13-.11.28-.21.38-.41.43-.63.96-.83,1.51-.13.34-.35.61-.59.89-.37.43-.79.82-1.1,1.32-.52.83-1.18,1.56-1.71,2.38-.47.72-1.12,1.34-1.23,2.24-.63.25-1.04.69-1.3,1.28-.12.27-.28.5-.56.63-.73.35-1.32.9-1.78,1.54-.36.49-.8.85-1.35,1.03-.58.19-1.03.54-1.37,1.02-.18.25-.4.4-.66.53-.85.42-1.57,1.03-2.29,1.64-.14.12-.24.3-.4.35-.44.13-.72.47-1.05.76-.97.87-1.98,1.69-3.19,2.22-.45.2-.92.38-1.36.57.13.69.05,1.26-.39,1.77-.34.39-.41.88-.47,1.46.17-.1.29-.12.34-.19.23-.32.45-.65.67-.98.43-.64,1.01-1.12,1.66-1.52.51.03.77-.33,1.05-.66.35-.41.72-.81,1.1-1.2.11-.11.27-.17.49-.31.02.24.08.41.03.51-.29.49-.55,1.03-.94,1.42-.75.74-1.31,1.62-1.92,2.46-.02.03.02.12.05.23.39-.22.65-.72,1.26-.55-.08.2-.12.41-.24.57-.36.46-.76.88-1.11,1.33-.17.22-.39.49-.4.74-.02.41-.21.67-.44.95-.51.61-1.07,1.19-1.5,1.85-.93,1.42-1.82,2.88-2.48,4.46-.11.27-.24.53-.4.77-.48.73-.85,1.51-1.19,2.31-.21.5-.47.98-.72,1.46-.09.17-.21.32-.38.55-.05-.45-.14-.74-.48-.9-.25-.12-.45-.32-.67-.49-.34.17-.47.47-.64.74-.13.21-.28.42-.43.62-.02.03-.11,0-.23-.01.08-.32.15-.62.21-.88-.1-.15-.16-.24-.23-.33-.77-1.01-1.03-2.13-.72-3.37.11-.46.19-.92.3-1.38.4-1.69.92-3.34,1.77-4.87.39-.7.74-1.41.93-2.19.13-.54.39-1,.8-1.39.63-.6,1.25-1.21,1.87-1.81.21-.2.43-.4.6-.62.26-.34.09-.76-.33-.79-.53-.04-1.07,0-1.69,0-.07-.08-.19-.21-.31-.34-.43-.43-.67-.42-1.12.05-.05.05-.09.14-.14.15-.28.01-.57.04-.85-.01-.26-.05-.58,0-.7-.39-.08-.26-.3-.29-.51-.1-.15.13-.31.14-.5.11-.39-.05-.79-.07-1.18-.11-.25-.02-.51-.03-.75-.1-1.06-.35-2-.97-3.04-1.38-.26-.1-.47-.33-.68-.53-.24-.22-.46-.46-.68-.7-.21-.23-.4-.48-.71-.85.07.76.15,1.37.16,1.97.02,1.34.15,2.67.34,3.98.19,1.36.21,2.74.58,4.07.03.1.03.22.03.32.06,1.63-.06,3.25-.22,4.87-.08.85-.23,1.71-.14,2.57.02.21,0,.43-.02.64-.08.68-.29,1.37-.24,2.04.09,1.05-.15,2.02-.52,2.96-.22.55-.33,1.1-.37,1.67-.06.98-.24,1.93-.65,2.87.25.46.51.94.76,1.42.61,1.15,1.23,2.29,2.08,3.29.24.28.45.57.54.92.12.43.36.78.61,1.14.29.41.54.86.82,1.28.38.57.7,1.21,1.19,1.67.49.45.9.92,1.22,1.48.51.89,1.21,1.61,2.08,2.16.24.15.49.32.7.52.93.9,1.95,1.71,2.91,2.58.99.9,2.05,1.72,3.11,2.53.6.46,1.13,1.01,1.69,1.52.27.86.98,1.21,1.72,1.53.41.17.77.41,1.03.78.53.77,1.33,1.21,2.12,1.65.51.28,1,.56,1.45.93.53.43,1.09.81,1.82.9.38.05.81.2,1.09.45.6.55,1.35.77,2.14,1.15-.25-1-.58-1.85-1.12-2.63-.28-.42-.52-.87-.77-1.3-.07-.12-.12-.26-.2-.38-1.04-1.4-1.84-2.94-2.58-4.51-.34-.73-.38-1.39-.22-2.36.27,0,.57-.05.84.01.43.1.83.14,1.27,0,.48-.15.94.04,1.31.36.51.45,1.06.86,1.43,1.46.22.36.56.65.85.98.36.41.79.77,1.05,1.23.26.45.58.82.92,1.2.84.96,1.51,2.02,1.92,3.25.43,1.3.77,2.64,1.46,3.84.09.16.12.31.08.51-.11.54-.09.54.53.89.14.7.3,1.44.44,2.18.18.96.46,1.9.9,2.77.54,1.05.79,2.16.85,3.33.03.54-.11,1.12.05,1.61.28.86.1,1.64-.16,2.44-.17.52-.37,1.02-.33,1.58.04.55-.19.98-.59,1.34-.43.38-.89.74-1.28,1.16-.35.37-.64.78-1.25.67-.11-.02-.27.09-.38.18-.34.27-.73.27-1.13.3-.94.07-1.88-.18-2.81.05-.95-.22-1.87.06-2.8.17-1.27.15-2.48.51-3.59,1.14-.93.53-1.52,1.31-1.61,2.42-.03.36-.13.71-.18,1.07-.01.1.02.2.04.3q.49.14.94.03c.06-.16.12-.33.19-.5.29-.82.76-1.47,1.59-1.83.26-.11.47-.33.7-.5.75-.57,1.47-1.17,2.4-1.41.13.04.23.07.33.1,1.19.36,1.37.66,1.15,1.88-.03.18-.08.36-.16.52-.24.52-.5,1.04-.75,1.56-.17.34-.45.63-.53,1.07.48.09.9.19,1.32.26.39.06.7-.08.93-.42.95-1.47,2.4-2.38,3.82-3.32.28-.19.67-.06.81.27.12.29.19.61.27.86-.34.45-.65.81-.9,1.2-.27.41-.76.66-.89,1.25.18.05.32.13.44.11.68-.1,1.36-.18,2.03-.36.87-.23,1.71-.57,2.58-.81,1.56-.43,2.53-1.47,3.15-2.9.37-.86.68-1.75,1.01-2.63.16-.44.31-.87.74-1.16.18-.12.28-.42.33-.65.17-.74.32-1.48.42-2.23.12-.82.18-1.65.27-2.48.12-1.11.25-2.23.38-3.34.15-1.26.33-2.51,1.17-3.55.22-.27.36-.63.45-.97.32-1.18.61-2.37.91-3.56.17-.67.36-1.33.49-2,.24-1.31.47-2.63.63-3.96.09-.75.07-1.52.04-2.27-.02-.5-.16-.99-.56-1.37-.32-.31-.45-.73-.52-1.17-.12-.71-.3-1.41-.39-2.13-.1-.75-.36-1.49-.18-2.26.24-1.02.55-2.01.96-3.01.26,0,.51.02.76,0,.28-.03.55-.11.78-.15.53.19.44.77.77,1.05.5.03.9.26,1.25.6.59.59,1.18,1.18,1.58,1.93.19.35.3.73.51,1.07.52.89.79,1.85.93,2.86.04.29.04.59.13.85.15.46.16.92.14,1.39-.05,1.13-.29,2.21-.65,3.28-.11.34-.21.7-.24,1.05-.04.47,0,.94-.03,1.41-.03.5-.11.99-.17,1.46.32.29.66.21.96.12.61-.18,1.22-.13,1.83-.14.47,0,.94,0,1.41-.04.87-.08,1.74-.03,2.6.14.54.11,1.07.17,1.61,0,.16-.05.38-.08.52-.02.91.45,1.91.41,2.87.47.87.06,1.73.07,2.48.48.23-.08.41-.12.57-.2.76-.39,1.57-.5,2.42-.48.98.02,1.96,0,2.93-.06,1.55-.09,3.11-.16,4.65-.34.97-.11,1.97-.08,2.88-.47.78-.33,1.61-.47,2.42-.53,1.63-.11,3.23-.39,4.82-.72.74-.15,1.5-.24,2.24-.39,2.06-.42,4.05-1.09,6.12-1.48.6-.11,1.17-.36,1.76-.55.21-.06.41-.12.62-.18.42-.11.85-.17,1.25-.34.94-.4,1.94-.54,2.92-.76.84-.19,1.69-.39,2.53-.61.59-.16,1.18-.35,1.76-.53.57-.18,1.25-.04,1.71-.56.06-.06.21-.04.31-.06.39-.08.79-.12,1.16-.25.67-.24,1.42-.28,2.02-.7l-.03.03c.55.13.99-.12,1.45-.37l-.02.03c.96-.05,1.87-.35,2.76-.68.17-.06.32-.16.26-.37.07,0,.14,0,.21,0-.07,0-.13,0-.2.01-.22.07-.44.14-.66.21ZM46.28,45.07c.34-1.18.64-2.25.96-3.32.34-1.14.54-2.33,1.28-3.31.1-.14.18-.33.19-.5.03-.51.32-.86.63-1.22.37-.44.77-.87.74-1.52,0-.15.12-.32.22-.46.45-.63,1.17-1.06,1.43-1.83.02-.06.12-.08.17-.13.86-.83,1.71-1.66,2.21-2.79.09-.21.31-.42.53-.51.44-.17.67-.51.94-.86.44-.57.52-1.36,1.17-1.78.03-.02.03-.06.04-.1.32-.87.6-1.76.97-2.61.42-.96.63-2.01,1.27-2.87.12-.16.15-.4.18-.61.13-1,.25-2.01.37-3.01.07-.58.15-1.14.41-1.68.1-.2.06-.5.01-.73-.2-.99-.43-1.98-.63-2.97-.13-.63.06-.96.66-1.14.34-.1.69-.16,1-.24.63.61,1.27,1.59,1.69,2.56.29.68.46,1.37.39,2.11-.05.51.02,1,.15,1.5.27,1.06.48,2.15.26,3.22-.31,1.56-.53,3.14-1.06,4.64-.4,1.12-.68,2.31-1.31,3.32-.5.8-.94,1.63-1.37,2.46-.85,1.63-2.01,3.09-2.82,4.75-.05.1-.13.18-.19.27-.52.78-1.1,1.53-1.37,2.46-.05.17-.15.34-.27.47-.37.42-.56.92-.74,1.43-.09.24-.18.47-.3.7-.73,1.38-1.09,2.9-1.59,4.37-.15.44-.26.9-.39,1.35-.09.31-.2.62-.27.94-.2,1.03-.4,2.05-.57,3.08-.14.85-.28,1.71-.33,2.57-.06.9,0,1.81-.02,2.71-.02,1.13.06,2.24.61,3.27.13.25.21.54.27.82.3,1.4,1.05,2.43,2.38,3.01.7.3,1.42.53,2.18.65,1.68.27,3.32.02,4.96-.28.07-.01.15-.02.21-.05.92-.44,1.93-.53,2.88-.86.62-.21,1.21-.45,1.75-.83.68-.48,1.37-.95,2.08-1.37.44-.26.87-.52,1.22-.9.35-.38.73-.7,1.22-.89.13-.05.27-.12.37-.22,1.02-.97,2.18-1.76,3.13-2.81,1.06-1.16,1.92-2.45,2.79-3.73.26-.39.54-.76.83-1.13.18-.23.41-.42.59-.64,1.15-1.44,2.31-2.88,3.24-4.48.58-1,1.23-1.96,1.76-2.99.62-1.17,1.35-2.3,1.4-3.71.04-1.04.35-2.07.29-3.13-.02-.41-.11-.76-.36-1.11-.34-.46-.71-.95-.86-1.48-.45-1.61-1.29-3.07-1.84-4.63-.07-.2-.19-.39-.32-.56-.74-.99-1.35-2.05-1.61-3.28-.04-.21-.16-.4-.25-.59-.17-.36-.34-.72-.51-1.08-.94-1.96-1.86-3.92-2.81-5.88-.19-.39-.45-.74-.71-1.09-.39-.53-.71-1.09-.92-1.72-.34-1.03-.69-2.06-1.01-3.09-.1-.34-.12-.71-.16-1.06,0-.04.09-.09.14-.13.14.14.17.43.5.33.01-.09.06-.21.03-.3-.26-.87-.85-1.5-1.52-2.07-.13-.11-.33-.16-.5-.19-.62-.1-1.18-.34-1.69-.71-.17-.13-.37-.27-.57-.3-.53-.09-.91-.43-1.32-.71-.39-.27-.77-.54-1.13-.84-.5-.42-1.07-.6-1.7-.65-1.04-.08-2.07-.34-3.13-.28-.18.01-.36-.04-.54-.06-.61-.05-1.22-.12-1.83-.15-.76-.04-1.53.04-2.27-.08-.72-.12-1.42-.23-2.15-.2-.14,0-.29,0-.43-.05-1.21-.38-2.41-.24-3.61.08-.38.1-.78.16-1.16.26-1.05.27-2.1.53-3.15.83-1.08.31-2.14.66-3.21.99-.24.07-.51.07-.73.17-1.08.51-2.2.94-3.19,1.63-.24.16-.48.34-.75.43-.74.26-1.35.7-1.94,1.19-.34.28-.71.49-1.15.58-.18.03-.35.09-.52.15-.71.27-1.27.69-1.4,1.51-.03.21-.12.43-.25.59-.46.6-.9,1.24-1.43,1.77-.97.97-2.01,1.88-3.02,2.82-.62.57-1.3,1.04-2.07,1.38-.36.16-.69.4-1.04.58-.61.32-1.2.7-1.85.9-.62.19-1.27.25-1.71.82-.08.1-.25.14-.38.19-1.07.43-2.18.76-3.19,1.33-.72.4-1.5.71-2.24,1.08-.74.37-1.47.76-2.19,1.17-.94.53-1.93.97-2.8,1.62-.49.37-1.06.62-1.68.73-.25.04-.51.09-.72.21-.62.35-1.23.74-1.88,1.13.69.22,1.37.34,1.92.79.12.1.34.07.51.09.17.03.34.05.61.09-.27.46,0,.65.31.8.22.11.46.18.62.23.49,1,.27,1.99.32,2.96,0,.17-.07.36-.16.51-.44.7-.97,1.33-1.45,2-.5.71-1.26,1.18-2.09,1.5-.27.1-.54.21-.79.35-.24.13-.31.41-.17.66.32.55.76.95,1.35,1.21.96.42,1.96.71,2.86,1.28.65.41,1.39.61,2.18.47.39-.07.79-.09,1.17-.17.27-.05.5-.03.72.13.18.13.34.27.52.39.05.04.14.03.22.04.16-.12.33-.24.49-.36.66.14,1.32.18,1.91.42.68.27,1.27.13,1.89-.08.48-.17.94-.4,1.42-.52.51-.13.95-.57,1.55-.35.09.03.25-.12.37-.19.16-.08.32-.23.48-.23,1.03-.01,1.9-.52,2.74-.97,1.79-.97,3.79-1.38,5.64-2.16.75-.32,1.53-.67,2.4-.51.16.03.34-.1.52-.13.18-.04.36-.07.54-.06,1.31.01,2.6.19,3.87.44.21.04.42.11.62.2.57.28.69.74.31,1.24-.3.4-.66.76-.92,1.06-.83.22-1.57.42-2.3.6-.28.07-.57.13-.85.13-.7-.02-1.37.15-2.01.4-.88.34-1.75.7-2.62,1.04-.5.19-1.01.36-1.53.54.17.4.5.34.76.32,1.81-.15,3.61-.06,5.42.04,1.46.08,2.85.46,4.27.68.82.12,1.72.4,2.05,1.39.05.14.26.26.42.32.6.22,1.24.31,1.82.81ZM269.33,44.17c0,.87-.33,1.53-.9,2.09-.25.25-.42.58-.64.87-.11.14-.21.31-.35.4-.68.48-1.26,1.05-1.85,1.64-.94.95-1.95,1.83-2.97,2.7-1.29,1.1-2.63,2.15-3.94,3.23-.36.3-.75.56-1.11.87-.96.83-2,1.55-3.19,2.03-.33.13-.63.34-.94.53-.59.35-1.18.7-1.78,1.04-.6.34-1.19.69-1.8,1-1.03.53-2.06,1.04-3.1,1.55-.58.28-1.19.52-1.77.81-.52.25-1.06.43-1.63.56-.86.2-1.72.22-2.58.25-.12,0-.24.07-.45.15,1.01.96,1.93,1.85,3,2.55.35-.16.64-.31.93-.44.73-.33,1.43-.68,2.01-1.26.22-.23.53-.39.82-.52,1.2-.51,2.35-1.09,3.33-1.98.21-.19.47-.34.72-.49,1.02-.61,2.06-1.21,3.08-1.83.37-.22.71-.49,1.06-.75.47-.34.89-.78,1.4-1.02.96-.47,1.78-1.11,2.58-1.78,1.05-.89,2.06-1.83,3.13-2.68,1.54-1.23,2.71-2.8,3.95-4.3.37-.44.75-.88,1.12-1.32.26-.3.53-.59.77-.91.5-.66.96-1.36,1.49-2,.55-.66.85-1.52,1.59-2.02.07-.05.08-.2.12-.29.13-.3.25-.6.4-.88.24-.44.51-.86.75-1.3.1-.19.27-.41-.05-.64-.58.9-1.22,1.76-1.72,2.71-.32.61-.64,1.22-1.49,1.45ZM77.31,137.41c1.32-.08,2.45-.31,3.32-1.29.3-.34.55-.64.55-1.12,0-.32.08-.64.12-.96.13-1.12.22-2.22-.26-3.3-.28-.62-.43-1.3-.65-1.95-.08-.24-.16-.48-.27-.7-.14-.28-.56-.29-.71-.03-.09.15-.14.33-.19.5-.26,1.01-.51,2.03-.76,3.04-.31,1.3-.65,2.59-.91,3.9-.12.59-.34,1.17-.24,1.91ZM212.37,140.26c.08-.28.13-.41.15-.55.16-.87.44-1.67,1.22-2.2.04-.02-.01-.17-.02-.28-1.35.55-2.56,1.74-3.03,3,.55.47,1.08-.1,1.68.03ZM277.51,18.68c-.72,1.05-.69,2.32-1.21,3.42-.06.12-.03.27-.04.41,0,.03.04.06.14.19.29-.5.35-1.14.89-1.34.08-.94.15-1.81.22-2.68ZM4.42,32.38c.44.2.75.03,1.05-.14.1-.05.19-.25.16-.36-.04-.2-.21-.11-.33-.04-.3.17-.6.35-.89.53ZM7.23,31.25q.55-.28.54-.83c-.21.32-.36.55-.54.83ZM6.98,31.65c-.41.2-.61.3-.81.41-.04.02-.03.12-.05.22.38.05.55-.18.86-.63ZM40.6,59.96c.18-.18.37-.37.6-.59q-.57,0-.6.59ZM51.23,106.74s-.05.05-.06.08c-.05.21.09.49.25.51.03,0,.07-.02.08-.04.09-.13,0-.39-.19-.53-.02-.02-.05-.02-.08-.03ZM137.83,121.47c.05-.08.1-.15.15-.23,0,0-.06-.07-.07-.06-.08.04-.16.09-.25.14.04.04.09.08.17.16ZM279.43,23.82s-.05,0-.07,0v.45s.05,0,.07,0v-.45ZM97.36,105.47c.03-.06.08-.11.08-.17,0-.06-.05-.11-.07-.17-.04.07-.1.13-.11.2,0,.04.06.09.1.14ZM224.76,121.92c.06-.03.12-.05.17-.08-.05-.04-.1-.11-.14-.11-.07,0-.14.06-.2.09.06.03.11.06.17.09ZM85.27,132.55c-.03-.06-.05-.12-.08-.18-.03.05-.09.11-.09.16,0,.06.04.12.07.18.03-.05.07-.11.1-.16ZM208.01,111.05c.06-.03.12-.06.18-.08-.05-.04-.1-.12-.14-.11-.08.01-.14.07-.22.11.06.03.12.06.18.09ZM219.51,139.28s.13-.06.14-.11c.02-.05-.02-.13-.03-.19-.07.05-.14.1-.19.16-.01.01.05.09.08.14ZM224.12,130.5s-.05.02-.08.03c.03.01.07.03.1.04,0-.02-.01-.04-.02-.07ZM161.85,58.52s-.05-.02-.08-.02c0,0-.02.04-.02.06.03,0,.05.02.08.02.01,0,.02-.04.02-.06Z"/>
  <path class="cls-1" d="M145.77,121.29c-.15.21-.33.25-.65.04.3,0,.49-.01.68-.02,0,0-.03-.03-.03-.03Z"/>
  <path class="cls-1" d="M103.51,64.5c.15-.31.26-.53.37-.76.41-.1.82-.2,1.24-.3.22-.06.44-.06.6.12.24.25.46.19.77.1.39-.12.74.18.85.52.18.52.55.72,1.01.88.23.08.47.21.64.39.93.96,1.89,1.91,2.25,3.26,0,.03.03.07.05.1.43.69.58,1.46.68,2.25.12.89.05,1.8.27,2.69.07.27.06.6-.04.86-.16.46-.13.93-.14,1.39,0,.22,0,.44-.07.65-.32,1.03-.66,2.05-.99,3.08-.1.31-.18.62-.24.94-.08.44-.24.82-.55,1.13-.13-.02-.23-.04-.38-.07-.35,1.47-.8,2.92-1.67,4.24-.42-.18-.13-.74-.55-.9-.46.04-.24.59-.54.79-.13-.11-.25-.23-.43-.39-.27.42-.53.84-.79,1.25-.25-.03-.18-.2-.17-.32.05-.36.13-.71.18-1.06.05-.43.16-.87.11-1.3-.11-.96.13-1.87.32-2.78.34-1.56.51-3.13.65-4.72.18-2.05-.18-4.04-.7-6.01-.32-1.24-.81-2.38-1.51-3.46-.53-.81-.86-1.74-1.26-2.57Z"/>
  <path class="cls-1" d="M65.72,69.4c-.06-.11-.08-.17-.11-.23.12-.06.24-.12.36-.17,0,0,.09.15.08.16-.1.09-.21.16-.33.23Z"/>
  <path class="cls-1" d="M69.52,67.12c-.06-.07-.1-.12-.09-.13.09-.08.19-.16.29-.24,0,0,.07.06.06.07-.08.1-.17.19-.26.3Z"/>
  <path class="cls-1" d="M160.17,112.28c.06.1.12.19.19.29,0,0,.03-.03.03-.03-.15,0-.3,0-.55,0,.16-.13.24-.2.33-.28v.02Z"/>
  <path class="cls-1" d="M161.72,111.78c.26-.03.51-.05.77-.08l-.02-.03c-.2.39-.49.09-.74.09h0Z"/>
  <path class="cls-1" d="M164.15,111.39c-.14,0-.28.02-.44.03.16-.2.3-.07.45-.02,0,0-.01,0-.01,0Z"/>
  <path class="cls-1" d="M160.17,112.26s.09.03.13.04c-.02-.01-.04-.04-.06-.04-.03,0-.05.01-.08.02,0,0,0-.02,0-.02Z"/>
  <path class="cls-1" d="M109.62,61.68c.14.12.41-.03.47.24-.16-.08-.32-.16-.47-.24Z"/>
  <path class="cls-1" d="M162.49,111.71c.03-.05.05-.14.09-.15.08-.02.17,0,.25.02,0,0,.01.07,0,.07-.06.03-.12.06-.18.07-.06,0-.13-.02-.19-.03,0,0,.02.03.02.03Z"/>
  <path class="cls-1" d="M161.72,111.78c.02.15.04.3.06.44,0,0,.02-.03.02-.03-.24-.09.02-.29-.08-.41,0,0,0,0,0,0Z"/>
  <path class="cls-1" d="M47.54,18.38c-.07-.09-.17-.31-.34-.43-.42-.32-.67-.73-.83-1.23-.13-.41-.32-.81-.55-1.17-.17-.27-.41-.5-.67-.69-.37-.27-.79-.49-1.19-.73-.15.65-.15.82.24,1.39.27.4.44.83.54,1.29.17.79-.45,1.72-1.22,1.87-.35.07-.71.15-1.06.22-.72.13-1.43.22-2.12-.13-.08-.04-.21,0-.38,0-.05.24-.08.48-.15.72-.31,1.17-1.14,1.49-2.12.8-.29-.2-.54-.48-.75-.77-.38-.53-.73-1.08-1.07-1.63-.34-.55-.12-1.11.21-1.51.42-.52.95-.98,1.6-1.26.06-.03.14,0,.23,0,.11.13.22.26.34.4.39-.19.51-.45.34-.88-.22-.53-.4-1.09-.57-1.64-.21-.67.01-1.32.59-1.69.17-.11.41-.17.61-.14,1.04.12,2.1-.09,3.13.14.21.05.45.06.65,0,.82-.22,1.64,0,2.46-.01.67,0,1.19.26,1.5.88.08.16.16.34.3.45.72.53,1.12,1.33,1.62,2.02.74,1.03.7,2.17.28,3.31-.13.36-.43.58-.85.54-.22-.02-.43-.05-.79-.08ZM43.47,14.55c-.02-.06-.04-.11-.06-.17-.02.02-.07.05-.07.07,0,.06.03.11.05.17.02-.02.05-.04.07-.06Z"/>
  <path class="cls-1" d="M77.88,26.14c.17.13.25.19.38.29.13-.5.26-.98.4-1.53.24.15.48.24.64.41.71.77,1.39,1.54,1.69,2.61.32,1.12.51,2.24.62,3.4.17,1.81.19,3.62.21,5.43,0,.25,0,.51.06.75.28,1.09.16,2.15-.13,3.22-.2.73-.42,1.46-.59,2.19-.2.83-.66,1.52-1.08,2.24-.04.06-.07.15-.12.17-.68.33-.9,1.01-1.25,1.6-.48.82-1.06,1.55-2,2-.2-.27-.04-.59-.16-.83-.57-.28-.7-.45-.58-.96.12-.53.29-1.04.48-1.55.45-1.26.96-2.5,1.38-3.77.49-1.48.78-3,.72-4.58-.04-.94-.01-1.88.02-2.83.06-1.68-.21-3.31-.57-4.94-.1-.46-.19-.92-.28-1.38-.13-.62.06-1.21.16-1.94ZM80.41,29.44v-.46s0,0-.01,0v.46c.36.93.2,1.94.43,2.89.03-.65.05-1.3.02-1.95-.01-.36-.11-.71-.44-.94Z"/>
</svg>