<?xml version="1.0" encoding="UTF-8"?>
<svg id="Layer_1" data-name="Layer 1" xmlns="http://www.w3.org/2000/svg" viewBox="0 0 285.94 154.81">
  <defs>
    <style>
      .cls-1 {
        fill: #fff;
      }
    </style>
  </defs>
  <g>
    <g>
      <path class="cls-1" d="M48.5,38.83c.03-.52.33-.88.65-1.25.38-.45.79-.9.76-1.56,0-.16.12-.33.23-.47.46-.65,1.19-1.08,1.47-1.88.02-.06.12-.09.17-.14.88-.85,1.76-1.7,2.27-2.86.09-.22.32-.43.54-.52.45-.18.69-.52.97-.88.45-.58.54-1.39,1.2-1.83.03-.02.03-.07.05-.1.33-.89.61-1.81,1-2.68.43-.98.65-2.06,1.3-2.94.12-.16.16-.41.19-.62.13-1.03.26-2.06.37-3.09.07-.59.15-1.17.42-1.72.1-.21.06-.51.01-.75-.2-1.02-.44-2.03-.65-3.05-.13-.64.06-.99.68-1.17.35-.1.71-.17,1.03-.24.65.62,1.3,1.63,1.73,2.62.3.69.47,1.41.4,2.17-.05.52.02,1.03.15,1.54.28,1.08.49,2.21.27,3.31-.32,1.6-.54,3.22-1.09,4.76-.41,1.15-.69,2.36-1.34,3.41-.51.82-.96,1.67-1.41,2.52-.87,1.68-2.06,3.17-2.89,4.87-.05.1-.13.18-.19.27-.53.8-1.13,1.57-1.41,2.52-.05.17-.16.34-.28.48-.38.43-.57.94-.76,1.46-.09.24-.19.48-.31.71-.75,1.42-1.12,2.97-1.63,4.48-.15.45-.26.92-.39,1.38-.09.32-.21.63-.27.96-.21,1.05-.41,2.1-.58,3.16-.14.88-.28,1.76-.34,2.64-.06.92,0,1.86-.02,2.78-.02,1.16.06,2.3.62,3.35.14.26.22.55.28.84.3,1.43,1.07,2.49,2.44,3.08.72.31,1.45.54,2.23.66,1.72.28,3.4.02,5.08-.28.07-.01.15-.02.22-.05.94-.45,1.98-.54,2.96-.88.64-.22,1.24-.46,1.8-.85.7-.49,1.4-.98,2.14-1.41.45-.27.89-.53,1.25-.92.35-.39.75-.72,1.25-.91.14-.05.28-.12.38-.22,1.05-.99,2.23-1.81,3.21-2.89,1.09-1.19,1.96-2.51,2.87-3.83.27-.4.56-.78.86-1.16.18-.23.42-.43.6-.66,1.18-1.48,2.37-2.95,3.32-4.6.59-1.03,1.26-2.01,1.81-3.06.63-1.2,1.39-2.36,1.44-3.81.04-1.07.36-2.12.3-3.21-.02-.42-.11-.78-.37-1.13-.35-.47-.73-.97-.88-1.52-.46-1.66-1.32-3.15-1.89-4.75-.07-.2-.19-.4-.32-.57-.76-1.02-1.39-2.1-1.66-3.36-.04-.21-.17-.41-.26-.61-.17-.37-.35-.74-.52-1.11-.96-2.01-1.91-4.02-2.89-6.03-.19-.4-.46-.76-.73-1.12-.4-.54-.73-1.12-.94-1.76-.34-1.06-.71-2.11-1.03-3.17-.11-.35-.12-.73-.16-1.09,0-.04.09-.09.15-.14.14.14.17.44.51.34.01-.09.06-.21.03-.31-.26-.89-.87-1.54-1.56-2.12-.13-.11-.33-.17-.51-.2-.64-.1-1.21-.35-1.73-.73-.18-.13-.38-.27-.59-.31-.54-.09-.93-.44-1.35-.73-.4-.28-.79-.56-1.16-.87-.51-.43-1.1-.61-1.74-.66-1.07-.08-2.13-.35-3.21-.28-.18.01-.37-.04-.55-.06-.63-.05-1.25-.12-1.88-.15-.78-.04-1.57.04-2.33-.08-.73-.12-1.45-.24-2.2-.2-.15,0-.3,0-.44-.05-1.24-.39-2.47-.25-3.7.08-.39.1-.8.17-1.19.27-1.08.28-2.16.55-3.23.85-1.1.32-2.19.68-3.29,1.01-.25.07-.52.07-.75.18-1.11.52-2.25.97-3.27,1.67-.24.17-.49.35-.77.44-.75.26-1.38.72-1.99,1.22-.35.29-.73.5-1.18.59-.18.04-.36.09-.53.16-.73.28-1.3.7-1.44,1.54-.04.21-.13.44-.25.61-.47.62-.92,1.27-1.47,1.82-1,1-2.06,1.93-3.1,2.89-.63.58-1.33,1.06-2.12,1.42-.37.17-.7.41-1.07.6-.62.32-1.23.71-1.89.92-.64.2-1.31.26-1.75.84-.08.1-.25.14-.39.2-1.1.44-2.23.78-3.27,1.36-.74.41-1.54.72-2.3,1.11-.76.38-1.51.78-2.25,1.2-.96.54-1.98.99-2.87,1.67-.5.38-1.09.63-1.73.75-.25.05-.52.09-.74.21-.64.36-1.26.76-1.92,1.16.71.22,1.4.35,1.97.81.12.1.34.07.52.1.17.03.35.05.62.09-.28.47,0,.67.32.82.23.11.47.18.64.24.5,1.02.28,2.04.33,3.04,0,.17-.07.37-.16.52-.45.72-1,1.37-1.48,2.06-.52.73-1.3,1.21-2.15,1.54-.28.11-.55.22-.81.36-.25.14-.32.42-.17.68.33.56.78.97,1.38,1.24.98.43,2.01.72,2.93,1.31.66.42,1.42.63,2.24.48.4-.07.81-.09,1.2-.17.27-.05.52-.03.74.13.18.13.35.28.53.4.05.04.14.03.23.04.16-.12.34-.25.5-.36.67.14,1.36.19,1.96.43.7.28,1.31.14,1.94-.09.49-.17.96-.41,1.46-.54.52-.14.97-.58,1.59-.36.09.03.25-.13.38-.19.16-.09.33-.24.49-.24,1.05-.01,1.95-.53,2.81-1,1.84-1,3.88-1.41,5.78-2.22.77-.32,1.57-.68,2.46-.53.16.03.35-.1.53-.14.18-.04.37-.07.55-.07,1.34.01,2.66.2,3.97.46.22.04.43.11.63.21.59.29.71.76.32,1.27-.31.41-.67.78-.94,1.09-.86.22-1.61.43-2.36.61-.29.07-.58.14-.88.13-.72-.02-1.4.15-2.06.41-.9.34-1.79.72-2.69,1.06-.51.2-1.04.37-1.57.55.18.41.51.35.78.33,1.85-.15,3.7-.06,5.56.04,1.5.08,2.92.48,4.38.69.84.13,1.76.41,2.1,1.43.05.14.27.27.43.33.61.22,1.27.32,1.87.83.35-1.21.66-2.31.99-3.4.35-1.17.55-2.39,1.31-3.4.11-.14.18-.34.19-.51ZM76.97,46.66c.46-1.29.98-2.56,1.41-3.87.5-1.52.8-3.08.74-4.7-.04-.96-.01-1.93.02-2.9.06-1.72-.22-3.4-.58-5.07-.1-.47-.19-.95-.29-1.42-.14-.64.06-1.24.16-1.99.18.13.26.2.39.3.14-.51.26-1,.41-1.57.25.15.49.25.66.42.73.79,1.43,1.58,1.73,2.68.32,1.15.53,2.3.64,3.49.17,1.85.2,3.71.22,5.56,0,.26,0,.53.07.77.29,1.12.16,2.21-.13,3.3-.2.75-.43,1.49-.61,2.25-.21.85-.67,1.56-1.11,2.3-.04.06-.07.15-.13.18-.7.34-.93,1.03-1.28,1.64-.49.85-1.08,1.59-2.05,2.06-.2-.28-.04-.6-.17-.85-.59-.29-.72-.46-.59-.99.13-.54.3-1.07.49-1.59ZM47.31,18.76c-.07-.1-.18-.31-.35-.44-.43-.33-.69-.75-.85-1.26-.13-.42-.33-.83-.56-1.2-.17-.27-.43-.52-.69-.71-.38-.28-.81-.5-1.22-.75-.15.67-.15.84.25,1.42.28.41.45.85.55,1.32.17.81-.46,1.76-1.25,1.92-.36.07-.73.15-1.09.22-.74.13-1.47.22-2.18-.14-.09-.04-.21,0-.39,0-.05.25-.09.5-.15.73-.32,1.21-1.17,1.53-2.17.82-.3-.21-.56-.49-.77-.79-.39-.54-.75-1.1-1.1-1.67-.35-.56-.12-1.13.22-1.55.44-.54.98-1.01,1.64-1.29.06-.03.14,0,.23,0,.11.13.23.27.35.41.4-.2.53-.46.35-.9-.22-.55-.41-1.11-.58-1.68-.21-.68.01-1.35.61-1.73.17-.11.43-.17.63-.15,1.07.12,2.15-.09,3.21.14.21.05.46.06.66,0,.84-.22,1.69,0,2.53-.01.69,0,1.22.27,1.54.9.08.16.17.35.31.46.74.55,1.14,1.36,1.66,2.07.76,1.05.72,2.23.29,3.4-.14.37-.44.59-.87.55-.22-.02-.44-.05-.81-.09Z"/>
      <path class="cls-1" d="M153.15,122.77c-.34-.13-.66.04-.99.06.34.15.68.22.99-.06Z"/>
      <path class="cls-1" d="M43.01,14.73c0,.06.04.11.05.17.02-.02.05-.04.07-.06l-.06-.17s-.07.05-.07.07Z"/>
      <path class="cls-1" d="M81.48,31.07c-.01-.37-.12-.73-.45-.96v-.47h-.01v.47c.37.95.21,1.99.44,2.97.03-.67.05-1.34.02-2Z"/>
      <path class="cls-1" d="M51.1,109.37s-.06.05-.06.08c-.05.22.09.5.25.52.03,0,.07-.02.08-.04.09-.13,0-.4-.19-.54-.02-.02-.06-.02-.08-.03Z"/>
      <path class="cls-1" d="M40.19,61.4c.19-.19.38-.38.61-.61q-.58,0-.61.61Z"/>
      <path class="cls-1" d="M211.7,113.71l.18.09c.06-.03.12-.06.18-.09-.05-.04-.1-.12-.14-.11-.08.01-.15.07-.22.11Z"/>
      <polygon class="cls-1" points="162.81 115.06 162.82 115.04 162.81 115.06 162.81 115.06"/>
      <path class="cls-1" d="M98.3,107.93s.07.09.1.14c.03-.06.08-.11.09-.17,0-.06-.05-.12-.07-.17-.04.07-.1.13-.12.21Z"/>
      <path class="cls-1" d="M139.73,124.32s.09.09.17.16c.06-.08.11-.16.15-.24,0,0-.06-.07-.07-.07-.09.04-.17.09-.25.14Z"/>
      <path class="cls-1" d="M232.8,126.88c-.22.46-.39.9-.48,1.37-.01.08.03.18.06.27.73-.75.79-.95.42-1.64Z"/>
      <path class="cls-1" d="M229.24,124.87s-.1-.11-.14-.11c-.07,0-.14.06-.21.1.06.03.12.06.17.09.06-.03.12-.05.18-.08Z"/>
      <path class="cls-1" d="M157.61,121.8c.83-.21,1.65-.43,2.47-.66.07-.02.11-.13.28-.34-.3.06-.44.08-.57.12-1.94.49-3.88.97-5.82,1.48-.26.07-.57.08-.74.35.43.03.84-.02,1.26-.15,1.03-.31,2.08-.53,3.12-.8Z"/>
      <path class="cls-1" d="M6.53,31.11c-.22.33-.37.56-.56.85q.56-.29.56-.85Z"/>
      <path class="cls-1" d="M223.59,142.6s.05.09.08.14c.05-.04.13-.07.15-.11.02-.05-.02-.13-.03-.19-.07.05-.14.1-.2.17Z"/>
      <path class="cls-1" d="M232.23,128.7s.08-.09.12-.14c-.08,0-.17-.01-.12.14Z"/>
      <path class="cls-1" d="M228.39,133.74s-.05.02-.08.03l.1.04s-.01-.05-.02-.07Z"/>
      <path class="cls-1" d="M4.01,32.57c-.31.18-.61.36-.92.55.45.21.77.03,1.08-.14.1-.05.19-.26.17-.36-.04-.2-.21-.11-.33-.04Z"/>
      <path class="cls-1" d="M227.48,135.6c-.1.1-.11.32-.21.36-.42.18-.59.54-.7.92-.11.37-.38.69-.36,1.27.8-.82,1.32-1.6,1.53-2.59-.1,0-.21-.02-.26.03Z"/>
      <path class="cls-1" d="M4.84,33.02c.39.05.56-.19.88-.65-.42.21-.63.31-.83.42-.04.02-.03.12-.05.23Z"/>
      <path class="cls-1" d="M164.54,59.93s-.06-.02-.08-.02c0,0-.02.04-.02.07.03,0,.06.02.08.02.01,0,.02-.04.03-.06Z"/>
      <path class="cls-1" d="M227.76,135.51c.02-.15.04-.3.08-.55-.26.24-.18.4-.08.55Z"/>
      <path class="cls-1" d="M71.73,137.95s.05.08.08.12c.04-.05.09-.1.13-.15-.07,0-.14.02-.21.03Z"/>
      <path class="cls-1" d="M81.81,138.35c0-.33.08-.66.12-.99.13-1.14.23-2.28-.27-3.39-.29-.64-.44-1.33-.66-2-.08-.24-.17-.49-.28-.72-.14-.29-.57-.3-.72-.03-.09.16-.15.34-.19.52-.26,1.04-.53,2.08-.78,3.12-.32,1.33-.66,2.66-.93,4-.12.6-.35,1.2-.24,1.96,1.35-.08,2.51-.32,3.4-1.32.31-.35.56-.66.56-1.15Z"/>
      <path class="cls-1" d="M85.93,135.67c-.03.05-.09.11-.09.17,0,.06.04.12.07.18.03-.05.07-.11.1-.16-.03-.06-.05-.12-.08-.18Z"/>
      <path class="cls-1" d="M214.63,143.72c.56.48,1.1-.11,1.72.03.08-.29.13-.42.16-.56.16-.9.46-1.71,1.26-2.26.04-.03-.01-.18-.02-.28-1.39.57-2.62,1.78-3.11,3.08Z"/>
      <path class="cls-1" d="M76.64,128.23s-.09-.1-.13-.14c.01.06.02.11.04.17.03,0,.06-.01.1-.02Z"/>
      <path class="cls-1" d="M76.26,128s.1,0,.15.01c-.03-.02-.07-.04-.1-.06,0,0-.03.03-.04.04Z"/>
      <path class="cls-1" d="M72.37,137.74c-.07-.04-.16-.13-.22-.12-.12.03-.22.11-.17.26.09,0,.19.02.27,0,.04-.01.07-.09.11-.14Z"/>
      <path class="cls-1" d="M248.83,78.39c-.22-.52-.55-.95-1.07-1.24-.28-.16-.53-.4-.73-.66-1.03-1.31-2.05-2.64-3.06-3.97-1.06-1.41-2.37-2.56-3.79-3.58-1.09-.78-2.21-1.51-3.33-2.23-1.82-1.16-3.7-2.21-5.71-3-.17-.07-.36-.18-.53-.16-.55.06-1.01-.21-1.5-.38-.81-.27-1.62-.57-2.44-.76-.9-.21-1.81-.44-2.75-.2-.14.04-.3.04-.44.03-.74-.08-1.48-.15-2.21-.27-1.69-.29-3.39-.42-5.1-.31-.48.03-.97.03-1.45,0-1.41-.1-2.82-.05-4.23,0-1.3.05-2.6.11-3.89.16-.19,0-.38.02-.56,0-1.17-.2-2.29.08-3.41.32-.73.15-1.45.3-2.19.41-.99.14-1.99.26-2.99.35-1.44.13-2.87.41-4.33.35-.25-.01-.51.08-.76.13-.8.16-1.59.42-2.4.46-1.05.06-2.04.39-3.07.52-.11.01-.24.05-.3.12-.26.31-.58.26-.92.25-.37-.02-.74.01-1.11.04-1.18.08-2.37.18-3.55.26-.67.04-1.33.06-2,.1-.42.02-.83.05-1.3-.38.52.07.88.13,1.24.15.15,0,.37-.02.32-.37-1.37.1-2.73.18-4.09.33-.47.05-.91.29-1.37.41-.32.09-.65.16-.98.19-1.22.09-2.44.16-3.66.25-.63.05-1.25.16-1.88.2-1.22.08-2.45.13-3.67.21-.33.02-.68.04-.99.14-1.43.47-2.85.16-4.34-.03-.1.58-.58.55-1.03.57-1.41.06-2.82.04-4.19.42-.24.07-.52.05-.78.04-1.19-.03-2.37-.07-3.56-.09-.29,0-.69-.04-.86.12-.56.52-1.16.36-1.79.29-.37-.04-.74-.08-1.11-.07-.85.03-1.7.09-2.55.12-.37.01-.74-.02-1.11-.04-.7-.04-1.41-.11-2.11-.11-.86,0-1.7-.05-2.55-.15-.94-.11-1.89-.49-2.86-.16-.06.02-.16.01-.22-.02-.86-.37-1.76-.15-2.64-.17-.74-.02-1.48.03-2.21-.16-.57-.15-1.15-.28-1.74-.38-.65-.11-1.35-.32-1.97-.2-.78.16-1.54-.14-2.29.1-1.39-.19-2.79-.33-4.16-.6-1.08-.21-2.13-.6-3.2-.89-1.36-.38-2.72-.75-3.95-1.46.13-.01.27-.02.45-.04-.16-.43-.49-.4-.79-.42-.02,0-.05.15-.08.25.15.09.4-.02.46.24-.15-.08-.31-.16-.46-.23,0,0,0,0,0,0-1.03.17-1.95-.05-2.86-.61-1.04-.64-2.16-1.17-3.29-1.62-1.98-.8-4.01-1.51-6.09-2.29.07.36.12.63.18.93-.2.04-.34.1-.48.1-.43,0-.79-.19-1.12-.44-1.07-.81-2.14-1.6-3.2-2.42-1.06-.83-2.02-1.75-2.67-2.96-.25-.45-.59-.85-.88-1.28-.25-.37-.54-.73-.7-1.13-.49-1.32-.93-2.66-1.39-3.99-.04-.12-.08-.24-.18-.52-.24.42-.39.69-.55.96-.17.29-.33.58-.52.85-.19.27-.44.5-.64.76-.07.08-.09.2-.15.3-.07.13-.12.28-.22.39-.42.44-.64.99-.85,1.55-.13.35-.36.63-.6.91-.38.44-.81.84-1.13,1.36-.53.85-1.21,1.6-1.75,2.44-.48.73-1.15,1.37-1.27,2.29-.65.26-1.07.71-1.33,1.31-.12.28-.29.51-.58.65-.75.36-1.35.92-1.83,1.58-.37.51-.82.87-1.39,1.06-.6.2-1.05.55-1.4,1.04-.18.26-.41.41-.68.54-.88.43-1.61,1.05-2.35,1.68-.14.12-.25.31-.41.36-.46.14-.74.48-1.07.78-1,.89-2.03,1.74-3.27,2.28-.47.2-.94.39-1.4.58.13.71.05,1.29-.4,1.81-.35.4-.42.9-.48,1.49.18-.1.3-.12.35-.2.24-.33.47-.67.69-1.01.44-.66,1.04-1.15,1.7-1.56.52.03.79-.33,1.08-.68.36-.42.74-.83,1.13-1.23.11-.12.28-.18.5-.31.02.24.09.42.03.52-.3.5-.56,1.05-.97,1.46-.77.76-1.34,1.66-1.96,2.53-.02.03.03.12.05.24.4-.22.67-.74,1.3-.56-.08.2-.12.42-.24.58-.36.47-.78.9-1.14,1.37-.18.23-.4.5-.41.76-.02.42-.22.69-.46.98-.52.63-1.1,1.22-1.54,1.9-.95,1.46-1.86,2.95-2.54,4.57-.12.27-.25.54-.41.79-.5.74-.87,1.55-1.22,2.37-.22.51-.48,1-.74,1.5-.09.17-.22.32-.39.57-.05-.46-.14-.75-.49-.93-.25-.12-.46-.33-.69-.5-.35.17-.48.48-.66.76-.13.22-.29.43-.44.63-.02.03-.12,0-.24-.01.08-.33.15-.64.22-.9-.11-.15-.17-.25-.23-.33-.79-1.04-1.06-2.19-.74-3.46.12-.47.2-.94.31-1.41.41-1.74.94-3.43,1.81-4.99.4-.72.76-1.44.95-2.24.14-.55.41-1.03.82-1.43.64-.61,1.28-1.24,1.92-1.86.21-.21.44-.41.62-.64.27-.35.1-.78-.34-.81-.55-.04-1.1,0-1.73,0-.07-.08-.19-.22-.32-.34-.44-.44-.69-.43-1.15.05-.05.05-.09.15-.14.15-.29.01-.59.04-.87-.01-.27-.05-.6,0-.71-.4-.08-.27-.31-.29-.52-.11-.16.14-.32.14-.51.12-.4-.05-.81-.07-1.21-.11-.26-.03-.53-.03-.77-.11-1.09-.36-2.05-.99-3.11-1.42-.26-.1-.48-.34-.7-.54-.24-.23-.47-.47-.69-.72-.21-.24-.41-.49-.72-.87.07.78.16,1.4.17,2.02.02,1.37.15,2.73.34,4.09.19,1.39.21,2.81.59,4.17.03.11.03.22.03.33.06,1.67-.06,3.33-.23,4.99-.09.88-.24,1.75-.14,2.64.02.22,0,.44-.02.66-.08.7-.3,1.4-.24,2.09.09,1.08-.16,2.08-.54,3.04-.22.57-.34,1.13-.38,1.71-.07,1-.25,1.98-.67,2.95.25.48.52.96.78,1.45.62,1.18,1.27,2.35,2.13,3.38.24.29.46.59.56.95.12.44.37.8.63,1.17.3.42.55.88.84,1.31.39.58.72,1.24,1.22,1.71.5.46.92.94,1.25,1.52.53.91,1.24,1.65,2.13,2.22.25.16.5.33.71.53.95.93,2,1.75,2.99,2.64,1.02.93,2.1,1.76,3.19,2.6.62.47,1.16,1.04,1.73,1.56.27.88,1,1.24,1.76,1.57.42.18.79.42,1.05.8.55.79,1.37,1.24,2.18,1.69.52.29,1.03.58,1.49.96.54.44,1.12.83,1.86.92.39.05.83.2,1.11.46.62.57,1.39.79,2.2,1.18-.26-1.02-.6-1.9-1.15-2.7-.29-.43-.53-.89-.79-1.33-.07-.13-.12-.27-.21-.39-1.06-1.44-1.89-3.01-2.64-4.63-.35-.75-.39-1.43-.22-2.42.28,0,.59-.05.86.01.44.1.85.14,1.31,0,.49-.15.96.04,1.34.37.53.46,1.09.88,1.47,1.5.23.37.58.67.87,1.01.36.42.8.79,1.07,1.26.26.46.6.84.94,1.23.86.98,1.55,2.07,1.96,3.33.44,1.33.79,2.71,1.5,3.94.09.16.12.32.08.52-.11.55-.09.56.55.91.15.72.31,1.48.45,2.24.19.99.47,1.95.93,2.84.55,1.08.81,2.22.87,3.41.03.55-.11,1.15.05,1.65.28.89.1,1.68-.16,2.5-.17.53-.38,1.05-.34,1.62.04.56-.19,1.01-.61,1.37-.44.39-.91.76-1.32,1.19-.36.38-.65.8-1.28.68-.12-.02-.28.1-.39.19-.35.27-.75.28-1.16.31-.96.07-1.93-.19-2.88.05-.97-.22-1.92.06-2.88.17-1.3.15-2.54.52-3.68,1.17-.96.54-1.56,1.34-1.65,2.48-.03.37-.13.73-.19,1.1-.01.1.03.21.04.31q.5.15.96.03c.06-.17.13-.34.19-.52.3-.84.78-1.5,1.63-1.87.26-.12.48-.34.72-.52.77-.58,1.51-1.2,2.46-1.45.13.04.23.07.34.11,1.22.37,1.41.68,1.18,1.93-.03.18-.09.36-.16.53-.25.54-.52,1.07-.77,1.6-.17.35-.46.65-.55,1.09.49.1.92.2,1.35.26.4.06.72-.08.95-.44.98-1.51,2.47-2.44,3.92-3.4.29-.19.69-.06.83.28.13.3.19.62.27.88-.35.46-.66.83-.92,1.23-.27.42-.78.68-.92,1.28.19.05.33.13.45.11.69-.11,1.4-.19,2.08-.37.89-.24,1.76-.59,2.65-.83,1.6-.44,2.6-1.51,3.23-2.97.38-.88.7-1.79,1.04-2.69.17-.45.32-.89.76-1.19.18-.13.29-.43.34-.67.17-.76.32-1.52.44-2.29.12-.84.19-1.69.28-2.54.13-1.14.25-2.28.39-3.42.15-1.29.34-2.57,1.21-3.64.22-.28.37-.65.46-1,.33-1.21.62-2.43.93-3.65.17-.68.37-1.36.5-2.05.25-1.35.48-2.7.65-4.06.09-.77.07-1.56.04-2.33-.02-.52-.17-1.01-.57-1.41-.33-.32-.46-.74-.54-1.2-.12-.73-.31-1.45-.4-2.18-.1-.77-.37-1.53-.19-2.31.25-1.04.56-2.07.99-3.09.27,0,.52.02.78,0,.29-.03.57-.11.8-.15.55.19.45.79.79,1.08.52.04.92.27,1.28.62.61.6,1.21,1.21,1.62,1.97.19.36.31.75.52,1.1.54.91.81,1.9.95,2.94.04.29.04.6.13.88.16.47.16.94.14,1.43-.05,1.16-.3,2.27-.66,3.36-.12.35-.21.72-.25,1.08-.05.48,0,.97-.03,1.45-.03.51-.12,1.01-.17,1.5.32.29.68.22.98.13.62-.18,1.25-.14,1.88-.15.48,0,.97,0,1.45-.04.9-.08,1.78-.04,2.66.15.55.11,1.1.18,1.65,0,.17-.05.39-.09.53-.02.94.46,1.96.42,2.95.48.89.06,1.77.07,2.54.49.24-.08.42-.13.58-.21.78-.4,1.61-.51,2.48-.49,1,.02,2.01,0,3.01-.06,1.59-.09,3.19-.17,4.77-.35.99-.11,2.02-.08,2.96-.48.8-.34,1.66-.49,2.48-.54,1.68-.11,3.31-.4,4.95-.74.76-.16,1.53-.25,2.3-.4,2.11-.43,4.16-1.11,6.27-1.52.61-.12,1.2-.37,1.8-.56.21-.07.42-.12.64-.18.43-.11.88-.18,1.28-.35.96-.41,1.99-.55,2.99-.78.87-.2,1.73-.4,2.59-.63.61-.16,1.21-.36,1.81-.54.59-.18,1.28-.04,1.76-.58.06-.06.21-.04.32-.06.4-.08.81-.12,1.19-.25.68-.24,1.42-.29,2.03-.7,0,0,0-.01-.01-.02-.14,0-.28,0-.51,0,.16-.13.25-.21.34-.28.01,0,.02,0,.04.01.01,0,.03-.01.04,0,.02,0,.04.02.06.04-.03-.01-.07-.02-.1-.03-.01,0-.03,0-.04,0,.06.09.12.18.17.26h.05s-.02.02-.03.03h0c.55.14,1-.12,1.46-.37v-.03c-.13-.07-.06-.18-.04-.29v-.04s0-.05-.02-.08c0,0,0,0,0,0h0,0s.01,0,.02,0c.24-.02.48-.05.71-.07.01-.01.02-.01.03-.03l.02.03s-.02-.03-.02-.03c.01,0,.02,0,.03,0,.03-.05.05-.13.09-.14.08-.02.17,0,.26.02,0,0,.01.07,0,.07-.06.03-.12.07-.18.07-.05,0-.11-.01-.16-.03,0,0,0,.01-.01.02-.02,0-.03,0-.05,0-.2.32-.47.08-.71.07,0,0-.01,0-.02,0,0,.03,0,.05.01.08,0,.01,0,.02,0,.04.01.09.03.19.04.29.01,0,.01.02.03.02,0,0,0,0,0,0l-.02.03c.99-.05,1.92-.36,2.84-.7.17-.06.3-.16.26-.36-.22.07-.43.14-.65.2,0,0,0,0,0,.02h0s0,0-.01-.01c-.14,0-.28.02-.45.03.15-.2.3-.08.45-.03h0s.01,0,.02,0c-.12-.45.11-.68.51-.79.75-.21,1.51-.38,2.25-.64,1.54-.54,3.04-1.19,4.65-1.51.15-.03.3-.06.43-.12,1.08-.54,2.27-.68,3.4-1.05,1.23-.39,2.46-.83,3.68-1.25.42-.15.83-.33,1.24-.48,1.64-.59,3.29-1.17,4.93-1.77.63-.23,1.23-.53,1.87-.7,2.72-.74,5.49-1.26,8.32-1.31,1.15-.02,2.3-.04,3.45,0,1.18.04,2.38-.16,3.55.18.1.03.22.01.33-.01.66-.16,1.31-.05,1.98.04,1.29.17,2.58.27,3.87.41.63.07,1.25.17,1.87.27.84.13,1.68.26,2.51.4.39.07.79.15,1.3.25-.12-.22-.16-.35-.24-.45-.83-1.05-1.56-2.18-2.09-3.41-.68-1.57-1.34-3.14-1.88-4.76-.4-1.19-.79-2.39-.92-3.66-.07-.67-.1-1.32.03-1.99.29-1.49.51-2.99.8-4.48.19-.98.61-1.88,1.13-2.76.29.32.02.76.39,1.07.2-.38.37-.73.59-1.15.12.32.24.56.3.8.17.72.28,1.45.49,2.15.18.62.24,1.23.22,1.87-.01.37,0,.74-.02,1.11-.04,1.23-.05,2.44.44,3.61.07.17.12.35.16.53.21.99.53,1.92,1.09,2.77.16.24.23.54.31.83.24.82.59,1.6,1.05,2.32.28.44.5.91.77,1.35.19.31.42.61.64.9.18.23.39.44.56.68.32.45.59.95.94,1.37,1.01,1.19,2.02,2.38,3.22,3.39,1.54,1.28,3.07,2.59,4.64,3.83,1.08.85,2.16,1.7,3.49,2.16.34.12.67.32.97.54.67.49,1.43.77,2.21,1.04.74.25,1.44.59,2.17.87,1.55.61,3.06,1.37,4.79,1.32.29,0,.58.09.87.17,1,.3,1.98.65,2.98.9.81.2,1.54.54,2.21,1.02.39.28.78.56,1.28.64.42.07.74.32.99.67.35.48.74.91.9,1.52.09.34.32.67.54.96.76.97,1.12,2.06,1.12,3.29,0,.4.09.82.24,1.19.17.43.21.86.21,1.31,0,1.41-.03,2.83.03,4.24.06,1.3-.17,2.58-.29,3.87-.11,1.17-.42,2.33-.69,3.48-.16.68-.42,1.35-1.03,1.8-.15.11-.24.28-.37.42-1.21,1.3-1.78,1.3-2.89.91-.1-.04-.21-.07-.32-.1-.55-.15-1.08-.15-1.64-.02-1.24.28-2.43.67-3.57,1.21-.47.22-.99.42-1.26.89-.37.63-.67,1.31-.97,1.98-.14.31.04.56.41.64.18.04.37.04.55.08.83.18,1.66.38,2.49.55.51.1.75-.02.98-.5.16-.33.29-.68.42-1.03.42-1.06,1.09-1.94,2.01-2.61.12-.09.25-.18.38-.21.61-.15,1.23-.26,1.84-.42.53-.14,1.02.08,1.27.64.13.3.21.63.24.96.06.67-.25,1.22-.65,1.73-.31.39-.7.73-.94,1.18.55.39,1.1.39,1.66.28.88-.17,1.75-.36,2.62-.52.77-.13,1.54-.24,2.22.32.03.03.14-.02.23-.04.04-.08.11-.17.14-.27.44-1.2.51-2.47.65-3.72.17-1.47.28-2.95.69-4.39.2-.71.32-1.45.47-2.17.18-.91.33-1.82.54-2.72.15-.65.37-1.28.36-1.96,0-.22.04-.46.14-.65.27-.51.32-1.05.32-1.61,0-.29.03-.6.11-.88.29-1.11.61-2.21.91-3.32.09-.32.24-.64.26-.97.05-.99.39-1.89.83-2.75.8-1.57,1.02-3.24.97-4.97-.02-.68-.26-1.21-.97-1.46-.96-.34-1.67-1.08-2.46-1.68-.69-.52-1.47-.82-2.22-1.2-.15-.08-.36-.05-.54-.06-1.37,0-2.32-.7-2.92-1.86-.29-.55-.49-1.17-.6-1.79-.29-1.73-.85-3.38-1.28-5.06-.07-.29-.12-.56-.05-.87.09-.36.11-.73.15-1.1.04-.33.03-.67.1-1,.19-.88.2-1.78.08-2.66-.14-1.01-.06-2.01.08-2.99.14-.93.19-1.84.18-2.77,0-.59-.01-1.18.17-1.76.1-.34.06-.74,0-1.1-.28-1.64-.55-3.29-1.05-4.89-.14-.46-.31-.91-.52-1.34-.76-1.49-1.52-2.97-2.1-4.55-.3-.8-.65-1.58-.98-2.36ZM65.96,71.09c-.06-.11-.09-.17-.12-.23.12-.06.24-.12.37-.17,0,0,.1.16.09.17-.1.09-.22.16-.34.24ZM69.86,68.75c-.06-.08-.1-.13-.1-.13.1-.09.2-.17.3-.24,0,0,.07.07.06.07-.09.1-.17.2-.27.3ZM113.64,76.42c-.17.48-.13.95-.14,1.43,0,.22,0,.45-.07.66-.33,1.06-.68,2.11-1.01,3.16-.1.32-.19.64-.25.97-.08.45-.25.84-.56,1.16-.13-.03-.23-.04-.39-.08-.35,1.51-.81,2.99-1.71,4.35-.43-.19-.13-.76-.56-.92-.48.04-.25.61-.55.81-.13-.12-.26-.23-.44-.4-.28.44-.54.86-.81,1.28-.26-.03-.19-.2-.17-.33.05-.36.14-.73.18-1.09.06-.44.16-.89.11-1.33-.12-.98.13-1.92.33-2.85.35-1.6.53-3.21.67-4.84.18-2.11-.18-4.14-.71-6.16-.33-1.27-.83-2.44-1.55-3.55-.54-.83-.88-1.79-1.29-2.64.15-.31.26-.54.38-.78.42-.1.84-.21,1.27-.31.23-.06.45-.06.62.12.24.26.47.2.79.1.4-.12.76.19.87.53.18.54.56.74,1.03.91.24.08.48.22.66.4.95.99,1.94,1.96,2.31,3.35,0,.04.03.07.05.1.44.71.59,1.49.7,2.31.12.92.05,1.85.28,2.76.07.28.06.61-.04.88Z"/>
      <path class="cls-1" d="M153.23,122.75s-.03,0-.05,0c-.01.01-.03,0-.04.02.02,0,.04,0,.05,0,0-.01.02-.01.03-.03Z"/>
      <path class="cls-1" d="M167.78,113.92c-.07,0-.14,0-.21,0,0,0,0,.01,0,.02,0,0,0,0,.01,0,.07,0,.14,0,.2-.01Z"/>
      <path class="cls-1" d="M152.16,122.83s-.02,0-.03,0c0,0,0,.01,0,.02,0,0,.01,0,.02,0,0,0,.01,0,.02,0Z"/>
      <path class="cls-1" d="M148.08,124.33s.07-.02.1-.04c-.04,0-.09.01-.13.01l.03.03Z"/>
      <path class="cls-1" d="M71.98,137.88s-.01,0-.02,0c0,.01-.02.02-.03.03.01,0,.03,0,.05,0,0-.01,0-.01,0-.03Z"/>
      <path class="cls-1" d="M166.91,114.15s0,0,0,0h0s0,0,0-.01c0,0-.01,0-.02,0,0,0,.02.01.01,0Z"/>
      <path class="cls-1" d="M232.38,128.52s0,.01-.02.02c0,0-.01.02-.02.03.02,0,.03,0,.05,0,0-.01,0-.03-.01-.05Z"/>
      <path class="cls-1" d="M76.51,128.09s-.01-.05-.02-.07c-.03,0-.06,0-.09,0,.02.01.04.02.06.03.01.02.03.03.04.05Z"/>
      <path class="cls-1" d="M227.76,135.51s0,.02,0,.03c0,.01-.01.02-.01.03.02,0,.03,0,.04,0-.01-.02-.02-.04-.03-.06Z"/>
      <path class="cls-1" d="M148.08,124.33s-.03-.03-.03-.03c-.01.02-.03.01-.04.03.02,0,.05,0,.07,0Z"/>
      <path class="cls-1" d="M148.01,124.33c-.18,0-.35,0-.63.02.31.19.48.15.63-.02Z"/>
      <path class="cls-1" d="M65.84,70.86c.03.06.06.12.12.23.12-.08.24-.15.34-.24.01-.01-.08-.17-.09-.17-.13.05-.25.11-.37.17Z"/>
      <path class="cls-1" d="M69.76,68.62s.04.05.1.13c.1-.11.18-.2.27-.3,0,0-.06-.07-.06-.07-.1.08-.2.16-.3.24Z"/>
      <path class="cls-1" d="M162.98,115.32s0,.01.01.02c.01,0,.03,0,.04-.02l-.03.02s.03-.02.03-.03h-.05Z"/>
      <path class="cls-1" d="M162.81,115.06h0s0-.02,0-.02c-.09.08-.18.15-.34.28.22,0,.36,0,.51,0-.06-.09-.12-.18-.17-.26h0Z"/>
      <path class="cls-1" d="M163,115.34s0,0,0,.01c0,0,0,0,0,0l.03-.02s-.03,0-.04.02Z"/>
      <path class="cls-1" d="M165.17,114.45s-.02.02-.03.03c.02,0,.03,0,.05,0l-.02-.03Z"/>
      <path class="cls-1" d="M165.14,114.48c-.24.02-.47.05-.71.07.24.01.51.25.71-.07Z"/>
      <path class="cls-1" d="M164.43,114.55s-.01,0-.02,0c0,0,0,0,0,0,0,0,.01,0,.02,0Z"/>
      <polygon class="cls-1" points="164.4 114.55 164.41 114.55 164.41 114.54 164.4 114.55"/>
      <path class="cls-1" d="M166.44,114.17c.17,0,.31-.02.45-.03-.15-.06-.29-.17-.45.03Z"/>
      <path class="cls-1" d="M166.89,114.15s.01,0,.01,0h0s0,0,0,0Z"/>
      <path class="cls-1" d="M166.9,114.15h0s0,0,0,0c0,0-.01,0-.01,0Z"/>
      <path class="cls-1" d="M162.81,115.06s.03,0,.04,0c-.01,0-.02,0-.04-.01,0,0,0,.02,0,.02h0Z"/>
      <path class="cls-1" d="M162.89,115.04s-.03,0-.04,0c.03,0,.07.02.1.03-.02-.01-.04-.04-.06-.04Z"/>
      <path class="cls-1" d="M111.01,63.18s0,0,0,0c.15.08.31.16.46.23-.06-.26-.31-.15-.46-.24Z"/>
      <path class="cls-1" d="M110.98,63.17s.02,0,.03.01c0,0,0,0,0,0,0,0-.02,0-.03,0Z"/>
      <path class="cls-1" d="M165.55,114.41s0-.07,0-.07c-.09-.01-.18-.04-.26-.02-.04,0-.06.08-.09.14.06.01.11.03.16.03.06,0,.12-.04.18-.07Z"/>
      <path class="cls-1" d="M165.17,114.45s.02.03.02.03c0,0,0-.01.01-.02-.01,0-.02,0-.03,0Z"/>
      <path class="cls-1" d="M164.42,114.63v.04s0-.02,0-.04Z"/>
      <path class="cls-1" d="M164.46,114.95c-.01-.1-.03-.19-.04-.29-.02.1-.09.21.04.29Z"/>
      <path class="cls-1" d="M164.41,114.55s0,0,0,0c.02.02.02.05.02.08,0-.03,0-.05-.01-.08,0,0,0,0,0,0Z"/>
      <path class="cls-1" d="M164.47,114.98s.01,0,.02,0c-.01,0-.01-.01-.03-.02v.03Z"/>
      <path class="cls-1" d="M164.47,115s.02-.03.02-.03c0,0,0,0,0,0,0,0-.01,0-.02,0,0,0,0,.01,0,.02Z"/>
      <polygon class="cls-1" points="164.41 114.54 164.41 114.55 164.41 114.55 164.41 114.54"/>
    </g>
    <path class="cls-1" d="M236.44,127.09c-.29-.56.12-.89.39-1.23-.03-.2-.05-.34-.06-.49-.12-1.41-.79-2.44-2.07-3.07-.37-.18-.73-.37-1.11-.53-.51-.22-1.05-.38-1.56-.61-1.15-.52-2.3-1.04-3.43-1.6-.28-.14-.53-.41-.7-.68-.27-.42-.63-.71-1.05-.97-.41-.25-.83-.52-1.15-.86-1.04-1.09-2.04-2.2-3.05-3.31-.5-.28-.94-.63-1.33-1.03-.39,0-.75-.02-.76-.04-.68-2.64-1.97-4.86-3.62-6.79-.47-.09-.84-.17-1.21-.23-.84-.14-1.68-.27-2.52-.4-.62-.1-1.24-.2-1.87-.27-1.29-.15-2.59-.24-3.87-.41-.66-.09-1.31-.2-1.98-.04-.11.03-.23.04-.33.02-1.17-.34-2.36-.14-3.54-.18-.46-.02-.92,0-1.38,0-.42,1.87-.08,5.48.64,5.45.37-.01.66.09.85.41.66,1.11,1.63,1.92,2.6,2.72,1.29,1.06,2.59,2.11,3.8,3.26.92.88,1.94,1.61,3.01,2.29,1.89,1.2,3.91,2.14,5.9,3.12.3.15.63.23.94.34.87.32,1.78.57,2.6.97,1.06.52,2.07,1.16,3.09,1.77.35.21.66.48.73.64.2.63-.36.84-.19,1.26.15.38-.02.73-.16,1.07-.55,1.45-1.09,2.91-1.65,4.36-.41,1.05-.83,2.1-.86,3.28-.28.06-.49.12-.7.14-.77.08-1.56.07-2.31.23-1.42.31-2.76.87-4,1.63-.66.41-1.21.98-1.85,1.41-1.28.88-2.09,2.09-2.55,3.54-.22.71-.33,1.44-.48,2.17-.03.14,0,.29.04.43.26.84.86,1.28,1.7,1.39,1.8.23,3.58.61,5.41.5.29-.02.59.1.88.09.44,0,.9,0,1.31-.14.44-.15.85-.19,1.3-.12.4.06.81.06,1.21.04.41-.02.81-.11,1.21-.16.26-.03.49-.07.72-.24.34-.25.73-.33,1.15-.12.11.06.28.04.41,0,.32-.08.63-.2.95-.28.46-.11.8-.34,1.04-.76.18-.32.42-.61.65-.9.53-.67,1.04-1.35,1.6-1.99.38-.45.36-1.05.65-1.52.44-.73.73-1.54,1-2.35.22-.64.53-1.22.87-1.8.44-.77.89-1.55,1.19-2.39.33-.92.65-1.81,1.33-2.54.2-.21.35-.48.48-.75.28-.57.52-1.15.79-1.72.28-.59.58-1.16.85-1.75.04-.09.07-.23.03-.3ZM217.73,140.8c-.8.54-1.1,1.36-1.26,2.26-.02.14-.08.28-.16.56-.61-.13-1.16.45-1.72-.03.49-1.3,1.72-2.51,3.11-3.08.01.11.06.26.02.28ZM226.18,138.03c-.02-.58.25-.9.36-1.27.11-.38.28-.75.7-.92.1-.04.12-.27.21-.36.05-.05.16-.03.26-.03-.21.99-.74,1.77-1.53,2.59ZM232.35,128.38c-.03-.09-.08-.19-.06-.27.08-.47.25-.91.48-1.37.38.69.32.89-.41,1.64Z"/>
    <path class="cls-1" d="M77.38,121.6c-.78-.37-1.52-.6-2.11-1.14-.28-.26-.72-.41-1.11-.46-.75-.09-1.32-.48-1.86-.92-.47-.38-.97-.67-1.49-.96-.81-.44-1.63-.9-2.18-1.69-.05-.07-.12-.12-.18-.18-.72,2.2-1.82,4.26-2.91,6.31-.02.72.03,1.43.22,2.13.17.63.2,1.25.12,1.88-.2,1.62-.43,3.23-.7,4.84-.07.44-.21.87-.14,1.32.1.65-.22,1.08-.7,1.4-.27.18-.6.28-.92.34-.73.13-1.47.25-2.21.29-.73.04-1.42.43-2.17.22-.06-.02-.15.02-.22.04-.64.18-1.25.47-1.95.4-.07,0-.15.03-.2.08-.5.45-1.1.73-1.71,1.02-.25.12-.44.39-.62.62-.76.93-1.12,2.07-1.63,3.13-.37.76-.67,1.56-1.03,2.4.07.18.13.43.25.66.14.3.38.56.47.87.09.28.04.6.06.99.64-.33,1.3-.26,2-.39.12.16.24.34.37.53.36-.14.67-.26.92-.36.12-.41.16-.8.34-1.1.59-.95,1.1-1.92,1.45-2.98.06-.17.15-.36.28-.46,1.01-.8,2.14-1.42,3.43-1.45,1.12-.03,2.2-.27,3.31-.31.81-.03,1.61-.07,2.32.47.31.24.75.31,1.13.46.21.08.42.15.62.25.17.08.43.04.51.35-1.44.66-2.39,1.83-3.2,3.14-.44-.02-.84-.06-1.25-.06-.38,0-.77.21-1.27.01.21-.23.36-.38.49-.54.23-.29.49-.56.68-.88.4-.67.23-1.19-.47-1.56-.19-.1-.39-.22-.59-.3-1.84-.8-2.6-.95-3.82.49-.17.2-.34.39-.5.6-.63.82-1.26,1.65-1.91,2.51-.12.81.19,1.55.63,2.26.29.47.75.7,1.22.93.4.2.72-.05,1.07-.13.04,0,.07-.03.11-.04.87-.2,1.72-.46,2.6-.56.81-.09,1.63-.02,2.45,0,.17,0,.33.09.53.14,0,.18-.04.34-.06.51,1.35-.59,2.5-1.6,4-1.77.3-.03.61-.03.92-.05.29-.5.7-.92,1.26-1.23,1.14-.65,2.39-1.02,3.68-1.17.58-.07,1.17-.19,1.75-.23.1-.46.17-.93.24-1.4.09-.61.25-1.22.56-1.76-.08,0-.15.02-.23.02-.11-.76.12-1.36.25-1.96.27-1.34.61-2.67.93-4,.25-1.04.51-2.08.78-3.12,0-.02.02-.04.02-.06-.42-2.9-1.39-5.7-2.62-8.37Z"/>
  </g>
  <path class="cls-1" d="M281.2,20.57c-.43-1.22-.68-2.5-1.21-3.7-.07-.15-.05-.35-.06-.48-.24-.19-.43-.34-.52-.41-.13-.32.18-.54-.16-.76-.12.05-.34.08-.43.19-.35.46-.79.9-.95,1.43-.17.56-.46.89-.96,1.07-.47.16-.73.51-.82.94-.21.99-.79,1.88-.74,2.93,0,.13-.1.27-.14.41-.29,1.01-.74,1.96-1.13,2.94-.42,1.07-.82,2.17-1.06,3.29-.14.64-.27,1.25-.6,1.83-.83,1.48-1.26,3.15-2.19,4.58-.04.06-.05.14-.06.21-.03.35-.21.6-.46.83-.18.17-.32.39-.45.6-.37.58-.73,1.16-1.11,1.74-.41.64-.86,1.26-1.23,1.92-.23.42-.5.78-.83,1.13-.59.63-1.18,1.28-1.69,1.98-.43.59-.88,1.15-1.41,1.65-1.33,1.28-2.8,2.4-4.21,3.6-1.64,1.39-3.49,2.46-5.22,3.71-.91.66-1.93,1.15-2.75,1.93-.1.1-.23.18-.36.24-.63.28-1.24.59-1.74,1.08-.1.09-.25.16-.39.17-.39.03-.67.26-.96.47-.44.32-.9.58-1.4.8-.79.34-1.55.76-2.41.96-.14.03-.28.11-.38.2-.76.64-1.73.87-2.58,1.33-.79.43-1.62.8-2.44,1.19-.32.16-.65.3-.95.45-.33-.14-.63-.27-.92-.4-.38,1.34-1.15,2.6-1.95,3.71-.34.47-.71.93-1.09,1.38.8.52,1.59,1.05,2.37,1.6,1.39.99,2.67,2.11,3.7,3.49.35.47.72.94,1.08,1.41,1.51-1.2,3.09-2.26,5.07-2.56.07-.01.14-.01.21-.02-.03-.04-.06-.07-.09-.11-.11-.12-.18-.29-.3-.47.2-.14.32-.27.48-.34.52-.25,1.06-.46,1.58-.71,1.01-.49,2.02-.97,3-1.5,1.33-.73,2.63-1.52,3.95-2.28,1.85-1.07,3.63-2.22,5.27-3.62,1.79-1.52,3.62-3,5.28-4.68.2-.2.43-.39.67-.55.79-.53,1.53-1.08,1.8-2.07.05-.19.22-.36.36-.51.09-.1.24-.25.34-.23.47.1.55-.17.55-.53,0-.31.12-.61.42-.71.62-.2.91-.68,1.17-1.21.13-.27.41-.48.33-.86-.02-.08.23-.21.35-.32-.34-.39.17-.45.26-.67.47-.01.65-.39.88-.7.42-.58.93-1.11,1.18-1.81.05-.13.15-.26.26-.34.25-.17.42-.37.46-.69.02-.17.14-.33.23-.48,1.03-1.74,2.12-3.46,2.58-5.47.11-.49.37-.9.73-1.3.55-.62.91-1.39,1-2.23.05-.43.15-.75.54-.99.17-.1.29-.33.36-.52.21-.6.19-1.28.75-1.73.05-.04.05-.13.06-.2.09-.53.19-1.07.25-1.6.1-.94.22-1.87.55-2.75.06-.17.1-.35.1-.53.01-1.56.24-3.1.39-4.64.06-.58-.01-1.12-.21-1.69ZM272.58,40.64c-.24.44-.51.86-.75,1.3-.15.28-.27.59-.4.88-.04.1-.05.25-.12.29-.75.51-1.04,1.37-1.59,2.02-.53.64-.99,1.34-1.49,2-.24.32-.52.6-.77.91-.37.44-.75.88-1.12,1.32-1.25,1.5-2.41,3.07-3.95,4.3-1.07.86-2.08,1.8-3.13,2.68-.8.67-1.62,1.32-2.58,1.78-.51.25-.93.68-1.4,1.02-.35.26-.69.52-1.06.75-1.02.62-2.06,1.22-3.08,1.83-.25.15-.5.3-.72.49-.98.88-2.13,1.47-3.33,1.98-.3.12-.6.29-.82.52-.57.58-1.28.93-2.01,1.26-.3.14-.59.28-.93.44-1.06-.7-1.99-1.59-3-2.55.21-.07.33-.14.45-.15.87-.02,1.73-.05,2.58-.25.57-.13,1.11-.3,1.63-.56.58-.28,1.19-.52,1.77-.8,1.04-.5,2.08-1.02,3.1-1.55.61-.31,1.2-.66,1.8-1,.6-.34,1.18-.7,1.78-1.04.31-.18.61-.39.94-.53,1.19-.48,2.23-1.19,3.19-2.03.35-.31.74-.57,1.11-.87,1.32-1.07,2.65-2.13,3.94-3.23,1.02-.87,2.02-1.75,2.97-2.7.59-.59,1.17-1.17,1.85-1.64.14-.1.24-.26.35-.4.22-.29.39-.62.64-.87.56-.56.89-1.22.9-2.09.85-.23,1.17-.85,1.49-1.45.5-.95,1.14-1.81,1.72-2.71.32.23.15.45.05.64ZM277.29,21.35c-.54.2-.6.84-.89,1.34-.1-.13-.14-.16-.14-.19,0-.14-.02-.29.04-.41.51-1.1.49-2.37,1.21-3.42-.07.87-.14,1.74-.22,2.68Z"/>
</svg>